<?xml version="1.0" encoding="UTF-8"?>
<!DOCTYPE svg PUBLIC "-//W3C//DTD SVG 1.1//EN" "http://www.w3.org/Graphics/SVG/1.1/DTD/svg11.dtd">
<svg version="1.1" xmlns="http://www.w3.org/2000/svg" xmlns:xlink="http://www.w3.org/1999/xlink" x="0" y="0" width="200" height="150" viewBox="0, 0, 800, 600">
  <defs>
    <radialGradient id="Gradient_1" gradientUnits="userSpaceOnUse" cx="443.937" cy="81.005" r="0.517">
      <stop offset="0.03" stop-color="#FFE000"/>
      <stop offset="0.523" stop-color="#FF6000"/>
      <stop offset="1" stop-color="#540909"/>
    </radialGradient>
    <radialGradient id="Gradient_2" gradientUnits="userSpaceOnUse" cx="113.46" cy="483.987" r="64.819">
      <stop offset="0" stop-color="#B3FF4B"/>
      <stop offset="0.523" stop-color="#C0F589"/>
      <stop offset="1" stop-color="#70BB3B"/>
    </radialGradient>
    <radialGradient id="Gradient_3" gradientUnits="userSpaceOnUse" cx="165.255" cy="544.724" r="52.9">
      <stop offset="0" stop-color="#B3FF4B"/>
      <stop offset="0.523" stop-color="#C0F589"/>
      <stop offset="1" stop-color="#70BB3B"/>
    </radialGradient>
    <radialGradient id="Gradient_4" gradientUnits="userSpaceOnUse" cx="353.574" cy="531.544" r="51.695">
      <stop offset="0" stop-color="#B3FF4B"/>
      <stop offset="0.523" stop-color="#C0F589"/>
      <stop offset="1" stop-color="#70BB3B"/>
    </radialGradient>
    <linearGradient id="Gradient_5" gradientUnits="userSpaceOnUse" x1="86.618" y1="340.326" x2="86.618" y2="209.764">
      <stop offset="0" stop-color="#B3FF4B"/>
      <stop offset="0.523" stop-color="#C0F589"/>
      <stop offset="1" stop-color="#70BB3B"/>
    </linearGradient>
    <radialGradient id="Gradient_6" gradientUnits="userSpaceOnUse" cx="244.551" cy="326.759" r="214.529">
      <stop offset="0" stop-color="#B3FF4B"/>
      <stop offset="0.523" stop-color="#C0F589"/>
      <stop offset="1" stop-color="#70BB3B"/>
    </radialGradient>
    <linearGradient id="Gradient_7" gradientUnits="userSpaceOnUse" x1="45.674" y1="632.129" x2="45.674" y2="470.555" gradientTransform="matrix(0.728, -0.686, 0.686, 0.728, 0, 0)">
      <stop offset="0" stop-color="#B3FF4B"/>
      <stop offset="0.523" stop-color="#C0F589"/>
      <stop offset="1" stop-color="#70BB3B"/>
    </linearGradient>
    <radialGradient id="Gradient_8" gradientUnits="userSpaceOnUse" cx="244.619" cy="269.504" r="71.596">
      <stop offset="0" stop-color="#FFFFFF"/>
      <stop offset="0.291" stop-color="#000000"/>
      <stop offset="0.399" stop-color="#FF2ABA"/>
      <stop offset="0.94" stop-color="#996827"/>
    </radialGradient>
    <linearGradient id="Gradient_9" gradientUnits="userSpaceOnUse" x1="242.481" y1="460.855" x2="242.481" y2="318.328">
      <stop offset="0" stop-color="#FFFFFF"/>
      <stop offset="0.368" stop-color="#000000"/>
    </linearGradient>
    <linearGradient id="Gradient_10" gradientUnits="userSpaceOnUse" x1="399" y1="118.5" x2="399" y2="117.5">
      <stop offset="0" stop-color="#FFFFFF"/>
      <stop offset="0.368" stop-color="#000000"/>
    </linearGradient>
    <linearGradient id="Gradient_11" gradientUnits="userSpaceOnUse" x1="96.405" y1="40.058" x2="170.601" y2="192.855">
      <stop offset="0" stop-color="#FFC14D"/>
      <stop offset="0.362" stop-color="#FF4834"/>
      <stop offset="1" stop-color="#3B0300"/>
    </linearGradient>
    <linearGradient id="Gradient_12" gradientUnits="userSpaceOnUse" x1="179.211" y1="83.317" x2="225.014" y2="157.862">
      <stop offset="0" stop-color="#FFC14D"/>
      <stop offset="0.362" stop-color="#FF4834"/>
      <stop offset="1" stop-color="#3B0300"/>
    </linearGradient>
    <linearGradient id="Gradient_13" gradientUnits="userSpaceOnUse" x1="104.028" y1="244.881" x2="128.496" y2="266.104">
      <stop offset="0" stop-color="#FFC14D"/>
      <stop offset="0.362" stop-color="#FF4834"/>
      <stop offset="1" stop-color="#3B0300"/>
    </linearGradient>
    <linearGradient id="Gradient_14" gradientUnits="userSpaceOnUse" x1="374.998" y1="192.061" x2="411.203" y2="212.457">
      <stop offset="0" stop-color="#FFC14D"/>
      <stop offset="0.362" stop-color="#FF4834"/>
      <stop offset="1" stop-color="#3B0300"/>
    </linearGradient>
    <linearGradient id="Gradient_15" gradientUnits="userSpaceOnUse" x1="387.969" y1="234.161" x2="424.033" y2="256.809">
      <stop offset="0" stop-color="#FFC14D"/>
      <stop offset="0.362" stop-color="#FF4834"/>
      <stop offset="1" stop-color="#3B0300"/>
    </linearGradient>
    <linearGradient id="Gradient_16" gradientUnits="userSpaceOnUse" x1="334.853" y1="162.924" x2="369.839" y2="197.427">
      <stop offset="0" stop-color="#FFC14D"/>
      <stop offset="0.362" stop-color="#FF4834"/>
      <stop offset="1" stop-color="#3B0300"/>
    </linearGradient>
    <linearGradient id="Gradient_17" gradientUnits="userSpaceOnUse" x1="341.984" y1="220.342" x2="373.289" y2="249.228">
      <stop offset="0" stop-color="#FFC14D"/>
      <stop offset="0.362" stop-color="#FF4834"/>
      <stop offset="1" stop-color="#3B0300"/>
    </linearGradient>
    <radialGradient id="Gradient_18" gradientUnits="userSpaceOnUse" cx="240.856" cy="240.743" r="54.621">
      <stop offset="0" stop-color="#B3FF4B"/>
      <stop offset="0.523" stop-color="#C0F589"/>
      <stop offset="1" stop-color="#70BB3B"/>
    </radialGradient>
    <radialGradient id="Gradient_19" gradientUnits="userSpaceOnUse" cx="9.437" cy="154.011" r="1.034">
      <stop offset="0" stop-color="#B3FF4B"/>
      <stop offset="0.523" stop-color="#C0F589"/>
      <stop offset="1" stop-color="#70BB3B"/>
    </radialGradient>
    <radialGradient id="Gradient_20" gradientUnits="userSpaceOnUse" cx="239.805" cy="323.947" r="53.67">
      <stop offset="0" stop-color="#B3FF4B"/>
      <stop offset="0.523" stop-color="#C0F589"/>
      <stop offset="1" stop-color="#70BB3B"/>
    </radialGradient>
    <radialGradient id="Gradient_21" gradientUnits="userSpaceOnUse" cx="288.875" cy="157.505" r="0.517">
      <stop offset="0" stop-color="#B3FF4B"/>
      <stop offset="0.523" stop-color="#C0F589"/>
      <stop offset="1" stop-color="#70BB3B"/>
    </radialGradient>
    <radialGradient id="Gradient_22" gradientUnits="userSpaceOnUse" cx="60.145" cy="217.794" r="20.677">
      <stop offset="0" stop-color="#B3FF4B"/>
      <stop offset="0.523" stop-color="#C0F589"/>
      <stop offset="1" stop-color="#70BB3B"/>
    </radialGradient>
    <radialGradient id="Gradient_23" gradientUnits="userSpaceOnUse" cx="25.973" cy="180.306" r="59.862">
      <stop offset="0" stop-color="#B3FF4B"/>
      <stop offset="0.523" stop-color="#C0F589"/>
      <stop offset="1" stop-color="#70BB3B"/>
    </radialGradient>
    <radialGradient id="Gradient_24" gradientUnits="userSpaceOnUse" cx="437.806" cy="443.421" r="30.09">
      <stop offset="0" stop-color="#B3FF4B"/>
      <stop offset="0.523" stop-color="#C0F589"/>
      <stop offset="1" stop-color="#70BB3B"/>
    </radialGradient>
    <radialGradient id="Gradient_25" gradientUnits="userSpaceOnUse" cx="476" cy="506" r="0">
      <stop offset="0" stop-color="#B3FF4B"/>
      <stop offset="0.523" stop-color="#C0F589"/>
      <stop offset="1" stop-color="#70BB3B"/>
    </radialGradient>
    <radialGradient id="Gradient_26" gradientUnits="userSpaceOnUse" cx="252.994" cy="416.692" r="144.013">
      <stop offset="0" stop-color="#FFF598"/>
      <stop offset="1" stop-color="#FFB713"/>
    </radialGradient>
    <radialGradient id="Gradient_27" gradientUnits="userSpaceOnUse" cx="251.168" cy="183.94" r="48.528">
      <stop offset="0" stop-color="#FFF598"/>
      <stop offset="1" stop-color="#FFB713"/>
    </radialGradient>
    <linearGradient id="Gradient_28" gradientUnits="userSpaceOnUse" x1="334" y1="31" x2="334" y2="31">
      <stop offset="0" stop-color="#FAFFA4"/>
      <stop offset="0.473" stop-color="#FFFFFF"/>
      <stop offset="0.558" stop-color="#F6FFD9"/>
      <stop offset="1" stop-color="#FFA200"/>
    </linearGradient>
  </defs>
  <g id="Layer_1">
    <g>
      <path d="M443.5,81.5 L444.5,80.5" fill="url(#Gradient_1)"/>
      <path d="M443.5,81.5 L444.5,80.5" fill-opacity="0" stroke="#000000" stroke-width="1" stroke-linecap="round" stroke-linejoin="round"/>
    </g>
    <path d="M211,498 C205.215,512.114 190.811,524.314 178,532 C170.437,536.538 160.192,535.659 152,538 C143.679,540.377 135.769,546 127,546 C82.971,546 42.325,522.302 31,477 C24.954,452.816 54.771,416.443 73,421 C86.036,424.259 101.15,457.776 93,470 C89.627,475.06 77.425,476.126 76,469 C74.765,462.826 93.289,435 67,435 C65.037,435 56.126,437.498 55,439 C36.692,463.41 51.954,516.791 83,523 C118.268,530.054 156.109,525.113 185,502 C189.754,498.197 207.981,461.981 218,472 C226.057,480.057 212.818,503.455 206,508 C201.888,510.741 196.23,512.77 193,516" fill="url(#Gradient_2)"/>
    <path d="M196.114,493 C200.139,501.674 202.114,511.48 202.114,521 C202.114,527.836 205.584,549.531 200.114,555 C198.133,556.981 133.653,563.307 128.114,567 C125.183,568.954 120.291,576.862 119.114,580 C118.588,581.402 119.874,591.62 123.114,590 C124.343,589.385 123.142,586.972 124.114,586 C129.826,580.288 141.789,577.649 141.114,579 C139.497,582.233 133.114,584.036 133.114,589 C133.114,590.127 136.214,596.9 138.114,595 C149.03,584.085 169.589,574.542 186.114,572 C195.568,570.546 216.175,573.954 224.114,568 C227.042,565.804 218.705,547.546 218.114,544 C215.964,531.103 220.9,511.142 218.114,500 C217.635,498.082 202.015,494.45 199.114,493" fill="url(#Gradient_3)"/>
    <path d="M298,495 C303.62,514.798 307,540.273 307,562 C307,562.94 306.38,569.587 307,570 C312.755,573.837 329.144,567.171 335,566 C347.329,563.534 366.21,566.053 378,569 C381.277,569.819 408.923,581.077 409,581 C414.458,575.542 395,566.873 395,566 C395,563.081 426.289,566.612 425,565 C408.375,544.218 378.447,562.362 357,557 C348.036,554.759 340.071,550.814 331,549 C328.081,548.416 323.385,550.385 321,548 C314.835,541.835 320.566,487.85 316,481 C315.891,480.837 299.725,493.275 298,495" fill="url(#Gradient_4)"/>
    <path d="M95,337.5 C61.863,337.5 37.319,320.58 35,300 C27,229 52.133,190.222 57,223 C74,337.5 155,279.289 155,300 C155,320.711 128.137,337.5 95,337.5 z" fill="url(#Gradient_5)"/>
    <path d="M262.5,532 C183.247,532 119,439.099 119,324.5 C119,209.901 183.247,117 262.5,117 C341.753,117 406,209.901 406,324.5 C406,439.099 341.753,532 262.5,532 z" fill="url(#Gradient_6)"/>
    <path d="M421,440 C408,409 458.516,390.133 432,362 C405.484,333.867 342.15,328.485 360.637,311.06 C379.125,293.635 393,257 442.124,330.449 C463.617,362.584 473.487,417.575 455,435 z" fill="url(#Gradient_7)"/>
    <g>
      <path d="M253.5,338 C214.288,338 182.5,306.996 182.5,268.75 C182.5,230.504 214.288,199.5 253.5,199.5 C292.712,199.5 324.5,230.504 324.5,268.75 C324.5,306.996 292.712,338 253.5,338 z" fill="url(#Gradient_8)"/>
      <path d="M253.5,338 C214.288,338 182.5,306.996 182.5,268.75 C182.5,230.504 214.288,199.5 253.5,199.5 C292.712,199.5 324.5,230.504 324.5,268.75 C324.5,306.996 292.712,338 253.5,338 z" fill-opacity="0" stroke="#000000" stroke-width="1"/>
    </g>
    <g>
      <path d="M148.5,338.5 C155.924,345.533 158.72,357.364 165.5,365.5 C191.973,397.268 225.05,405.118 262.5,391.5 C285.76,383.042 305.042,359.534 320.5,341.5 C325.046,336.196 334.945,316.282 335.5,318.5 C342.097,344.889 313.196,421.665 297.5,440.5 C285.404,455.015 264.753,462.639 245.5,460.5 C211.607,456.734 175.656,412.812 161.5,384.5 C157.049,375.599 153.403,365.016 151.5,355.5 C150.808,352.038 150.5,335.611 150.5,341.5" fill="url(#Gradient_9)"/>
      <path d="M148.5,338.5 C155.924,345.533 158.72,357.364 165.5,365.5 C191.973,397.268 225.05,405.118 262.5,391.5 C285.76,383.042 305.042,359.534 320.5,341.5 C325.046,336.196 334.945,316.282 335.5,318.5 C342.097,344.889 313.196,421.665 297.5,440.5 C285.404,455.015 264.753,462.639 245.5,460.5 C211.607,456.734 175.656,412.812 161.5,384.5 C157.049,375.599 153.403,365.016 151.5,355.5 C150.808,352.038 150.5,335.611 150.5,341.5" fill-opacity="0" stroke="#000000" stroke-width="1" stroke-linecap="round" stroke-linejoin="round"/>
    </g>
    <g>
      <path d="M399.5,117.5 L398.5,118.5" fill="url(#Gradient_10)"/>
      <path d="M399.5,117.5 L398.5,118.5" fill-opacity="0" stroke="#000000" stroke-width="1" stroke-linecap="round" stroke-linejoin="round"/>
    </g>
    <g>
      <path d="M140.5,224.5 C122.372,220.665 108.992,207.319 99.5,191.5 C68.039,139.065 78.366,71.367 118.5,25.5 C136.425,5.015 178.5,6.695 178.5,11.5 C178.5,11.781 168.492,11.103 167.5,11.5 C161.97,13.712 156.731,17.013 151.5,20.5 C124.514,38.491 111.936,65.075 121.5,96.5 C127.55,116.379 135.076,129.61 152.5,140.5 C162.277,146.611 195.155,154.327 183.5,148.5" fill="url(#Gradient_11)"/>
      <path d="M140.5,224.5 C122.372,220.665 108.992,207.319 99.5,191.5 C68.039,139.065 78.366,71.367 118.5,25.5 C136.425,5.015 178.5,6.695 178.5,11.5 C178.5,11.781 168.492,11.103 167.5,11.5 C161.97,13.712 156.731,17.013 151.5,20.5 C124.514,38.491 111.936,65.075 121.5,96.5 C127.55,116.379 135.076,129.61 152.5,140.5 C162.277,146.611 195.155,154.327 183.5,148.5" fill-opacity="0" stroke="#000000" stroke-width="1" stroke-linecap="round" stroke-linejoin="round"/>
    </g>
    <g>
      <path d="M208.5,172.5 C193.001,179.765 177.406,135.582 172.5,122.5 C168.268,111.215 168.104,87.896 177.5,78.5 C177.643,78.357 193.682,64.864 195.5,68.5 C196.248,69.997 190.689,79.227 190.5,81.5 C189.944,88.174 191.148,95.229 193.5,101.5 C197.597,112.426 233.5,118.5 234.5,138.5" fill="url(#Gradient_12)"/>
      <path d="M208.5,172.5 C193.001,179.765 177.406,135.582 172.5,122.5 C168.268,111.215 168.104,87.896 177.5,78.5 C177.643,78.357 193.682,64.864 195.5,68.5 C196.248,69.997 190.689,79.227 190.5,81.5 C189.944,88.174 191.148,95.229 193.5,101.5 C197.597,112.426 233.5,118.5 234.5,138.5" fill-opacity="0" stroke="#000000" stroke-width="1" stroke-linecap="round" stroke-linejoin="round"/>
    </g>
    <g>
      <path d="M130.5,264.5 C122.95,271.151 91.732,244.884 100.5,240.5 C101.175,240.162 109.805,245.822 111.5,246.5 C122.933,251.073 133.5,240.786 133.5,254.5 C133.5,260.245 134.117,265.267 131.5,270.5" fill="url(#Gradient_13)"/>
      <path d="M130.5,264.5 C122.95,271.151 91.732,244.884 100.5,240.5 C101.175,240.162 109.805,245.822 111.5,246.5 C122.933,251.073 133.5,240.786 133.5,254.5 C133.5,260.245 134.117,265.267 131.5,270.5" fill-opacity="0" stroke="#000000" stroke-width="1" stroke-linecap="round" stroke-linejoin="round"/>
    </g>
    <g>
      <path d="M368.5,197.5 C384.003,194.821 402.279,185.256 418.5,188.5 C420.501,188.9 406.937,200.136 406.5,200.5 C403.083,203.347 384.505,218.503 380.5,216.5 C373.131,212.815 372.345,200.345 367.5,195.5" fill="url(#Gradient_14)"/>
      <path d="M368.5,197.5 C384.003,194.821 402.279,185.256 418.5,188.5 C420.501,188.9 406.937,200.136 406.5,200.5 C403.083,203.347 384.505,218.503 380.5,216.5 C373.131,212.815 372.345,200.345 367.5,195.5" fill-opacity="0" stroke="#000000" stroke-width="1" stroke-linecap="round" stroke-linejoin="round"/>
    </g>
    <g>
      <path d="M381.5,240.5 C390.143,237.775 399.329,235.616 408.5,233.5 C419.181,231.035 431.692,229.212 431.5,229.5 C430.834,230.499 391.882,261.5 390.5,261.5 C388.105,261.5 381.232,242.427 380.5,239.5" fill="url(#Gradient_15)"/>
      <path d="M381.5,240.5 C390.143,237.775 399.329,235.616 408.5,233.5 C419.181,231.035 431.692,229.212 431.5,229.5 C430.834,230.499 391.882,261.5 390.5,261.5 C388.105,261.5 381.232,242.427 380.5,239.5" fill-opacity="0" stroke="#000000" stroke-width="1" stroke-linecap="round" stroke-linejoin="round"/>
    </g>
    <g>
      <path d="M342.5,167.5 C345.881,164.362 350.564,164.468 354.5,162.5 C398.656,140.422 366.132,178.447 356.5,194.5 C355.445,196.258 350.436,205.479 347.5,204.5 C313.662,193.221 330.713,152.713 342.5,164.5" fill="url(#Gradient_16)"/>
      <path d="M342.5,167.5 C345.881,164.362 350.564,164.468 354.5,162.5 C398.656,140.422 366.132,178.447 356.5,194.5 C355.445,196.258 350.436,205.479 347.5,204.5 C313.662,193.221 330.713,152.713 342.5,164.5" fill-opacity="0" stroke="#000000" stroke-width="1" stroke-linecap="round" stroke-linejoin="round"/>
    </g>
    <g>
      <path d="M336.5,232.5 C342.378,227.923 349.778,226.301 356.5,223.5 C357.632,223.028 378.069,213.069 379.5,214.5 C381.253,216.253 373.978,230.447 373.5,231.5 C371.197,236.567 368.223,251.351 363.5,254.5 C360.17,256.72 342.931,253.278 340.5,250.5 C336.255,245.649 336.769,242.576 335.5,237.5" fill="url(#Gradient_17)"/>
      <path d="M336.5,232.5 C342.378,227.923 349.778,226.301 356.5,223.5 C357.632,223.028 378.069,213.069 379.5,214.5 C381.253,216.253 373.978,230.447 373.5,231.5 C371.197,236.567 368.223,251.351 363.5,254.5 C360.17,256.72 342.931,253.278 340.5,250.5 C336.255,245.649 336.769,242.576 335.5,237.5" fill-opacity="0" stroke="#000000" stroke-width="1" stroke-linecap="round" stroke-linejoin="round"/>
    </g>
    <path d="M164,293 C162.253,283.187 170.515,278.227 176,270 C201.081,232.378 244.721,207.537 281.912,231.204 C294.824,239.42 309.566,248.276 320.912,258.204 C329.524,265.739 334.139,278.26 345.912,281.204 C358.859,284.44 338.429,275.237 328.912,256.204 C322.819,244.017 306.522,209.813 296.912,200.204 C270.771,174.062 219.206,191.837 198.912,217.204 C190.828,227.31 181.742,238.678 174,249 C165.427,260.43 159.422,273.164 155.912,287.204" fill="url(#Gradient_18)"/>
    <path d="M9,155 L10,153" fill="url(#Gradient_19)"/>
    <path d="M164,289 C213.019,295.953 239.552,327.869 296,294 C299.39,291.966 345,261.251 345,275 C345,276.285 339.829,279.894 339,281 C335.655,285.46 331.366,293.535 330,299 C321.39,333.442 282.208,367.398 248,375 C240.13,376.749 227.507,370.253 221,367 C193.362,353.181 185.865,309.576 158,291" fill="url(#Gradient_20)"/>
    <path d="M290,157 L288,158" fill="url(#Gradient_21)"/>
    <g>
      <path d="M263,277.5 C254.712,277.5 247.993,270.781 247.993,262.493 C247.993,254.204 254.712,247.485 263,247.485 C271.288,247.485 278.007,254.204 278.007,262.493 C278.007,270.781 271.288,277.5 263,277.5 z" fill="#FFFFFF"/>
      <path d="M263,277.5 C254.712,277.5 247.993,270.781 247.993,262.493 C247.993,254.204 254.712,247.485 263,247.485 C271.288,247.485 278.007,254.204 278.007,262.493 C278.007,270.781 271.288,277.5 263,277.5 z" fill-opacity="0" stroke="#FFFFFF" stroke-width="1"/>
    </g>
    <path d="M47.5,188.336 z" fill="#FFFFFF"/>
    <path d="M53.139,230.576 C60.311,220.432 74.197,213.934 79.139,201.576 C79.309,201.153 78.652,197.576 80.139,197.576 C82.745,197.576 71.746,204.334 71.139,204.576 C63.905,207.47 50.386,205.082 46.139,213.576 C39.003,227.85 54.751,230.636 55.139,232.576 C55.473,234.243 54.473,235.91 54.139,237.576" fill="url(#Gradient_22)"/>
    <path d="M54.384,206.811 C51.756,202.586 55.369,198.869 56.384,194.811 C60.165,179.685 60.904,165.531 55.384,150.811 C52.369,142.772 48.798,134.396 47.384,135.811 C45.969,137.225 47.384,139.811 47.384,141.811 C47.384,153.559 46.384,165.27 46.384,176.811 C46.384,186.656 46.384,196.017 46.384,195.811 C46.384,194.811 46.58,193.791 46.384,192.811 C42.217,171.978 35.649,150.586 24.384,131.811 C23.826,130.882 16.782,121.112 15.384,121.811 C13.208,122.899 17.936,136.018 18.384,137.811 C22.826,155.579 22.555,175.74 29.384,192.811 C30.658,195.997 31.314,203.345 34.384,201.811 C35.642,201.182 23.936,189.363 23.384,188.811 C20.385,185.812 1.404,163.47 0.384,163.811 C-2.447,164.754 11.279,190.602 12.384,192.811 C15.262,198.568 28.569,213.551 29.384,216.811 C30.155,219.895 25.234,225.213 26.384,229.811 C28.6,238.677 48.626,240.325 52.384,232.811" fill="url(#Gradient_23)"/>
    <path d="M426,414 C408.936,424.727 423.642,442.955 418,458 C416.605,461.72 415.706,464.588 414,468 C413.333,469.333 410.946,470.946 412,472 C413,473 414.151,470.131 415,469 C418.432,464.425 424.113,460.661 426,455 C426.176,454.472 428.203,444 429,444 C430.374,444 429.293,446.822 430,448 C430.827,449.379 438.091,456.636 440,456 C442.862,455.046 441.372,446.814 443,446 C443.908,445.546 452.165,450 454,450 C459.047,450 454.021,440.979 456,439 C459.509,435.491 467.807,444.984 471,437 C472.107,434.233 470.175,430.35 469,428 C460.618,411.236 442.993,415 427,415" fill="url(#Gradient_24)"/>
    <path d="M476,506 L476,506" fill="url(#Gradient_25)"/>
    <path d="M123,344 C121.77,349.799 110.222,391.111 114,393 C115.353,393.677 119.355,384.71 120,386 C121.342,388.683 120.23,392.009 120,395 C119.582,400.434 116.024,414.699 120,420 C122.888,423.85 127.953,412.835 130,420 C134.074,434.259 132.358,450.432 136,465 C139.434,478.737 139.724,456.023 144,466 C146.909,472.789 152.564,497.564 157,502 C162.124,507.124 162.27,495 164,495 C168.623,495 174.206,514.813 176,519 C191.873,556.037 185.189,515.284 195,530 C196.363,532.044 209.277,553.834 214,551 C215.159,550.304 217.181,543.545 219,544 C226.729,545.932 228.7,563 238,563 C242.303,563 237.963,555.654 242,557 C246.927,558.642 245.046,573.119 254,572 C256.826,571.647 254.152,564 257,564 C262.074,564 262.325,572.163 266,574 C267.491,574.745 268.667,570 270,571 C276.477,575.858 281.047,586.635 282,586 C283.754,584.831 282.114,580.943 284,580 C285.333,579.333 286.76,582.827 288,582 C293.236,578.509 287.676,557.324 292,553 C293.738,551.262 296.857,555.762 298,555 C299.628,553.915 304.494,544.506 306,543 C308.289,540.711 310.244,543.512 312,540 C314.377,535.247 315.23,525.578 320,522 C322.014,520.489 325.24,526.013 326,525 C326.927,523.764 332.703,508.578 337,506 C340.317,504.01 343.241,508.759 345,507 C348.635,503.365 351.793,494.276 355,490 C357.064,487.248 360.363,488.91 362,484 C362.366,482.902 364.027,472.316 366,471 C368.282,469.479 369.957,474.064 372,471 C375.309,466.036 371.866,453.422 377,450 C384.851,444.766 373.149,456.234 381,451 C385.687,447.875 387,391.444 387,388 C387,385.333 385.114,378.114 387,380 C388.795,381.795 387.729,385.865 390,387 C390.732,387.366 392,380.783 392,380 C392,371.293 393.675,358.374 392,350 C391.346,346.728 386.33,356.573 383,358 C376.042,360.982 367.462,357.949 363,352 C354.774,341.032 355,322.902 355,310 C355,306 359,298 355,298 C350.294,298 346.476,313.667 346,317 C341.701,347.096 336.761,376.913 333,407 C328.499,443.009 323.148,477.347 292,500 C288.499,502.546 277.405,508.322 273,507 C250.675,500.303 269.734,473.734 269,473 C268.621,472.621 249.887,474.481 247,474 C244.592,473.599 241.057,473.543 239,472 C238.845,471.884 235.968,468.516 235,469 C233.888,469.556 239.12,493.47 229,496 C197.764,503.809 194.508,454.514 184,437 C174.775,421.625 160.24,410.893 153,394 C149.917,386.807 116.599,345.401 119,343 C120.054,341.946 120.333,345.667 121,347" fill="url(#Gradient_26)"/>
    <path d="M172,227 C175.972,217.318 180.52,183.32 190,177 C194.375,174.083 191.277,193.149 196,190 C201.907,186.062 200.721,172.767 207,169 C213.584,165.05 208.732,179.756 214,178 C220.638,175.787 223.251,159.937 231,158 C235.215,156.946 232.599,169.934 234,169 C240.451,164.7 241.831,154.169 247,149 C251.812,144.188 251.733,153.183 255,154 C258.849,154.962 262.082,144.98 266,144 C270.181,142.955 267.811,157 275,157 C278.738,157 278.876,150.781 282,150 C284.756,149.311 287.788,162.341 290,164 C295.851,168.388 298.434,153.737 304,176 C306.419,185.674 323.719,199.595 328,221 C328.077,221.383 331.378,241 330,241 C329.538,241 327.327,235.545 327,235 C318.994,221.657 307.458,208.344 295,199 C263.694,175.521 224.742,191.755 196,209 C187.18,214.292 181.87,225.565 173,230" fill="url(#Gradient_27)"/>
    <path d="M335,31 L333,31" fill="url(#Gradient_28)"/>
  </g>
</svg>
