<?xml version="1.0" encoding="UTF-8"?>
<!DOCTYPE svg PUBLIC "-//W3C//DTD SVG 1.1//EN" "http://www.w3.org/Graphics/SVG/1.1/DTD/svg11.dtd">
<svg version="1.1" xmlns="http://www.w3.org/2000/svg" xmlns:xlink="http://www.w3.org/1999/xlink" x="0" y="0" width="54" height="54" viewBox="0, 0, 216, 216">
  <g id="Layer_1">
    <g>
      <path d="M83.461,168.555 C83.999,169.683 84.273,170.909 84.593,172.111 C84.712,170.933 84.611,169.747 84.659,168.565 C84.259,168.569 83.859,168.565 83.461,168.555" fill="#FFFFFF"/>
      <path d="M91.404,168.555 C91.945,169.683 92.218,170.909 92.537,172.111 C92.658,170.933 92.556,169.747 92.604,168.565 C92.203,168.569 91.803,168.565 91.404,168.555" fill="#FFFFFF"/>
      <path d="M186.731,102.333 C186.731,102.853 186.256,102.984 185.661,102.918 L185.9,101.943 C185.215,101.505 184.589,101.813 184.589,101.813 C184.65,101.489 185.066,100.708 184.589,100.318 C183.4,100.058 183.162,101.748 182.031,101.164 C182.389,100.318 183.221,99.863 183.519,98.692 C183.817,98.692 184.47,98.758 184.291,99.148 C184.947,99.213 185.483,99.082 186.019,98.823 C186.731,99.473 186.374,100.838 187.089,101.618 C186.97,101.683 186.731,102.333 186.731,102.333 M170.489,113.514 C169.239,114.359 169.419,112.084 168.346,112.149 C168.525,111.563 167.931,111.109 167.572,110.848 C168.525,111.109 168.525,110.004 169.298,110.264 C169.954,108.834 171.262,110.328 172.096,108.834 C172.512,108.963 172.512,109.419 172.512,109.679 L173.166,109.419 C173.821,111.434 171.738,112.344 170.489,113.514 M167.454,114.489 C167.454,114.489 166.979,116.049 166.323,116.569 C165.908,116.374 165.37,116.505 164.896,116.439 C164.181,115.854 164.241,114.814 163.646,114.229 C164.123,114.554 164.479,113.774 164.896,113.514 C165.134,112.539 164.421,111.303 165.134,110.719 C165.847,111.109 166.681,111.758 166.74,112.734 C166.919,113.319 168.049,113.774 167.454,114.489 M163.825,105.323 C164.896,107.143 165.729,103.698 167.038,105.323 C167.394,106.429 168.883,105.194 169.179,106.429 C169.477,107.143 168.883,107.403 168.762,108.248 C167.87,108.443 167.454,109.548 166.383,108.963 L163.527,105.909 z M160.731,103.244 C159.183,103.113 157.577,103.178 156.327,102.333 L156.744,101.748 C156.923,101.879 156.862,102.333 157.221,102.203 C158.589,102.463 157.815,100.773 159.362,101.358 C159.421,102.788 161.86,101.943 160.731,103.244 M160.968,133.796 C159.362,134.706 159.719,137.045 158.173,137.891 C157.279,137.306 157.519,136.785 157.637,135.681 C157.637,135.681 157.339,135.355 157.102,135.291 C157.102,135.291 156.923,135.355 156.744,135.291 C156.506,135.226 156.268,135.42 156.208,135.681 C156.208,135.681 155.256,135.941 154.602,135.291 C153.947,135.226 154.066,135.355 154.066,134.706 C153.175,135.16 152.817,133.991 152.579,133.341 C152.46,132.821 152.46,132.171 152.46,131.585 C151.687,130.545 151.092,131.911 150.258,132.171 C150.437,131 151.568,130.48 151.745,129.31 C152.341,128.79 151.806,127.425 152.579,126.775 C152.341,126.06 152.996,125.734 153.115,125.345 C153.234,125.475 153.294,125.67 153.473,125.605 C153.473,125.605 154.781,126.515 154.185,127.685 C154.066,128.595 153.531,129.245 153.531,129.245 C152.787,130.229 153.531,131 153.531,131 C154.127,131.065 154.185,129.505 154.721,130.285 C154.483,131 155.256,130.935 155.615,131.065 C155.792,131.65 155.496,133.21 156.685,132.625 C157.398,132.755 157.756,134.38 158.827,133.406 C159.183,132.755 159.421,132.235 160.077,131.781 C160.731,132.235 161.147,132.821 160.968,133.796 M149.723,129.57 C148.713,130.74 147.7,131.65 146.511,132.365 L146.154,132.755 L145.618,132.235 C146.213,131.911 146.154,131 145.856,130.285 C146.035,127.88 147.402,125.865 148.415,124.046 C149.306,124.825 148.89,127.23 150.794,126.385 C151.092,127.88 149.604,128.14 149.723,129.57 M144.785,125.02 C146.392,123.915 144.309,123.005 145.737,121.704 C145.5,121.119 146.094,119.884 145.737,118.91 C145.26,117.349 145.321,115.919 145.083,114.489 C145.5,113.709 146.809,113.839 146.392,112.604 C146.69,112.344 147.164,111.824 146.809,111.303 C147.343,110.654 147.879,110.654 148.533,110.394 C148.713,110.588 149.068,110.979 148.95,111.434 C148.117,111.758 147.379,112.782 147.024,113.693 C147.024,113.693 145.915,115.594 145.856,116.699 C146.332,117.739 147.045,118.324 146.927,119.624 C147.641,119.95 146.809,120.664 147.224,121.119 C147.343,121.965 147.641,123.265 146.571,123.46 C146.392,124.565 145.796,125.605 145.202,126.385 C144.904,126.125 144.904,125.475 144.785,125.02 M144.547,86.992 C145.26,86.862 144.547,86.277 145.083,85.953 C145.618,86.212 145.856,85.432 146.035,85.237 C146.748,85.822 147.938,86.277 146.927,87.317 C146.866,87.251 146.273,87.122 146.035,87.448 L145.737,88.292 C145.5,87.577 144.071,88.228 144.547,86.992 M142.821,83.026 C142.227,82.182 141.215,82.636 140.62,83.482 C140.798,83.742 140.858,84.067 140.798,84.392 L139.964,84.197 C138.775,84.132 139.906,83.026 140.381,82.897 L141.333,81.337 C141.333,81.337 142.939,79.647 143.714,80.101 L144.131,81.272 C143.773,81.467 143.596,81.661 143.356,82.052 C143.596,82.312 143.596,82.832 144.131,82.636 L144.785,83.612 C144.012,84.392 142.643,83.417 142.821,83.026 M142.643,133.21 C142.881,132.561 141.988,132.755 141.692,132.495 C141.096,132.561 141.037,133.341 140.381,133.341 C140.381,133.08 140.441,132.69 140.262,132.495 C139.845,132.755 139.609,132.951 139.311,132.495 C138.002,132.235 137.348,133.926 135.86,133.341 C135.86,133.991 135.206,134.9 134.492,135.095 C133.837,134.77 133.777,136.005 133.122,135.551 C132.35,133.015 133.896,130.545 134.194,128.076 L135.027,126.385 L135.324,126.385 C136.277,123.98 133.837,121.249 136.217,119.495 L135.979,115.074 C136.694,115.268 137.288,114.749 138.12,114.619 C137.207,117.512 138.12,119.17 138.12,119.17 L138.358,119.495 C138.002,119.819 137.704,119.95 137.823,120.535 C137.883,120.795 138.12,120.664 138.239,120.664 C138.239,120.99 138.477,121.64 138.477,121.64 C137.407,122.354 139.429,123.265 138.12,123.85 L138.239,124.89 C138.239,124.89 138.835,125.605 139.014,126.191 C139.311,127.23 138.239,129.57 139.845,129.245 C139.845,129.245 141.692,129.701 141.692,128.725 C141.692,128.725 142.464,127.165 143.179,126.905 C143.119,127.165 143.237,127.75 143.475,127.945 C143.475,127.945 144.458,129.375 143.475,130.48 C142.881,131.39 144.369,132.951 142.643,133.21 M137.704,107.339 C137.169,107.014 137.467,106.493 137.407,106.039 C137.407,105.713 137.704,105.843 137.941,105.843 L138.358,106.493 C139.609,106.103 139.073,104.414 140.381,103.958 C140.381,104.478 140.798,105.194 141.215,105.583 C141.988,104.998 142.227,103.244 143.596,103.958 C143.952,105.063 142.108,105.909 142.643,106.883 C141.81,107.468 142.167,108.574 141.037,108.638 C139.609,108.768 137.941,109.939 136.396,108.963 C136.812,108.248 137.288,107.989 137.704,107.339 M138.775,87.317 C138.835,87.122 139.073,87.251 139.192,87.187 C139.429,87.577 139.772,87.163 140.143,88.162 C140.798,89.007 139.073,89.657 139.55,90.827 C139.014,91.153 138.537,90.307 138.12,90.242 C138.358,89.202 139.371,88.616 138.775,87.317 M151.211,99.408 C151.508,99.473 151.985,99.148 151.925,99.733 L153.887,101.489 C152.639,102.398 150.794,103.244 149.247,102.918 C149.723,101.748 150.675,100.578 151.211,99.408 M150.794,93.558 C151.39,92.387 151.985,92.127 152.996,91.672 C153.947,91.933 153.413,92.842 153.531,93.427 C152.4,93.818 152.758,96.677 151.33,94.923 C151.33,94.923 150.794,94.866 150.854,94.801 C150.913,94.541 150.668,94.069 150.794,93.558 M157.221,105.258 C158.054,105.909 159.719,105.194 159.66,106.754 C159.125,107.664 157.458,107.079 156.744,107.079 C155.317,105.973 153.711,106.818 151.864,106.429 L151.627,106.039 C152.877,104.088 155.435,105.909 157.221,105.258 M154.543,94.923 L155.079,94.792 C155.317,94.987 155.673,94.923 156.031,94.923 C156.862,96.157 154.721,97.003 156.446,97.522 C156.566,97.783 156.744,97.978 156.685,98.302 C156.327,98.563 155.971,98.692 156.15,99.279 C155.852,99.342 155.256,99.018 155.375,99.603 C155.256,100.318 154.662,99.799 154.185,100.058 C153.056,99.279 152.937,97.718 152.996,96.353 C153.887,96.353 153.947,95.377 154.543,94.923 M128.72,119.495 C128.541,120.795 129.077,122.549 128.304,123.46 C127.888,123.265 127.292,123.005 127.233,122.42 C127.769,120.21 126.22,117.61 127.411,115.074 C127.888,115.464 128.244,115.204 128.839,115.399 C128.779,116.634 129.433,117.999 128.304,118.91 C128.125,119.364 128.481,119.364 128.72,119.495 M124.554,129.245 C123.96,128.53 122.889,128.595 122.056,128.27 C122.531,127.36 121.223,127.425 121.877,126.385 C122.771,125.734 123.544,124.63 123.663,123.265 C123.96,122.289 123.067,120.795 124.019,120.664 C124.912,122.615 123.544,124.954 124.316,126.645 C125.031,126.06 124.435,124.63 125.627,124.305 C126.162,125.475 125.329,126.775 126.697,127.556 C126.816,129.31 125.329,128.53 124.554,129.245 M103.85,152.712 C104.267,151.282 102.778,150.696 102.66,149.462 C102.481,147.057 101.648,144.066 102.6,141.596 L103.552,140.556 C105.04,139.451 106.586,137.761 107.418,136.136 C108.608,134.835 110.454,136.656 112,135.876 C114.263,134.576 116.106,132.495 118.01,130.87 L118.844,130.87 C120.152,132.235 121.341,134.316 123.127,134.835 C124.675,137.696 123.008,141.076 122.473,143.612 C121.699,143.936 121.996,145.106 121.401,145.691 C121.283,147.447 120.033,148.291 120.033,150.046 C119.318,150.502 119.795,151.282 119.497,152.062 C118.546,153.817 117.891,155.637 117.475,157.652 C116.879,158.107 116.225,159.083 116.523,159.992 C116.046,161.358 116.167,162.918 115.51,164.218 C114.618,164.023 113.488,163.307 112.833,162.593 C108.55,160.642 106.527,156.872 103.85,152.712 M101.052,138.671 L99.685,138.476 C101.052,136.656 102.302,134.51 103.016,132.365 C103.969,130.676 104.563,128.595 104.921,126.775 C105.396,126.191 106.05,125.085 106.765,125.15 C107.777,123.589 109.204,122.68 110.394,121.509 C111.108,121.509 111.823,121.444 112.298,121.249 C112.12,121.704 112.952,122.225 112.952,122.225 C114.975,123.72 115.154,126.645 117.237,128.14 C117.296,128.725 116.82,129.05 116.523,129.116 C114.975,130.61 113.488,132.495 111.346,133.21 C109.265,134.38 108.55,131.521 106.348,132.495 C104.742,133.406 104.742,135.355 103.195,136.46 C102.897,137.501 101.827,137.761 101.052,138.671 M96.233,136.591 C95.4,136.46 95.163,137.306 94.983,138.021 L94.983,138.085 C93.14,137.306 90.7,138.801 88.856,137.306 C86.891,137.306 86,135.941 84.929,134.576 C84.868,133.406 83.5,132.951 83.381,131.65 L83.917,127.23 L84.571,128.14 C84.512,128.4 84.689,128.66 84.689,128.66 C84.452,128.79 84.393,129.116 84.274,129.31 C84.689,129.505 85.225,128.855 85.642,128.725 C86.654,128.725 86.593,130.48 87.785,130.87 C87.785,130.87 88.321,132.821 87.606,133.21 C87.785,133.73 87.725,134.77 88.558,134.706 C89.272,126.206 87.748,126.165 88.974,123.98 C89.272,122.42 89.331,121.119 89.272,119.624 C89.935,119.044 90.691,119.576 91.236,119.755 C91.206,120.112 91.838,118.934 93.021,122.809 C93.854,122.029 94.329,124.046 95.163,123.72 C95.163,123.72 96.769,123.98 97.959,124.434 C97.185,125.085 98.256,126.32 97.423,126.775 C98.019,128.076 98.077,129.57 98.197,131.065 C98.382,131.853 98.108,133.478 98.94,132.178 C99.06,131.853 99.148,131.195 98.91,131.065 C99.327,130.09 99.268,129.116 99.685,128.14 L99.685,127.36 C99.208,126.97 99.863,126.06 99.804,125.345 C100.516,126.255 101.291,126.709 101.529,127.945 C101.052,131.521 98.435,134.12 96.233,136.591 M82.548,120.924 C82.667,120.079 83.144,119.299 82.965,118.455 L83.202,118.455 C83.5,118.13 82.846,117.934 83.323,117.61 L83.619,118.324 C84.452,118.13 85.762,118.584 86.298,119.299 L85.346,120.34 C85.346,120.34 83.5,121.509 82.548,120.924 M85.523,109.224 C86.712,109.419 85.881,107.468 87.129,107.664 C88.142,110.264 85.523,110.524 85.642,112.604 L84.571,112.929 L84.689,113.059 C84.214,113.904 83.202,113.839 82.31,114.034 C82.37,111.629 85.225,111.563 85.523,109.224 M78.919,131.065 C75.944,130.805 72.671,131.065 71.064,128.14 C70.351,128.01 70.648,127.165 70.887,126.645 C71.244,126.385 71.541,126.255 71.6,125.8 C71.541,125.605 70.231,124.63 70.766,123.85 C70.708,124.046 71.064,122.875 70.351,122.809 C70.351,122.809 70.529,122.549 69.935,122.225 C69.994,121.444 70.173,120.73 71.006,120.535 C71.6,120.275 71.541,121.055 71.541,121.249 C72.196,121.379 72.968,121.575 73.029,122.549 C73.147,123.069 72.671,123.72 72.375,123.72 C71.898,125.15 74.636,124.174 73.862,125.931 C74.815,126.515 75.051,124.63 76.123,125.02 C77.194,124.11 76.062,122.875 76.54,121.509 C76.777,121.509 77.134,121.379 77.313,121.64 C77.61,121.055 77.61,120.275 78.264,120.21 L78.8,118.194 C78.621,119.364 79.217,120.275 78.681,121.379 C79.275,122.354 79.989,121.444 80.287,120.924 C80.942,119.17 79.989,117.87 80.287,116.114 C80.704,116.049 81.002,116.309 81.179,116.699 C81.179,118.259 80.585,120.144 81.24,121.509 C81.775,121.704 82.012,123.135 81.894,123.46 L81.358,123.98 C82.012,124.76 80.466,125.605 81.477,126.385 C81.656,127.62 80.942,129.31 81.775,130.026 L82.012,130.74 C81.061,130.35 79.931,131 78.919,131.065 M66.483,138.605 L65.115,139.386 C64.579,138.671 65.234,137.696 64.996,136.916 C64.937,135.746 65.115,134.38 64.46,133.406 C64.877,132.3 64.162,131.521 64.342,130.48 L64.639,130.48 C65.323,130.676 65.063,130.878 65.115,131.195 C65.115,131.195 65.473,132.041 65.829,132.365 C65.413,133.73 66.662,133.991 66.364,135.291 C66.483,135.486 66.721,135.42 66.9,135.42 C67.256,134.835 66.602,133.796 67.436,133.406 C67.436,131.911 67.436,130.415 67.852,129.116 C68.804,130.026 69.935,130.87 69.935,132.495 C67.436,133.73 68.864,137.176 66.483,138.605 M63.687,116.699 C63.508,116.114 61.545,114.749 63.152,114.619 L64.044,113.449 L64.758,113.449 C65.294,113.189 64.915,113.123 65.532,113.514 C65.71,113.839 66.008,113.774 66.185,114.1 C66.245,114.554 65.829,114.684 65.65,114.944 C64.758,114.684 65.71,115.854 64.758,115.788 C64.46,115.985 63.806,116.245 63.687,116.699 M62.498,119.495 C61.664,119.299 61.485,120.21 61.247,120.795 C61.664,120.859 61.306,121.509 61.129,121.64 C60.058,121.509 60.475,120.015 60.713,119.364 C61.664,118.844 61.129,117.413 60.892,116.699 C61.129,116.699 61.306,116.699 61.427,116.439 C61.783,117.479 64.044,118.259 62.498,119.495 M62.081,138.605 C62.319,138.736 61.962,138.93 61.902,139.061 C60.95,138.996 61.485,137.501 60.594,137.306 C61.187,136.656 60.832,135.681 60.892,134.835 L61.456,135.387 L61.962,134.835 C63.271,136.2 61.247,136.72 62.081,138.605 M60.058,132.755 C59.581,133.341 58.273,133.926 58.748,134.835 C58.392,135.42 57.856,135.746 57.142,135.42 C57.26,134.51 56.309,134.835 55.894,134.576 L56.19,133.535 L56.309,133.666 C56.725,133.47 56.429,133.08 56.547,132.755 C56.19,132.105 55.833,132.951 55.477,132.821 L55.119,133.341 L54.464,133.535 L53.929,133.341 C53.869,133.535 53.75,133.86 53.513,133.991 C52.739,133.926 53.454,133.406 52.977,132.951 C52.679,132.365 53.75,132.041 53.096,131.65 L53.215,131 C53.632,131.13 54.525,131.65 54.702,131 C54.881,130.48 55,130.415 55.536,130.285 L56.013,130.285 C55.833,130.61 56.013,131.325 56.429,131.325 C57.142,131.521 56.785,130.676 57.142,130.415 C57.796,129.245 58.809,128.465 59.819,127.556 C60.594,126.06 57.917,126.06 59.404,124.89 C60.236,124.5 60.415,125.54 60.713,125.931 C60.356,126.775 61.723,126.645 61.011,127.23 C61.843,128.205 60.296,129.116 61.129,129.896 C61.247,131.195 60.534,132.105 60.475,133.341 z M55.773,140.101 C55.06,140.101 54.227,140.49 53.632,141.01 L51.371,141.141 C51.431,139.841 49.823,139.037 50.894,138.127 L50.954,137.436 C52.025,137.045 53.215,136.2 54.406,136.72 C55.238,136.851 55.894,136.526 56.547,136.136 C57.083,136.526 57.142,137.176 57.677,137.761 C58.035,139.386 56.429,139.321 55.773,140.101 M74.219,109.419 L74.398,109.094 C75.765,109.419 74.338,111.239 74.933,112.149 C73.862,112.409 73.742,110.848 72.671,110.848 L72.255,110.264 C72.85,110.068 73.327,109.094 74.219,109.419 M76.36,114.944 L76.421,114.229 C76.777,113.904 77.373,114.359 77.848,114.359 L78.383,114.814 C78.443,114.619 78.919,114.814 78.919,114.814 C78.027,115.268 77.313,116.114 76.421,116.569 C76.658,115.594 74.933,115.724 76.36,114.944 M76.36,109.679 C76.598,109.679 77.134,110.199 77.431,109.679 C77.431,109.679 79.098,109.874 79.336,109.094 L79.87,109.419 C79.752,109.808 79.454,110.328 79.87,110.588 C80.348,111.109 80.406,110.199 80.823,110.264 L81.715,109.548 C81.715,109.548 83.083,107.599 84.036,108.054 L84.274,107.794 C84.987,108.248 84.274,109.028 84.036,109.548 C82.787,110.785 81.477,112.929 79.87,113.643 C79.336,113.383 79.098,112.669 78.383,112.864 C78.443,112.019 77.61,112.604 77.431,112.149 C77.075,111.629 76.123,111.173 76.54,110.394 C76.3,110.264 76.36,109.939 76.36,109.679 M82.012,101.358 C82.131,102.463 84.154,101.553 83.202,102.984 C83.56,103.764 84.096,102.528 84.393,103.244 C85.106,103.634 85.702,102.918 86.298,102.658 C87.07,103.698 86.059,104.998 85.762,106.169 C85.523,105.323 84.689,105.973 84.393,105.453 L83.619,105.713 C83.738,104.869 82.727,104.804 83.083,103.828 C82.31,103.568 82.131,104.153 81.477,104.543 C81.477,103.698 82.37,102.984 81.596,102.398 L80.823,103.373 C80.348,103.308 80.466,102.593 80.287,102.203 C81.477,102.658 81.002,100.903 82.012,101.358 M86.417,95.768 C87.189,94.532 87.844,96.157 88.736,95.312 C88.2,97.068 90.104,96.613 90.165,97.848 C90.521,98.108 89.748,99.279 90.165,100.058 C90.165,100.058 88.617,99.668 88.677,100.318 C88.44,99.799 87.725,99.279 88.023,98.433 C87.01,99.279 86.712,94.923 85.881,97.978 C85.464,98.302 84.571,98.498 84.154,97.653 C84.571,96.807 85.523,95.833 86.417,95.768 M88.558,102.398 C88.914,102.593 89.093,103.308 89.272,103.698 C89.152,103.828 88.914,103.764 88.736,103.958 C88.795,104.153 88.677,104.543 88.974,104.543 L89.272,104.543 C88.677,105.519 88.974,107.339 87.368,107.014 C86.772,105.389 87.427,103.828 88.44,102.918 C88.44,102.723 88.379,102.528 88.558,102.398 M90.581,111.563 C91.414,111.824 90.581,112.604 90.998,113.189 L91.652,113.189 C92.008,111.889 91.414,110.459 91.771,109.354 C91.95,108.443 90.879,107.729 91.889,107.079 C91.652,107.403 91.771,107.794 91.771,108.183 L92.306,108.378 L92.604,112.864 C91.889,113.123 92.604,114.359 92.604,114.359 L92.842,115.854 C93.198,116.049 93.793,116.049 93.793,115.528 C93.198,114.944 94.329,114.489 93.495,114.034 C94.031,113.514 93.793,112.409 93.675,111.889 C94.091,109.939 93.319,107.923 93.912,106.039 C94.567,106.429 94.983,105.323 95.519,106.039 C95.638,107.143 94.806,108.119 95.281,108.963 C94.865,109.094 94.508,109.614 94.627,110.264 C95.579,110.264 95.4,111.173 96.054,111.694 C95.995,112.344 95.995,113.123 96.769,112.929 L97.125,112.929 C97.006,112.214 96.887,110.913 96.769,109.939 C97.304,109.419 97.602,108.314 97.304,107.468 L97.304,107.079 C97.84,107.143 98.256,107.014 98.493,107.468 C98.673,107.274 98.612,107.014 98.612,106.754 C100.221,107.468 102.123,108.378 102.481,110.588 C101.946,111.109 101.291,111.434 100.993,112.149 C99.923,112.019 101.291,110.913 100.221,110.588 C99.148,110.848 100.1,111.889 99.387,112.474 C99.327,112.864 99.863,113.123 99.387,113.319 C98.791,112.864 98.673,113.774 98.197,113.904 L96.769,114.1 C94.983,115.464 96.471,118.13 95.817,119.884 C96.114,120.079 96.471,119.95 96.769,119.95 C96.829,119.755 96.948,119.69 96.887,119.364 C97.483,119.104 97.542,119.95 97.84,120.079 C97.721,120.144 98.316,120.795 98.316,120.795 C98.612,121.184 98.345,121.046 98.316,121.704 C97.364,123.135 95.758,121.184 94.567,120.795 C93.438,119.884 93.079,118.779 92.485,117.413 C90.283,116.634 88.379,118.065 86.536,116.569 L85.762,115.985 C85.583,116.114 85.702,116.309 85.642,116.439 C85.225,115.659 83.679,116.114 83.323,115.204 C84.512,114.1 86,116.114 86.593,114.229 L87.129,113.514 C88.617,113.839 87.368,115.854 88.677,116.245 C89.272,114.554 88.44,113.254 88.558,111.694 L88.856,111.694 C88.974,110.913 88.142,109.419 89.212,108.963 C89.272,110.134 89.391,111.369 89.51,112.344 C89.808,112.734 89.867,113.189 89.808,113.643 L89.748,113.643 C89.687,114.1 89.808,114.684 90.165,115.074 L90.581,115.074 C90.402,114.294 90.998,113.319 90.344,112.864 C90.581,112.474 90.344,111.889 90.581,111.563 M92.842,102.073 C93.14,100.903 93.912,101.879 94.329,100.903 C94.448,101.033 94.627,101.033 94.746,101.227 L95.102,101.033 C94.865,102.073 96.71,102.658 96.352,103.698 C95.758,104.024 94.567,103.504 94.21,104.153 C93.854,103.828 93.377,104.543 92.961,104.673 C92.187,104.283 92.008,105.323 91.354,104.998 C91.236,103.958 91.236,102.073 92.842,102.073 M97.125,100.448 C97.84,100.058 97.721,99.342 98.197,98.823 C98.673,98.888 99.089,99.279 99.685,99.148 L100.1,98.692 C100.279,98.823 100.279,99.408 99.982,99.473 C99.565,99.733 99.804,100.123 99.923,100.578 L100.1,100.773 L101.41,99.733 C101.827,100.058 102.897,100.903 102.481,101.813 C101.946,102.528 101.827,103.438 100.993,103.828 C99.506,103.568 98.435,102.658 97.423,101.358 C97.483,100.903 97.006,100.903 97.125,100.448 M103.671,101.358 C104.385,100.838 104.206,99.279 105.277,98.888 L105.812,99.279 C104.563,100.643 105.754,101.164 105.991,102.528 C105.219,103.438 105.514,105.453 104.087,105.453 C104.563,106.233 103.671,106.169 103.433,106.754 C103.314,105.583 101.588,105.909 102.363,104.543 C102.718,103.568 103.552,102.593 103.671,101.358 M106.408,105.258 C107.063,104.998 106.467,104.088 107.181,103.958 C107.361,104.218 108.252,104.543 108.252,104.543 L107.716,105.129 C107.835,106.039 109.442,105.843 109.74,105.843 C110.037,106.623 109.383,107.014 109.085,107.664 C109.085,107.664 109.025,107.534 108.906,107.599 C108.669,107.858 108.906,108.183 109.025,108.378 C108.312,108.899 108.312,110.068 107.597,110.264 L107.418,110.848 C106.467,110.785 105.991,110.199 105.337,109.548 C105.456,108.834 104.683,108.638 105.277,107.923 C105.812,107.468 105.873,106.169 106.408,105.258 M103.85,119.884 C103.195,119.039 104.504,116.439 104.504,116.439 C106.229,116.334 105.396,113.904 106.944,115.074 C107.716,116.374 109.383,117.025 109.977,118.584 L110.512,118.91 C109.977,119.234 109.146,119.624 108.906,120.469 L108.55,120.469 C108.55,120.34 106.348,122.485 105.337,123.589 C104.861,123.525 104.444,124.11 103.969,124.305 C103.433,122.875 104.087,121.379 103.85,119.884 M110.512,111.563 C111.048,111.758 111.584,111.239 112.12,111.109 C112.327,110.238 111.704,110.264 111.704,110.264 L112,109.419 C111.823,109.224 111.644,109.419 111.584,109.094 C111.108,109.548 110.871,110.004 110.156,110.134 C109.858,108.834 110.752,108.314 110.691,107.079 C110.691,107.079 112.298,107.143 112.416,108.183 L112.775,110.93 C113.071,110.994 113.727,110.979 113.727,110.979 C113.965,111.889 114.142,112.929 114.023,113.774 C113.369,114.684 114.321,115.204 114.439,116.245 C112.893,116.634 112.06,116.049 110.929,114.684 C111.287,113.58 108.848,112.214 110.512,111.563 M112.416,82.312 C112.952,82.117 113.429,81.792 113.071,81.141 C113.071,80.427 113.786,80.101 114.142,79.582 C115.154,80.881 118.01,81.661 117.475,84.392 C117.116,84.587 116.463,84.457 116.404,84.846 C116.046,83.612 113.429,83.937 112.416,83.677 C111.882,83.352 112.239,82.702 112.416,82.312 M116.581,108.378 L117.594,108.054 C117.891,108.248 119.318,108.183 119.914,108.378 C118.784,109.354 118.725,111.239 117.594,111.303 C117.533,110.913 117.116,110.459 116.82,110.524 C117.177,110.328 117.654,109.679 117.594,109.354 C116.463,108.963 116.167,109.939 115.452,110.134 C115.69,108.899 114.142,109.288 114.263,108.054 C115.095,108.054 115.273,106.493 116.046,106.493 L116.939,105.323 L116.701,105.129 C117.058,104.543 117.712,104.024 118.308,103.958 L118.308,104.673 C118.129,104.738 116.581,106.493 116.285,107.599 C116.225,107.923 116.344,108.314 116.581,108.378 M119.616,79.516 L123.663,80.427 L125.627,82.636 C125.686,84.327 125.804,85.757 125.922,87.317 C125.686,87.772 125.091,88.228 124.554,87.708 C123.723,87.772 123.544,86.602 122.829,86.602 C123.544,85.953 122.473,85.042 123.127,84.197 C122.412,83.092 123.841,81.597 122.175,81.272 C120.867,80.947 120.569,83.677 119.379,81.922 L118.963,81.922 C119.795,81.141 118.665,80.232 119.616,79.516 M121.52,74.837 L121.877,74.251 C122.412,74.316 122.771,74.901 123.484,74.706 C123.96,75.876 123.663,77.631 125.091,78.216 C124.733,78.932 123.604,78.867 123.008,78.932 C122.294,78.022 120.867,78.282 119.914,77.762 C120.212,76.526 120.212,75.226 121.52,74.837 M119.2,85.953 L121.104,83.937 C121.579,85.432 120.033,86.992 120.688,88.747 L119.616,89.202 C120.033,88.162 118.546,87.382 119.379,86.277 z M119.616,105.583 C119.141,105.519 119.437,104.218 119.735,104.738 L120.806,103.828 C120.806,103.828 121.223,104.738 121.341,104.738 C120.867,105.583 121.639,105.909 121.937,106.493 C121.165,107.274 120.45,107.079 119.497,106.754 C119.379,106.558 119.973,105.973 119.616,105.583 M116.82,114.944 C117.773,114.359 117.654,112.539 118.844,112.604 C119.318,113.254 118.963,113.643 118.546,114.1 C119.02,114.294 119.735,114.359 120.152,113.904 C120.033,115.074 120.033,117.154 118.963,118.324 C118.248,118.455 117.356,119.559 116.82,118.779 C117.475,117.154 114.499,115.528 116.82,114.944 M121.877,121.704 C122.175,122.095 122.531,122.68 122.412,123.394 C122.175,123.589 121.996,123.85 122.056,124.174 L120.806,125.605 L120.331,125.605 C119.26,124.37 117.654,121.965 117.891,121.64 C117.891,121.184 117.654,120.795 118.129,120.535 C119.02,120.275 119.735,119.039 120.331,118.324 C120.39,117.61 120.629,116.894 120.986,116.245 C120.569,114.424 121.639,112.929 122.473,111.694 C122.71,112.279 122.948,112.864 123.484,113.319 C122.771,113.839 123.008,114.489 123.127,115.204 C123.544,115.788 124.733,114.944 124.852,115.854 C124.912,115.788 124.733,117.284 123.663,117.413 C123.544,119.039 120.867,119.495 121.877,121.704 M126.162,105.583 C126.281,105.063 126.281,105.583 126.579,105.583 C126.816,106.493 126.22,106.754 125.686,107.208 C124.852,107.274 123.246,106.429 124.198,105.258 C124.377,105.779 125.686,105.713 126.162,105.583 M92.959,172.525 C91.919,172.506 90.881,172.522 89.839,172.516 C89.858,171.06 89.846,169.6 89.844,168.142 C90.886,168.159 91.929,168.117 92.969,168.164 C92.953,169.617 92.971,171.072 92.959,172.525 M85.013,172.525 C83.976,172.506 82.935,172.522 81.896,172.516 C81.914,171.06 81.903,169.6 81.901,168.142 C82.942,168.159 83.984,168.117 85.025,168.164 C85.01,169.617 85.028,171.072 85.013,172.525 M61.649,160.01 C61.649,158.831 62.462,157.875 63.465,157.875 C64.469,157.875 65.283,158.831 65.283,160.01 z M60.695,166.927 C60.368,166.936 60.042,166.934 59.716,166.931 C59.459,168.79 59.175,170.601 58.936,172.493 C58.85,170.654 58.887,168.783 58.803,166.944 C58.651,166.946 58.5,166.941 58.348,166.95 C58.42,169.796 58.471,173.802 58.521,176.653 C59.257,176.751 59.955,176.768 60.685,176.854 L60.685,176.863 C59.478,176.816 58.27,176.852 57.061,176.842 C57.083,173.303 57.071,169.758 57.068,166.215 C58.278,166.253 59.488,166.154 60.697,166.267 C60.695,166.486 60.697,166.707 60.695,166.927 M201.19,125.02 C201.31,124.695 200.893,123.329 200.595,123.265 C200.595,123.265 199.308,122.631 199.287,120.795 C198.929,120.144 199.287,119.559 199.702,119.039 C198.631,118.974 198.335,117.025 197.918,117.154 C197.8,117.025 197.621,116.894 197.68,116.699 C197.502,116.699 196.312,116.505 196.727,115.854 L196.073,115.854 C196.073,115.854 196.371,116.634 195.954,116.699 C195.776,116.245 195.121,116.699 195.121,115.854 C195.24,115.788 195.3,115.594 195.418,115.659 C195.418,115.399 195.537,115.009 195.3,114.814 C195.121,114.749 195.002,114.944 194.883,115.074 C193.574,115.268 195.107,114.416 194.809,113.896 C195.107,113.368 194.467,112.864 194.704,112.929 C194.408,112.604 194.11,112.539 194.05,112.019 C195.121,111.563 193.752,110.654 194.229,109.939 L193.277,110.719 L192.861,110.134 C193.158,109.679 192.742,108.899 193.158,108.509 C193.215,108.416 193.281,108.353 193.351,108.314 C193.483,108.24 193.63,108.251 193.745,108.314 C193.826,108.357 193.893,108.427 193.931,108.509 C193.931,108.509 193.967,108.424 194.012,108.314 C194.1,108.102 194.229,107.794 194.229,107.794 L193.633,107.599 C193.514,107.014 193.277,105.779 193.812,105.713 C194.169,104.478 192.742,104.478 193.395,103.244 C194.585,102.658 193.456,101.424 193.395,101.033 L192.979,100.448 C192.504,100.903 191.85,101.164 191.67,101.618 L191.67,101.489 C191.314,102.073 190.242,101.293 190.481,102.398 C190.362,103.113 190.1,103.853 189.565,103.982 C189.565,103.982 188.933,104.543 188.695,103.958 C188.16,102.268 190.123,101.099 191.254,99.993 C191.193,99.603 191.433,98.888 192.027,99.279 C192.385,98.758 191.61,97.913 192.563,97.848 L192.087,97.394 C192.027,96.677 191.789,96.093 192.325,95.508 C191.968,95.377 192.087,94.728 191.552,94.923 C190.956,95.377 191.016,95.768 190.6,96.548 C190.183,96.548 189.648,95.963 189.41,96.353 C189.171,96.223 188.517,96.483 188.279,95.898 L187.923,96.223 C187.267,95.377 186.851,95.703 185.9,95.508 C186.374,94.078 185.125,94.272 184.708,93.167 C185.006,91.867 184.589,90.373 183.638,89.657 C183.877,89.202 184.768,89.722 184.589,88.877 C183.757,88.877 182.685,88.747 181.912,88.942 C181.972,89.462 181.495,89.787 181.198,90.047 C180.246,89.527 180.781,88.616 180.306,88.032 C180.902,87.902 181.021,87.187 181.733,87.448 C181.972,86.602 183.46,87.187 182.925,85.822 C182.627,85.432 182.329,85.042 181.912,84.977 C181.377,84.977 181.317,85.432 181.079,85.822 C179.472,85.237 179.472,87.838 177.866,87.577 C177.331,87.448 177.568,86.471 177.331,85.953 C177.152,85.042 176.023,85.691 175.427,85.366 C175.189,84.717 174.475,83.806 174.891,83.221 L173.821,83.221 C173.76,83.482 173.881,83.742 173.702,83.937 C172.868,83.872 171.798,83.677 171.56,83.026 C171.321,83.287 170.429,83.937 169.954,83.026 C169.954,81.597 168.346,81.401 167.81,80.297 C168.049,78.736 169.419,80.362 169.954,78.932 L170.25,79.256 C170.906,79.127 171.738,79.582 172.215,78.932 L172.393,80.101 C173.285,80.621 173.464,79.647 174,79.256 C173.76,78.607 174.891,78.607 174.654,77.956 C175.546,77.502 174.654,76.526 175.427,75.876 L175.606,76.071 C176.886,78.956 175.992,75.99 179.175,78.346 C179.117,79.582 179.533,80.557 180.008,81.467 C180.781,81.011 182.21,80.621 182.804,79.972 L182.448,79.256 C182.746,78.802 183.102,78.216 183.877,78.411 C184.054,77.956 184.768,78.087 184.531,77.241 C184.054,77.502 184.173,76.916 183.877,76.786 C183.221,76.657 182.925,77.437 182.389,77.502 C182.508,78.022 181.674,78.022 181.614,78.087 C181.198,78.282 180.425,78.346 180.425,77.631 C181.317,76.053 180.905,74.308 181.052,72.659 C181.11,71.999 181.258,71.354 181.614,70.741 C181.733,70.741 181.021,69.31 181.317,68.271 C181.021,67.816 180.723,67.165 180.008,67.425 C178.759,66.386 177.391,66.06 175.725,65.931 C175.248,66.45 174.833,65.931 174.535,65.541 L172.272,65.215 C171.083,63.201 170.368,66.581 169.002,66.126 C168.704,66.971 167.633,66.646 167.275,67.685 C166.383,68.076 166.264,66.19 165.313,66.646 C165.55,67.101 164.956,67.23 164.777,67.296 L165.313,67.881 C165.55,68.466 165.015,68.401 164.896,68.725 C164.004,68.141 163.883,69.766 162.991,69.181 C162.873,67.75 164.598,66.776 163.527,65.215 C162.517,64.89 163.289,66.321 162.456,66.255 C161.802,66.126 161.564,66.45 161.029,66.646 C161.029,66.386 160.789,65.8 160.731,65.671 C160.731,64.956 161.147,64.565 161.564,64.305 C162.277,63.201 161.147,62.095 162.1,61.12 C161.623,61.055 161.266,60.86 161.147,60.275 C161.921,59.625 163.11,58.715 164.181,59.235 C164.241,60.081 163.229,59.495 163.11,60.081 C163.348,60.6 162.575,61.25 162.991,61.965 C163.943,62.29 164.539,61.25 165.015,60.666 C166.204,60.535 166.145,62.94 167.394,61.965 C168.406,61.445 167.751,63.005 168.644,62.745 C169.002,62.031 169.656,61.445 170.131,60.99 C170.073,60.666 170.073,59.95 169.596,60.081 C169.239,59.755 169.002,59.235 169.002,59.235 L168.525,58.52 C168.406,58.195 168.585,57.545 169.002,57.48 L169.537,58.065 C169.775,58.065 170.013,58.13 170.131,57.87 C170.31,58.065 170.489,58.13 170.666,58.065 C170.548,56.44 172.987,58.39 172.512,56.44 C172.154,56.18 171.262,56.115 170.906,56.18 C170.1,55.76 169.255,55.204 168.38,54.831 C167.767,54.569 167.668,54.431 167.03,54.457 C166.956,54.726 166.919,54.873 166.919,55.14 C166.74,55.465 166.383,55.465 166.085,55.595 C166.085,55.34 166.054,55.079 165.989,54.831 C165.853,54.319 165.574,53.864 165.134,53.645 L164.717,54.1 L164.181,53.255 C164.181,54.165 163.11,53.515 162.873,53.84 C163.468,53.189 162.158,52.409 162.635,51.76 C162.635,50.654 161.385,51.499 161.029,51.044 C162.1,50.2 160.789,49.094 161.385,47.989 C162.04,48.119 162.754,48.704 162.991,49.094 C163.587,49.289 163.943,48.769 164.36,48.574 C165.194,47.859 166.323,47.339 166.323,45.909 C166.027,45.194 165.491,45.714 164.896,45.584 C164.421,44.934 163.229,45.324 162.754,44.739 L162.1,44.739 C161.325,44.479 161.802,43.829 161.683,43.309 C161.385,43.374 161.029,43.309 160.968,42.984 C160.552,43.309 160.017,42.789 159.66,42.138 C160.136,41.814 160.077,40.904 160.494,40.514 L160.196,40.319 C159.779,38.174 157.279,39.474 156.15,38.888 L155.615,39.474 C154.662,39.214 155.198,40.579 154.721,40.904 C155.673,42.074 154.008,42.464 153.473,43.114 C153.413,43.894 152.527,44.528 153.121,45.438 L152.46,45.324 C151.687,43.764 153.947,42.789 152.817,41.489 C152.4,41.553 151.925,41.228 151.627,41.684 C152.223,40.709 150.377,39.734 151.627,39.149 C150.735,38.303 150.377,40.384 149.902,38.759 C148.95,38.759 147.938,37.719 147.462,38.759 C145.558,40.514 145.737,37.003 144.25,37.848 C143.952,37.589 143.892,37.329 144.012,37.003 C143.475,37.134 142.524,36.613 142.285,37.458 C140.798,37.719 141.573,39.929 140.262,40.644 C141.275,40.644 141.929,39.214 142.524,38.759 C142.345,39.929 143.714,39.083 143.356,40.319 C143.298,40.968 142.643,40.644 142.285,40.904 C141.692,41.228 141.275,41.814 141.452,42.724 C141.929,44.024 142.524,42.334 143.298,42.854 C143.833,43.764 142.821,44.089 142.404,44.739 C141.513,45.129 140.858,44.154 140.085,43.829 C138.835,45.064 138.239,43.114 137.407,42.529 C137.11,43.309 136.277,43.569 135.443,43.569 C135.027,44.544 135.741,45.324 136.217,45.909 C135.502,46.429 134.848,47.599 134.729,47.339 L134.194,48.119 C133.539,47.534 132.648,47.924 131.933,48.119 C131.039,48.054 130.327,47.339 130.327,47.339 C129.552,46.754 130.802,46.234 130.862,45.584 C130.683,44.739 130.802,44.154 129.969,44.284 C129.196,44.544 128.601,45.064 128.185,45.909 C127.292,45.649 126.935,45.909 127.292,45.649 C127.292,44.869 126.518,44.804 126.756,44.024 L126.339,44.024 C126.162,44.089 125.865,44.414 125.804,44.609 C123.663,45.194 124.139,42.269 123.127,41.489 L121.223,43.309 C119.468,44.666 120.569,45.064 120.569,45.064 L121.104,45.454 C121.46,46.039 122.412,45.714 122.948,46.169 C122.829,46.624 122.592,47.08 123.127,47.404 C124.793,47.924 122.71,49.029 123.365,49.744 C124.733,49.354 124.377,51.564 124.198,51.499 C123.841,52.214 124.377,52.149 124.733,52.474 C124.852,53.189 123.484,53.255 123.484,53.255 L123.008,53.774 L122.829,53.515 C122.71,53.06 122.383,52.369 122.74,52.304 C122.027,52.434 121.52,52.149 120.806,52.799 C120.748,52.28 119.735,52.409 120.271,51.76 C119.854,51.499 119.081,51.435 118.725,51.629 C118.427,51.499 118.604,51.109 118.844,50.914 C118.902,50.525 119.735,50.719 119.26,50.135 L119.497,49.874 C120.092,49.744 120.629,48.907 120.062,48.525 C119.616,48.972 118.604,48.965 118.665,48.704 C117.831,49.159 117.356,49.744 116.523,50.004 C116.046,50.525 115.75,52.345 115.75,52.345 C115.035,53.255 115.629,53.71 116.167,54.425 C116.046,55.4 115.51,54.1 115.214,54.815 C115.035,54.23 114.737,54.359 114.381,53.969 C114.202,52.67 113.429,53.45 112.833,53.515 C112.775,52.994 112.714,52.67 112.12,52.799 C112,53.125 111.823,53.774 112.298,53.969 C112.057,54.602 112.205,54.5 111.845,54.823 C111.761,54.898 111.343,55.134 111.287,55.27 C112.358,56.765 109.561,55.335 110.275,55.595 C110.435,55.354 110.523,55.097 110.569,54.831 C110.664,54.309 110.612,53.749 110.691,53.189 C109.502,51.694 110.156,54.425 108.788,53.774 C108.967,52.994 108.431,52.604 108.49,51.76 C107.777,51.369 109.265,50.395 108.906,49.744 C107.895,50.589 107.002,50.85 106.765,52.345 C106.467,51.564 105.693,51.824 105.159,52.214 C104.802,51.499 104.267,52.604 103.969,52.02 C104.267,50.2 102.302,50.069 103.016,48.119 C102.123,47.859 101.946,48.574 101.291,48.834 C100.756,48.444 101.052,47.665 100.635,47.209 C99.744,47.274 100.756,48.834 99.685,48.574 C99.268,48.314 99.565,47.729 99.446,47.339 C98.493,46.754 98.316,48.314 97.661,48.379 C97.542,48.249 96.352,48.965 96.352,48.965 C94.686,49.354 96.412,47.859 95.935,47.339 C94.865,47.209 94.21,48.314 93.259,48.574 C92.902,49.094 93.021,49.615 93.14,50.004 C93.438,50.395 93.675,49.81 93.912,49.679 C94.508,49.81 94.031,50.395 94.329,50.719 C94.091,52.409 92.068,53.58 90.7,54.555 C90.648,54.667 90.626,54.757 90.622,54.831 C90.612,55.183 91.067,55.188 91.117,55.725 C90.879,55.855 90.7,56.375 90.344,56.31 C90.165,56.765 89.569,57.545 90.283,57.87 C90.521,57.155 91.296,57.285 91.771,56.765 L92.358,57.586 C91.941,57.911 91.771,58.78 91.771,58.78 C91.236,59.3 90.344,59.885 90.283,60.666 C90.819,60.795 90.998,60.925 91.354,60.405 C92.902,59.625 92.187,61.77 93.495,61.706 C93.854,62.616 92.783,62.616 92.723,63.201 C92.306,63.005 92.663,62.356 92.425,62.031 C91.296,62.031 90.581,63.46 89.927,64.305 L89.629,63.915 C89.808,63.786 88.856,62.811 88.142,63.46 C87.606,63.07 88.2,62.616 88.023,62.031 C87.725,59.95 87.189,63.005 86,62.16 C85.346,61.64 85.821,61.12 86,60.535 C88.795,60.666 87.25,57.87 87.487,56.18 L85.881,57.155 C85.103,55.967 86.805,55.763 86.711,54.831 C86.697,54.692 86.644,54.537 86.536,54.359 C86.265,54.507 86.007,54.659 85.776,54.831 C85.192,55.268 84.8,55.832 84.929,56.765 C83.858,58.65 83.144,58.78 82.31,60.535 C81.715,60.34 81.894,61.835 81.179,61.25 C81.954,59.95 82.667,58.52 83.738,57.61 C83.381,56.895 82.393,56.895 82.393,56.895 C81.983,56.854 81.611,57.553 81.015,57.423 C81.255,58.593 80.406,59.358 80.05,60.267 C79.515,60.007 79.217,60.34 78.681,60.081 C78.502,58.585 80.287,58.13 80.287,56.31 L79.633,55.985 C79.938,55.682 79.997,55.267 80.003,54.831 C80.012,54.33 79.95,53.802 80.108,53.384 C81.121,52.474 79.633,51.694 79.336,50.719 C79.098,51.109 78.919,51.564 78.383,51.499 C78.085,51.629 77.908,51.239 77.848,51.044 C77.431,50.914 77.134,51.175 76.896,51.499 C75.885,51.564 74.636,52.084 73.981,51.044 C73.802,50.33 74.338,50.004 74.517,49.419 L73.564,49.419 C72.315,50.069 72.613,52.02 70.766,51.304 C70.529,51.564 70.231,52.02 69.935,51.499 L70.231,50.719 C69.756,50.459 68.327,50.069 68.387,51.044 C68.149,51.629 67.554,52.084 66.781,51.889 C65.829,52.345 66.185,52.93 65.948,53.84 C66.609,54.062 66.695,54.438 66.53,54.831 C66.307,55.359 65.635,55.919 65.294,56.18 C65.354,56.7 65.234,57.09 64.877,57.35 C64.877,57.35 64.758,57.805 64.639,58.195 C65.294,58.78 65.175,59.365 65.948,59.235 C66.185,60.6 64.698,59.625 64.342,60.405 C64.877,61.445 63.45,62.16 63.508,62.031 C63.092,62.616 62.081,62.616 61.962,63.59 C61.783,64.436 62.794,64.761 63.152,65.086 C63.866,65.15 63.39,64.631 63.806,64.305 C64.104,63.915 64.758,63.72 65.175,63.786 C66.127,63.135 67.317,62.616 68.387,63.33 C68.268,65.736 65.768,62.875 65.115,64.956 C64.877,65.541 64.521,66.19 64.996,66.711 L65.65,66.516 C65.948,67.036 65.294,67.165 65.175,67.685 C62.794,66.776 64.579,70.351 62.735,70.741 C62.973,71.131 62.498,71.521 62.498,71.976 L63.508,71.976 C63.508,71.976 64.698,71.521 64.996,70.935 C66.304,72.171 66.245,69.375 67.554,70.027 C67.554,70.027 69.279,71.261 69.994,70.351 C70.291,71.326 69.16,71.652 68.744,72.106 C68.089,72.561 67.673,71.586 67.019,71.652 C66.807,72.015 66.779,72.328 66.788,72.659 C66.797,72.979 66.84,73.316 66.781,73.731 C66.304,74.511 65.115,74.706 65.65,75.876 C66.008,76.071 65.948,75.486 66.245,75.486 C66.721,76.136 66.185,77.437 67.138,77.631 C67.673,77.241 68.031,77.762 68.506,78.671 C68.983,79.582 69.637,78.867 70.231,79.127 C70.529,79.841 69.696,80.297 69.4,80.881 C68.685,79.776 67.792,80.817 66.9,80.557 C66.781,80.752 66.543,80.881 66.483,81.141 C66.9,81.532 67.377,81.337 67.852,81.727 C68.149,81.922 67.792,82.182 67.792,82.442 C66.483,82.376 67.256,84.132 66.245,84.522 C66.066,84.197 66.066,83.742 65.948,83.352 C65.413,83.417 64.817,83.156 64.46,83.612 C63.152,83.221 62.2,82.766 61.011,83.482 C59.998,84.392 60.594,82.247 59.523,82.766 C59.106,83.092 58.869,83.352 58.69,83.806 C57.856,84.132 58.511,84.652 57.677,84.782 L56.013,84.652 C55,84.457 54.702,83.937 54.702,83.937 C53.692,83.612 53.156,84.457 52.323,84.977 C51.252,84.912 51.669,86.212 50.954,86.732 C51.133,88.682 48.871,87.382 47.979,87.902 C47.741,89.333 46.194,90.527 46.73,91.957 C47.443,92.216 47.072,93.688 48.143,93.298 C48.44,92.778 48.813,92.193 48.515,91.867 C48.992,90.697 49.943,89.983 50.954,89.333 L51.252,89.657 C50.894,90.047 51.49,89.983 51.49,90.373 C50.954,90.827 50.717,91.672 49.883,91.672 C50.598,92.452 49.111,92.778 49.111,93.883 C49.585,94.143 49.764,95.312 50.537,94.728 C50.954,94.338 51.192,93.688 51.727,93.558 C52.025,93.363 52.025,93.883 52.144,94.012 C51.787,94.403 51.431,95.118 50.835,95.183 C50.419,95.443 50.3,95.963 50.537,96.483 C48.813,97.328 50.3,99.733 49.229,100.903 C48.515,100.643 48.634,99.928 48.931,99.408 C48.396,99.279 48.515,99.148 48.158,98.238 C47.443,98.368 46.135,97.718 46.016,99.148 C45.658,98.953 44.946,98.692 44.946,98.692 C43.933,97.718 44.231,99.539 43.577,99.863 C44.112,100.643 42.921,100.643 42.624,101.358 C42.386,101.293 42.208,101.099 42.267,100.773 C41.971,99.799 41.137,99.733 40.541,99.148 C40.423,98.563 41.256,98.953 41.018,98.302 C38.875,97.003 40.423,100.968 38.935,100.643 L39.173,101.227 C38.756,101.748 38.102,101.358 37.686,101.164 C37.746,100.643 38.4,99.993 37.567,99.603 C37.031,100.578 35.96,100.643 35.425,101.618 C36.556,103.828 32.807,104.869 34.771,106.623 C35.306,106.623 35.841,107.729 36.496,107.014 C37.233,107.071 36.805,107.789 36.738,108.314 C36.73,108.383 36.727,108.448 36.733,108.509 C36.258,109.224 35.306,109.094 34.652,109.094 C33.52,109.808 35.127,110.848 34.771,112.019 C34.354,113.383 34.056,111.045 33.283,111.694 C33.283,111.694 32.226,111.458 31.437,112.864 C31.973,115.268 28.939,112.734 29.415,115.074 C28.404,115.268 28.048,114.1 27.154,113.514 C27.392,112.019 27.69,111.239 27.69,109.679 C27.273,109.288 26.856,108.963 26.202,109.094 C26.202,109.354 26.321,109.679 26.084,109.939 C25.965,110.134 25.429,110.719 25.131,110.134 C25.429,109.939 25.429,109.419 25.25,109.094 L24.714,109.094 C24.714,109.808 24.06,110.264 23.763,110.848 C22.692,110.328 23.288,112.344 22.275,111.563 C21.502,112.344 20.193,112.864 19.777,114.1 C19.835,114.814 19.896,116.245 19.896,116.245 C19.954,116.374 20.193,116.439 20.133,116.569 C20.252,116.439 20.371,116.245 20.55,116.245 C20.49,116.114 20.669,115.528 20.669,115.528 C21.442,114.684 22.752,115.074 23.227,113.643 C23.881,113.514 24.477,113.839 24.833,114.229 C24.298,114.684 25.012,114.684 24.833,115.204 C24.001,115.724 23.823,117.479 22.81,117.87 L22.335,117.154 L22.156,117.413 C20.669,116.699 21.146,119.755 19.777,118.714 C20.014,120.275 18.229,121.119 17.992,122.42 L19.063,122.225 C19.063,122.225 19.36,121.769 19.598,121.704 L19.598,121.509 C20.729,120.535 21.621,122.549 22.573,123.005 C24.239,122.549 23.227,120.404 24.298,119.495 C26.321,120.535 24.06,122.029 24.179,123.265 C24.179,123.265 24.952,123.005 25.012,122.68 C26.084,122.68 26.737,120.535 28.048,121.509 C27.988,121.9 27.511,121.769 27.511,122.225 C26.56,122.42 27.035,123.135 26.202,123.589 L25.786,123.265 L25.667,123.394 C25.608,124.174 24.239,124.954 24.298,124.76 C24.06,125.15 22.752,124.434 22.81,125.475 C22.99,125.475 23.346,125.865 23.227,126.32 C23.406,126.515 23.704,126.645 23.941,126.385 C24.239,127.556 23.108,128.725 22.454,129.57 C22.335,130.545 21.442,131.065 20.848,131.325 L20.55,131 C19.835,130.61 19.658,131.65 19.063,131.911 C18.884,133.535 17.277,134.12 17.1,135.876 C18.527,136.071 16.623,136.916 17.514,137.501 C17.158,138.085 16.623,138.865 15.908,138.671 C15.908,139.386 15.433,139.451 15.077,139.841 C13.886,139.516 13.886,140.75 13.767,141.596 C14.421,142.507 15.016,141.467 15.373,141.27 C15.908,141.791 15.79,142.507 15.314,142.766 C16.504,143.287 16.861,141.921 17.635,141.531 C18.408,142.181 17.218,142.507 17.337,143.287 C17.812,143.416 18.944,142.896 19.242,143.741 C19.242,143.836 19.233,143.911 19.216,143.968 C19.119,144.317 18.761,144.065 18.462,143.968 L18.281,143.968 C18.169,144.421 18.161,145.046 17.754,145.237 C17.992,145.301 18.021,146.885 19.063,145.106 C20.137,145.106 20.917,144.706 21.433,143.968 C21.574,143.766 21.697,143.539 21.799,143.287 C21.977,143.287 22.156,143.156 22.275,143.352 C22.447,143.538 22.545,143.747 22.59,143.968 C22.762,144.829 22.13,145.891 21.799,146.666 C22.394,147.317 23.346,146.406 23.941,146.536 C23.941,145.691 24.358,145.106 24.833,144.521 C25.429,144.326 25.488,144.977 25.786,145.237 L25.369,145.691 C24.833,147.447 23.108,148.616 22.99,150.762 C23.108,150.762 23.288,150.696 23.346,150.892 C23.763,150.567 24.656,150.632 24.298,149.786 C25.31,149.786 25.131,148.616 26.202,149.202 C27.273,148.616 26.975,146.406 28.225,146.212 C28.55,145.384 28.481,144.718 28.69,143.968 C28.711,143.894 28.735,143.818 28.76,143.741 C29.296,143.741 29.831,143.221 30.308,143.741 C30.248,143.806 30.19,143.872 30.071,143.872 L30.071,143.968 C30.071,144.301 30.903,144.521 30.903,144.521 C30.903,144.521 31.081,145.497 30.606,145.691 C30.308,146.341 29.713,147.057 29.773,147.967 L30.19,147.967 C30.367,148.161 30.963,148.754 29.415,149.592 C29.118,149.722 28.225,149.267 28.167,149.917 C27.571,150.632 27.095,149.656 26.439,149.786 C25.786,150.892 24.416,151.672 24.416,153.102 C24.656,153.167 24.894,152.972 24.952,152.712 C25.25,152.647 25.667,152.842 25.786,153.102 C26.321,152.516 26.439,151.216 27.273,151.542 C27.154,152.062 26.202,152.387 26.856,153.102 C27.75,152.321 27.869,153.947 28.583,152.972 C28.76,150.632 31.854,152.321 32.094,150.176 L32.45,150.502 C32.636,148.957 33.7,148.421 33.7,148.421 L34.354,147.707 C34.829,148.616 33.758,148.876 33.581,149.786 C33.7,150.242 34.235,150.306 34.056,150.762 L34.354,151.087 C34.056,151.412 34.056,151.477 34.235,151.802 C34.771,152.062 34.652,151.412 35.127,151.347 C35.425,150.306 36.198,149.202 36.496,148.161 C36.675,148.291 36.556,148.487 36.615,148.616 C36.02,149.786 37.388,149.722 37.567,150.502 C36.675,150.567 35.96,152.321 35.008,152.516 C35.008,153.297 33.818,153.102 34.354,154.012 C34.829,154.272 35.722,154.141 35.544,153.297 C36.733,152.712 37.983,154.012 38.756,153.817 C39.471,153.037 40.244,154.012 41.434,153.557 C42.327,153.881 42.386,154.207 42.148,155.182 L42.802,154.987 C43.041,155.052 42.921,154.597 43.458,154.401 C44.826,153.947 43.517,155.118 44.112,155.637 C44.112,155.637 44.588,155.767 44.648,156.222 C44.529,156.222 45.183,159.277 45.183,159.277 L44.87,160.374 L45.481,160.317 C46.254,160.512 45.896,159.277 45.837,159.083 C46.313,158.952 46.254,157.392 46.433,157.392 C46.492,157.197 46.433,157.003 46.254,156.806 C46.848,155.897 45.896,154.337 46.969,153.881 L47.088,152.842 C47.088,152.842 47.088,151.152 47.979,151.087 L47.443,150.306 C47.8,149.917 48.158,150.436 48.515,150.632 L48.277,154.987 C48.813,155.506 48.277,156.157 48.277,156.938 C49.169,157.392 47.979,157.847 48.277,158.497 C48.813,158.562 49.288,158.302 49.764,158.237 C49.467,156.482 50.358,154.467 49.883,153.297 L50.3,152.972 C50.598,152.581 50.717,153.232 51.073,153.102 L51.073,152.387 C51.073,152.387 50.358,151.542 50.954,151.347 C51.073,151.412 51.669,150.502 51.906,150.176 C52.262,150.046 54.166,149.722 54.941,150.046 C55.238,149.592 55.654,149.592 55.654,149.007 C55.952,149.267 55.952,149.982 56.547,149.722 C56.844,149.007 57.737,148.551 57.26,147.577 L56.606,147.577 C56.666,147.057 55.715,147.251 55.894,146.536 C56.429,145.886 56.131,145.041 56.309,144.456 C55.596,144.196 55.536,144.781 55.119,145.041 C54.499,144.857 53.931,144.554 53.57,143.968 C53.55,143.937 53.531,143.904 53.513,143.872 C52.679,144.196 52.679,143.221 52.144,142.896 C51.906,142.961 51.609,142.831 51.609,143.156 L51.192,142.441 C51.846,141.596 52.798,142.181 53.632,141.531 C55.298,141.596 56.309,140.621 57.677,139.971 L57.917,140.361 C57.5,140.75 58.213,141.27 58.154,141.856 C58.332,142.571 58.332,143.676 57.677,143.936 C57.677,143.936 57.687,143.947 57.705,143.968 C57.804,144.092 57.856,144.781 57.917,145.041 C58.69,145.106 58.443,144.594 58.741,144.204 C58.741,144.204 58.415,142.095 58.987,141.596 C59.387,142.281 59.404,144.066 59.404,144.066 L59.641,145.497 L59.819,145.497 C59.946,144.987 60.014,144.478 59.934,143.968 C59.902,143.763 60.058,143.287 60.296,143.287 C60.437,143.5 60.537,143.729 60.606,143.968 C60.915,145.041 60.614,146.33 60.713,147.447 L61.345,148.551 C61.463,147.707 61.247,146.081 61.664,145.366 C61.524,144.935 61.69,144.461 61.847,143.968 C62.021,143.424 62.185,142.858 61.902,142.311 C61.783,141.727 61.485,141.01 62.2,140.816 C62.675,141.076 62.081,141.531 62.438,141.727 C63.233,142.289 63.099,143.115 63.045,143.968 C63.019,144.393 63.013,144.826 63.152,145.237 C64.579,145.497 62.735,146.861 63.033,147.837 L63.271,148.161 C64.46,147.577 63.033,146.666 64.223,146.081 C64.376,145.386 64.376,144.673 64.374,143.968 C64.371,142.763 64.364,141.582 65.115,140.556 C65.516,140.644 65.889,140.414 66.256,140.469 L66.256,139.904 L68.62,139.904 C68.637,139.491 68.714,139.079 68.923,138.671 C70.054,138.085 68.983,136.331 69.935,135.551 C70.41,134.9 70.648,134.25 71.302,133.991 C73.981,135.095 77.491,134.38 80.644,135.095 C82.523,136.123 81.45,138.225 81.994,139.904 L83.066,139.904 C82.925,139.411 82.832,138.939 83.381,138.605 L84.036,139.646 C84.571,140.166 85.523,140.426 86,141.01 L88.736,141.141 C88.795,141.661 89.272,141.467 89.629,141.531 C90.046,141.921 90.462,142.507 90.998,142.766 L91.533,142.766 C92.036,143.105 92.492,143.511 92.91,143.968 C94.816,146.056 95.912,149.212 96.887,151.931 C97.661,154.857 98.733,157.457 99.685,160.448 C100.34,161.227 101.052,162.267 101.708,163.373 C103.314,164.868 105.04,166.168 106.11,168.052 C106.765,168.703 107.479,169.158 107.479,170.198 C109.442,171.498 108.669,174.359 109.025,176.371 C109.049,176.843 108.83,177.238 108.567,177.612 C102.176,177.428 97.888,177.288 97.389,177.227 C97.4,173.58 97.461,169.934 97.449,166.287 C98.503,166.108 99.556,165.933 100.615,165.778 C100.573,165.433 100.534,165.091 100.5,164.747 C98.837,163.152 97.208,161.52 95.563,159.905 C92.279,156.808 89.123,153.58 85.839,150.482 C85.533,150.471 85.228,150.458 84.924,150.445 C84.95,149.345 84.937,148.245 84.937,147.144 C83.066,147.162 81.194,147.149 79.321,147.15 C79.332,148.242 79.323,149.336 79.336,150.428 C74.852,150.38 70.371,150.275 65.887,150.266 C65.044,150.284 64.192,150.282 63.353,150.335 C63.133,150.521 53.912,159.962 49.949,163.499 L49.949,165.396 C50.429,165.394 50.909,165.392 51.389,165.388 C51.451,170.072 51.553,172.002 51.599,176.685 C51.099,176.715 50.599,176.747 50.096,176.778 L50.096,177.374 C50.096,177.374 29.115,177.699 13.767,179.621 C13.767,179.621 160.146,179.872 180.695,179.851 C180.519,179.581 152.369,178.815 128.834,178.173 C128.481,177.923 128.041,177.742 127.769,177.412 C126.281,177.347 125.865,175.398 124.614,174.359 C124.554,172.018 124.852,169.677 125.091,167.143 C126.22,165.388 125.746,162.853 126.458,160.902 C126.816,160.382 126.579,159.408 127.114,159.083 L127.233,158.237 C127.946,157.132 127.888,155.506 128.481,154.272 C129.077,151.867 129.969,149.656 130.504,147.251 C131.059,146.244 131.5,145.098 131.969,143.968 C132.866,141.821 133.873,139.738 135.979,138.801 C136.454,139.841 135.206,140.166 135.027,140.816 C134.448,141.792 134.474,142.768 134.488,143.968 C134.49,144.126 134.492,144.289 134.492,144.456 L134.79,144.326 C134.79,144.205 134.801,144.083 134.803,143.968 C134.805,143.837 134.848,141.531 135.8,141.01 C135.889,141.942 135.708,142.983 135.666,143.968 C135.652,144.291 135.652,144.607 135.681,144.911 C135.681,144.911 136.217,148.357 136.633,149.592 C137.05,149.071 136.633,147.967 137.467,147.967 L137.586,146.861 C138.002,146.472 137.169,145.886 137.941,145.626 C138.239,146.212 138.954,146.602 139.014,147.447 L139.192,145.237 C139.076,144.795 138.736,144.352 139.154,143.968 C139.166,143.958 139.179,143.947 139.192,143.936 C139.014,143.806 138.954,143.612 139.014,143.352 C139.49,143.287 139.906,143.026 140.381,143.481 C140.451,143.641 140.502,143.805 140.54,143.968 C140.939,145.674 140.143,149.007 140.143,149.007 C139.964,150.046 139.609,152.062 140.085,153.102 C140.679,153.167 140.262,152.972 140.679,152.712 L140.798,150.046 C142.345,148.811 141.631,152.062 142.404,152.062 C143.083,149.892 142.643,148.747 142.643,148.747 L142.643,146.536 C142.821,146.276 143.06,146.146 143.356,146.212 C143.119,145.822 143.356,145.366 143.475,145.041 L144.904,146.861 C145.141,147.382 145.915,147.251 146.392,147.382 C146.332,146.731 147.106,147.057 146.809,146.276 C146.866,146.081 147.106,145.691 147.462,145.822 C148.354,146.081 147.106,146.276 147.462,146.861 C148.177,147.577 148.771,146.472 149.247,146.212 L149.485,146.406 C149.128,146.861 149.425,147.901 148.713,147.837 C148.713,147.837 146.45,149.462 146.273,150.892 C147.359,150.827 147.343,151.672 147.106,151.542 C146.927,152.062 146.213,152.452 146.511,153.232 C147.283,153.427 147.581,154.141 147.879,154.857 C148.533,154.597 149.068,155.312 149.485,154.987 L149.902,154.987 L150.258,155.312 C150.973,154.727 151.627,153.752 152.46,153.557 C152.758,154.141 152.348,154.32 152.825,154.646 C152.825,154.191 153.413,154.597 153.473,153.881 C153.531,153.687 153.711,153.492 154.008,153.557 C154.364,153.752 154.066,154.012 154.008,154.272 C153.947,155.246 154.84,154.597 155.137,154.727 C155.375,155.572 154.558,155.841 154.201,156.555 C154.38,156.75 154.483,157.197 154.008,157.523 C153.592,157.392 153.413,157.003 153.352,156.482 C152.46,157.003 152.937,157.523 152.817,158.497 C152.341,159.017 152.877,159.992 151.925,159.862 C151.745,160.577 152.223,161.098 152.46,161.162 C153.65,161.162 152.281,163.113 153.352,163.373 C153.65,162.333 153.592,161.748 153.473,160.577 C153.829,160.382 154.008,159.928 154.423,159.732 C154.423,159.732 154.721,159.277 155.615,158.823 C155.971,159.797 156.983,158.823 157.519,159.668 L157.519,163.633 C158.885,162.527 157.815,159.668 159.362,158.497 C159.541,157.587 158.35,157.783 158.708,156.938 C159.243,155.767 159.6,157.652 159.898,157.392 L160.494,156.612 C161.325,156.872 162.456,155.442 162.754,156.938 L163.497,157.774 C164.687,158.685 163.646,156.027 164.241,156.027 C164.123,155.962 164.479,155.442 164.598,155.312 C164.836,154.467 163.706,154.597 163.408,154.467 C162.991,154.077 163.289,153.427 163.17,152.842 C162.754,152.062 161.623,151.412 161.683,150.306 C161.087,150.176 160.731,150.502 160.315,150.046 C160.968,149.071 159.481,148.747 159.958,147.707 C161.029,147.122 161.445,145.497 162.635,145.366 C162.873,144.001 164.004,144.911 164.717,144.521 C165.431,144.911 164.658,145.497 164.896,146.081 C167.038,147.577 164.004,149.982 165.015,151.931 C165.313,152.062 165.55,151.736 165.787,152.256 L166.204,151.931 C167.217,151.736 166.8,153.687 167.989,153.297 C168.406,152.842 169.179,152.776 169.002,152.062 C169.06,151.477 169.596,151.347 169.954,151.087 C170.666,151.477 169.894,151.996 169.954,152.516 C170.608,153.492 170.429,155.182 170.489,156.157 L170.906,156.157 C170.906,155.637 171.277,154.979 171.455,154.523 C171.455,154.523 170.727,150.827 171.738,149.462 L172.215,149.917 L171.977,153.102 L172.749,152.256 L173.344,153.297 C174.058,154.597 172.036,154.597 172.929,155.637 C173.166,156.547 172.512,157.523 172.749,158.692 C173.76,158.562 173.583,159.992 173.583,160.448 C173.938,161.288 173.764,162.128 173.704,162.905 L174.772,162.787 C174.891,162.397 175.07,161.682 174.417,161.618 C174.535,160.773 174.177,159.732 174.772,159.083 L175.189,159.083 C175.427,159.017 175.606,159.083 175.725,159.277 C174.891,160.837 176.856,161.748 175.725,163.047 C176.498,164.153 176.023,165.842 176.141,167.273 L176.677,167.273 C176.677,165.192 176.2,162.527 177.033,160.448 C177.391,161.422 177.093,162.073 177.568,162.918 L177.963,161.999 C178.736,161.479 177.093,159.732 178.402,159.732 C178.402,159.342 178.402,158.823 178.7,158.692 C178.64,158.367 178.938,157.717 178.402,157.652 C178.64,157.392 178.759,156.806 179.354,156.938 C179.293,156.027 180.246,156.417 180.306,155.637 C180.544,155.897 180.96,155.246 181.198,155.767 C180.842,155.897 181.079,156.286 180.842,156.482 C181.258,156.547 181.317,156.286 181.614,156.612 L182.269,156.352 C182.864,156.027 182.746,155.377 182.925,154.857 C183.341,154.857 183.995,155.182 183.877,155.312 C184.054,155.897 184.352,156.677 185.066,156.352 C184.887,156.286 186.91,156.352 187.208,157.197 C187.565,157.132 187.923,156.743 188.042,156.222 L187.387,156.027 C187.387,155.246 186.435,154.661 187.089,153.881 C186.791,152.972 186.019,152.972 185.364,152.516 C184.233,152.452 183.46,151.087 183.46,151.087 C182.864,150.827 182.448,150.371 181.853,150.046 C181.614,149.202 180.246,149.786 180.008,148.616 C179.175,149.137 178.7,148.161 177.866,147.837 C177.093,146.341 178.879,146.276 178.819,145.106 L178.64,145.106 C178.195,144.282 177.286,144.362 176.583,143.968 C176.343,143.836 176.127,143.648 175.962,143.352 C175.962,142.571 175.368,141.921 176.379,141.531 C177.687,142.635 177.391,140.231 178.521,140.426 C179.236,141.01 179.175,141.921 179.175,142.766 L179.77,142.766 C179.829,142.507 180.008,142.311 180.008,142.441 C180.068,141.986 180.723,141.531 180.306,140.946 C180.781,140.361 181.258,139.971 181.912,140.426 C182.389,139.776 183.102,140.556 183.102,139.386 C184.173,139.451 183.4,138.411 184.412,138.476 C183.935,139.451 185.779,139.906 184.708,140.556 C185.459,141.501 185.035,142.935 185.441,143.968 L185.462,143.968 C185.366,143.327 185.941,142.462 185.602,141.596 C185.483,141.01 186.195,141.336 186.138,140.686 C186.435,140.75 186.791,141.27 186.97,141.596 C186.749,142.443 187.122,143.265 187.139,143.968 C187.151,144.399 187.027,144.786 186.554,145.106 C186.435,145.432 186.731,146.081 187.267,145.822 C187.348,145.271 187.4,144.638 187.437,143.968 C187.506,142.663 187.506,141.217 187.506,139.971 C187.387,139.125 188.219,138.151 187.625,137.631 C186.731,136.005 187.892,135.957 188.695,134.966 C189.231,134.86 189.231,134.51 189.529,135.291 C190.54,135.291 190.123,133.73 191.135,133.341 C191.433,133.535 192.146,133.535 192.027,133.991 C192.087,134.25 191.85,134.316 191.908,134.51 C191.135,134.446 190.897,135.551 191.016,136.331 C191.61,136.526 192.385,136.395 192.623,136.136 C193.395,136.395 192.861,138.021 193.931,137.436 C194.585,136.916 193.633,136.46 193.931,136.005 C193.395,135.355 193.693,134.706 193.693,133.991 C194.169,133.86 193.872,133.406 194.229,133.21 C194.467,132.105 195.656,132.625 196.191,132.495 C196.133,132.041 197.264,131.488 195.537,129.701 C195.181,129.57 195.181,130.09 195.002,130.285 C194.646,130.09 194.05,130.285 193.931,129.701 C194.765,128.985 196.133,128.482 196.073,127.181 C195.95,126.439 194.933,126.9 195.107,126.938 C195.107,127.068 194.742,127.563 194.921,127.628 C194.549,127.953 194.229,128.076 194.05,127.945 C193.693,127.36 194.229,126.97 194.467,126.515 C194.467,126.123 194.642,125.013 194.692,124.958 C194.493,124.369 195.537,123.46 195.537,123.46 L195.656,122.875 C197.68,122.485 196.252,125.475 197.025,125.8 C197.383,125.734 197.621,125.475 197.977,125.605 C198.214,125.931 198.929,126.255 198.512,126.775 C198.275,127.75 199.108,127.88 199.167,128.14 C199.346,128.14 199.465,128.4 199.584,128.53 C200.06,128.205 201.369,128.27 201.548,127.36 C200.476,126.58 202.262,125.67 201.19,125.02" fill="#FFFFFF"/>
      <path d="M173.702,163.324 C173.702,163.32 173.702,163.316 173.704,163.311 L173.583,163.324 z" fill="#FFFFFF"/>
    </g>
  </g>
</svg>
