<?xml version="1.0" encoding="UTF-8"?>
<!DOCTYPE svg PUBLIC "-//W3C//DTD SVG 1.1//EN" "http://www.w3.org/Graphics/SVG/1.1/DTD/svg11.dtd">
<svg version="1.1" xmlns="http://www.w3.org/2000/svg" xmlns:xlink="http://www.w3.org/1999/xlink" x="0" y="0" width="200" height="150" viewBox="0, 0, 800, 600">
  <defs>
    <linearGradient id="Gradient_1" gradientUnits="userSpaceOnUse" x1="317.789" y1="302.585" x2="480.369" y2="442.104">
      <stop offset="0" stop-color="#FFC14D"/>
      <stop offset="0.362" stop-color="#FF4834"/>
      <stop offset="1" stop-color="#3B0300"/>
    </linearGradient>
    <linearGradient id="Gradient_2" gradientUnits="userSpaceOnUse" x1="381.287" y1="-36.042" x2="381.287" y2="-34">
      <stop offset="0" stop-color="#FAFFA4"/>
      <stop offset="0.473" stop-color="#FFFFFF"/>
      <stop offset="0.558" stop-color="#F6FFD9"/>
      <stop offset="1" stop-color="#FFA200"/>
    </linearGradient>
    <linearGradient id="Gradient_3" gradientUnits="userSpaceOnUse" x1="61" y1="-77" x2="61" y2="-73">
      <stop offset="0" stop-color="#FAFFA4"/>
      <stop offset="0.473" stop-color="#FFFFFF"/>
      <stop offset="0.558" stop-color="#F6FFD9"/>
      <stop offset="1" stop-color="#FFA200"/>
    </linearGradient>
    <linearGradient id="Gradient_4" gradientUnits="userSpaceOnUse" x1="87.983" y1="222.515" x2="87.983" y2="277.582">
      <stop offset="0" stop-color="#EAFAFD"/>
      <stop offset="1" stop-color="#6AE3E3"/>
    </linearGradient>
    <linearGradient id="Gradient_5" gradientUnits="userSpaceOnUse" x1="168.267" y1="422.184" x2="168.267" y2="450.178">
      <stop offset="0" stop-color="#EAFAFD"/>
      <stop offset="1" stop-color="#6AE3E3"/>
    </linearGradient>
    <linearGradient id="Gradient_6" gradientUnits="userSpaceOnUse" x1="87.424" y1="445.368" x2="87.424" y2="446.661">
      <stop offset="0" stop-color="#EAFAFD"/>
      <stop offset="1" stop-color="#6AE3E3"/>
    </linearGradient>
    <linearGradient id="Gradient_7" gradientUnits="userSpaceOnUse" x1="158.387" y1="179.585" x2="331.628" y2="421.415">
      <stop offset="0" stop-color="#FFC14D"/>
      <stop offset="0.362" stop-color="#FF4834"/>
      <stop offset="1" stop-color="#3B0300"/>
    </linearGradient>
    <linearGradient id="Gradient_8" gradientUnits="userSpaceOnUse" x1="222.5" y1="177.142" x2="222.5" y2="239.866">
      <stop offset="0" stop-color="#EAFAFD"/>
      <stop offset="1" stop-color="#6AE3E3"/>
    </linearGradient>
    <linearGradient id="Gradient_9" gradientUnits="userSpaceOnUse" x1="220.66" y1="213.264" x2="220.66" y2="329.163">
      <stop offset="0" stop-color="#7980FF"/>
      <stop offset="1" stop-color="#006E10"/>
    </linearGradient>
    <radialGradient id="Gradient_10" gradientUnits="userSpaceOnUse" cx="423" cy="75.5" r="0">
      <stop offset="0" stop-color="#FFFFFF"/>
      <stop offset="0.291" stop-color="#000000"/>
      <stop offset="0.523" stop-color="#BAF8FF"/>
      <stop offset="1" stop-color="#482799"/>
    </radialGradient>
    <linearGradient id="Gradient_11" gradientUnits="userSpaceOnUse" x1="299.686" y1="429.894" x2="299.686" y2="463.425">
      <stop offset="0" stop-color="#EAFAFD"/>
      <stop offset="1" stop-color="#6AE3E3"/>
    </linearGradient>
    <linearGradient id="Gradient_12" gradientUnits="userSpaceOnUse" x1="76.989" y1="106.5" x2="77.011" y2="109.5">
      <stop offset="0" stop-color="#0093FF"/>
      <stop offset="1" stop-color="#000542" stop-opacity="0.959"/>
    </linearGradient>
    <radialGradient id="Gradient_13" gradientUnits="userSpaceOnUse" cx="244.507" cy="140.806" r="57.21">
      <stop offset="0" stop-color="#FFF598"/>
      <stop offset="1" stop-color="#FFB713"/>
    </radialGradient>
    <radialGradient id="Gradient_14" gradientUnits="userSpaceOnUse" cx="248.758" cy="93.351" r="78.795">
      <stop offset="0" stop-color="#FFF598"/>
      <stop offset="1" stop-color="#FFB713"/>
    </radialGradient>
    <radialGradient id="Gradient_15" gradientUnits="userSpaceOnUse" cx="399.079" cy="210.35" r="50.184">
      <stop offset="0" stop-color="#FFF598"/>
      <stop offset="1" stop-color="#FFB713"/>
    </radialGradient>
    <radialGradient id="Gradient_16" gradientUnits="userSpaceOnUse" cx="120.86" cy="205.94" r="31.474">
      <stop offset="0" stop-color="#FFF598"/>
      <stop offset="1" stop-color="#FFB713"/>
    </radialGradient>
    <radialGradient id="Gradient_17" gradientUnits="userSpaceOnUse" cx="275.364" cy="185.743" r="71.275">
      <stop offset="0" stop-color="#FFF598"/>
      <stop offset="1" stop-color="#FFB713"/>
    </radialGradient>
    <radialGradient id="Gradient_18" gradientUnits="userSpaceOnUse" cx="303.516" cy="167.054" r="64.372">
      <stop offset="0" stop-color="#FFF598"/>
      <stop offset="1" stop-color="#FFB713"/>
    </radialGradient>
    <linearGradient id="Gradient_19" gradientUnits="userSpaceOnUse" x1="351.475" y1="300.249" x2="351.475" y2="346.479">
      <stop offset="0" stop-color="#EAFAFD"/>
      <stop offset="1" stop-color="#6AE3E3"/>
    </linearGradient>
    <linearGradient id="Gradient_20" gradientUnits="userSpaceOnUse" x1="191.653" y1="381.895" x2="191.653" y2="413.987">
      <stop offset="0" stop-color="#FAFFA4"/>
      <stop offset="0.473" stop-color="#FFFFFF"/>
      <stop offset="0.558" stop-color="#F6FFD9"/>
      <stop offset="1" stop-color="#FFA200"/>
    </linearGradient>
    <linearGradient id="Gradient_21" gradientUnits="userSpaceOnUse" x1="256.5" y1="382.83" x2="256.5" y2="422.844">
      <stop offset="0" stop-color="#FAFFA4"/>
      <stop offset="0.473" stop-color="#FFFFFF"/>
      <stop offset="0.558" stop-color="#F6FFD9"/>
      <stop offset="1" stop-color="#FFA200"/>
    </linearGradient>
  </defs>
  <g id="Layer_1">
    <path d="M284.117,442.804 C309.486,476.316 358.227,475.716 395.117,462.804 C470.644,436.37 549.599,355.162 496.952,284.966 C481.593,264.487 395.437,272.104 403.952,306.164 C405.054,310.571 421.517,340.989 427.167,338.164 C429.606,336.944 426.237,303.544 422.667,301.164 C419.229,298.872 473.576,289.573 473.167,289.164 C464.214,280.211 478.765,329.966 484.167,329.966 C495.483,329.966 435.47,337.773 434.167,346.896 C432.163,360.919 466.782,379.164 448.167,379.164 C446.5,379.164 405.762,352.781 406.167,351.164 C406.543,349.66 423.492,403.632 422.667,403.632 C417.59,403.632 383.757,382.574 380.167,386.164 C375.128,391.203 400.891,430.865 405.167,425.164 C421.781,403.011 347.799,454.466 313.167,447.539 z" fill="url(#Gradient_1)"/>
    <path d="M376,-34 C401.799,-39.16 370.679,-32.48 383,-36" fill="url(#Gradient_2)"/>
    <path d="M62,-77 C59.333,-71.667 59.333,-71.667 62,-77" fill="url(#Gradient_3)"/>
    <path d="M128.577,367.438 C112.173,377.878 91.234,382.318 74.577,368.438 C47.372,345.767 62.614,315.512 54.577,299.438 C50.617,291.517 8.976,280.039 27.577,261.438 C32.119,256.896 47.696,281.795 46.577,278.438 C43.809,270.134 35.915,264.805 34.577,255.438 C33.639,248.873 41.214,234.954 47.577,243.438 C51.492,248.658 51.981,257.842 56.577,262.438 C57.183,263.043 42.83,235.15 61.577,224.438 C83.553,211.88 70.342,276.948 72.577,278.438 C78.165,282.163 86.693,279.293 90.577,274.438 C91.581,273.183 95.257,262.897 96.577,264.438 C103.861,272.936 104.337,293.686 90.577,296.438 C85.818,297.39 80.918,290.267 76.577,292.438 C73.312,294.07 70.328,309.065 71.577,313.438 C86.919,367.135 117.31,308.738 143.577,328.438 C157.609,338.962 160.419,392.725 122.577,369.438" fill="url(#Gradient_4)"/>
    <path d="M173.513,426.758 C172.899,425.531 175.113,420.958 171.513,422.758 C135.195,440.917 173.994,475.796 171.513,480.758 C170.676,482.431 159.882,478.573 157.513,479.758 C151.664,482.682 138.747,491.523 134.513,495.758 C130.621,499.65 146.63,501.1 148.513,500.758 C155.072,499.565 196.916,492.489 202.513,488.758 C204.225,487.616 186.336,468.199 185.513,466.758 C183.132,462.592 180.522,453.735 182.513,448.758 C184.127,444.723 195.456,445.645 193.513,441.758 C190.415,435.563 177.321,433.082 171.513,430.758" fill="url(#Gradient_5)"/>
    <path d="M86.277,449 C86.363,446.652 91.395,442.176 86.277,449" fill="url(#Gradient_6)"/>
    <g>
      <path d="M245.007,471.5 C177.352,471.5 122.507,394.941 122.507,300.5 C122.507,206.059 177.352,129.5 245.007,129.5 C312.662,129.5 367.507,206.059 367.507,300.5 C367.507,394.941 312.662,471.5 245.007,471.5 z" fill="url(#Gradient_7)"/>
      <path d="M245.007,471.5 C177.352,471.5 122.507,394.941 122.507,300.5 C122.507,206.059 177.352,129.5 245.007,129.5 C312.662,129.5 367.507,206.059 367.507,300.5 C367.507,394.941 312.662,471.5 245.007,471.5 z" fill-opacity="0" stroke="#000000" stroke-width="1"/>
    </g>
    <g>
      <path d="M222.5,353.302 C184.682,353.302 154.025,313.947 154.025,265.401 C154.025,216.855 184.682,177.5 222.5,177.5 C260.318,177.5 290.975,216.855 290.975,265.401 C290.975,313.947 260.318,353.302 222.5,353.302 z" fill="url(#Gradient_8)"/>
      <path d="M222.5,353.302 C184.682,353.302 154.025,313.947 154.025,265.401 C154.025,216.855 184.682,177.5 222.5,177.5 C260.318,177.5 290.975,216.855 290.975,265.401 C290.975,313.947 260.318,353.302 222.5,353.302 z" fill-opacity="0" stroke="#000000" stroke-width="1"/>
    </g>
    <g>
      <path d="M222.5,333.866 C192.138,333.866 167.525,306.867 167.525,273.562 C167.525,240.257 192.138,213.258 222.5,213.258 C252.862,213.258 277.475,240.257 277.475,273.562 C277.475,306.867 252.862,333.866 222.5,333.866 z" fill="url(#Gradient_9)"/>
      <path d="M222.5,333.866 C192.138,333.866 167.525,306.867 167.525,273.562 C167.525,240.257 192.138,213.258 222.5,213.258 C252.862,213.258 277.475,240.257 277.475,273.562 C277.475,306.867 252.862,333.866 222.5,333.866 z" fill-opacity="0" stroke="#000000" stroke-width="1"/>
    </g>
    <g>
      <path d="M423,75.5 z" fill="url(#Gradient_10)"/>
      <path d="M423,75.5 z" fill-opacity="0" stroke="#000000" stroke-width="1"/>
    </g>
    <g>
      <path d="M215,283.302 C207.024,283.302 200.558,276.138 200.558,267.302 C200.558,258.465 207.024,251.302 215,251.302 C222.976,251.302 229.442,258.465 229.442,267.302 C229.442,276.138 222.976,283.302 215,283.302 z" fill="#000000"/>
      <path d="M215,283.302 C207.024,283.302 200.558,276.138 200.558,267.302 C200.558,258.465 207.024,251.302 215,251.302 C222.976,251.302 229.442,258.465 229.442,267.302 C229.442,276.138 222.976,283.302 215,283.302 z" fill-opacity="0" stroke="#000000" stroke-width="1"/>
    </g>
    <path d="M241.5,265.597 C231.283,265.597 223,256.642 223,245.597 C223,234.551 231.283,225.597 241.5,225.597 C251.717,225.597 260,234.551 260,245.597 C260,256.642 251.717,265.597 241.5,265.597 z" fill="#FFFFFF"/>
    <path d="M98,105 C97.448,105 97,104.328 97,103.5 C97,102.672 97.448,102 98,102 C98.552,102 99,102.672 99,103.5 C99,104.328 98.552,105 98,105 z" fill="#FFFFFF"/>
    <g>
      <path d="M264.5,456.711 C277.369,455.874 283.741,434.615 293.5,430.711 C313.347,422.772 297.928,492.995 298.5,494.711 C300.748,501.456 343.269,504.404 338.5,518.711 C336.38,525.072 303.499,524.853 298.5,522.711 C256.673,504.785 288.247,467.26 260.5,461.711" fill="url(#Gradient_11)"/>
      <path d="M264.5,456.711 C277.369,455.874 283.741,434.615 293.5,430.711 C313.347,422.772 297.928,492.995 298.5,494.711 C300.748,501.456 343.269,504.404 338.5,518.711 C336.38,525.072 303.499,524.853 298.5,522.711 C256.673,504.785 288.247,467.26 260.5,461.711" fill-opacity="0" stroke="#000000" stroke-width="1" stroke-linecap="round" stroke-linejoin="round"/>
    </g>
    <path d="M139.5,323.5 C151.267,389.653 229.46,430.887 269.5,377.5 C280.829,362.394 287.486,330.049 290.5,319.5" fill-opacity="0" stroke="#FFFFFF" stroke-width="1" stroke-linecap="round" stroke-linejoin="round"/>
    <g>
      <path d="M77.5,106.5 L76.5,109.5" fill="url(#Gradient_12)"/>
      <path d="M77.5,106.5 L76.5,109.5" fill-opacity="0" stroke="#000000" stroke-width="1" stroke-linecap="round" stroke-linejoin="round"/>
    </g>
    <path d="M222,161 C211.912,111.89 172.926,188 154,188 C116.312,188 140.548,134.525 155,122 C221.888,64.031 379.107,96.572 352,205 C348.305,219.781 319.009,176.678 316,173 C292.477,144.249 219,114.045 219,162" fill="url(#Gradient_13)"/>
    <path d="M347,186 C370.905,162.895 398.49,143.106 427,126 C430.971,123.617 441.569,122.853 439,119 C434.005,111.507 344.566,162.783 341,161 C336.275,158.637 411.791,103.652 406,94 C402.771,88.618 342.094,120 331,120 C324.737,120 335.638,108.284 339,103 C345.311,93.082 370,63.17 370,52 C370,50.205 366.386,52.859 365,54 C283.709,120.945 375.861,45.932 311,99 C306.607,102.595 296.623,115.507 298,110 C305.442,80.232 340.953,31.87 323,37 C321.206,37.512 286.928,92.108 283,98 C280.131,102.304 285.983,18.907 271,47 C268.658,51.391 255.169,107.792 252,107 C250.435,106.609 235.316,35 226,35 C217.263,35 224.286,93.643 221,92 C216.788,89.894 212.176,69.481 210,65 C164.33,-29.027 203.825,87.567 202,90 C198.7,94.4 127.061,-3.981 162,79 C164.785,85.613 171,95.623 171,103 C171,108.831 160.603,97.58 156,94 C151.137,90.218 109.772,59.228 105,64 C94.986,74.014 153.349,116.253 152,123 C149.663,134.684 61,86.065 61,112 C61,126.556 112.683,128.915 121,130 C129.498,131.108 150.754,128.869 146,136 C133.071,155.393 77.49,126.133 59,140 C48.615,147.789 133.593,158.22 131,166 C127.701,175.896 88.961,156.804 92,172 C93.504,179.518 142.237,176.921 145,176 C156.124,172.292 163.231,141.384 178,134 C219.374,113.313 264.205,109.182 300,141 C314.767,154.126 322.17,170.17 335,183 C341.153,189.153 360.791,183.395 350,178" fill="url(#Gradient_14)"/>
    <path d="M351,193 C362.688,204.293 376.547,229.778 396,229 C419.981,228.041 455.244,195.659 436,170 C430.17,162.227 448,201.434 448,215 C448,238.506 414.557,273.26 389,269 C375.535,266.756 336.618,201.353 355,194" fill="url(#Gradient_15)"/>
    <path d="M150,196 C155.858,180.967 151.922,205.681 151,209 C127.849,292.343 69.2,196 95,196 C95.61,196 97.211,219.105 107,224 C123.863,232.431 137.648,187.308 146,180" fill="url(#Gradient_16)"/>
    <path d="M215,127 C214.038,153.218 224.67,174.983 239,196 C254.249,218.365 228.809,189.672 272,234 C282.33,244.602 315.374,273.907 335,269 C338.771,268.057 327.951,265.53 325,263 C314.978,254.41 304.567,245.173 296,235 C271.085,205.413 238.402,165.414 232,127" fill="url(#Gradient_17)"/>
    <path d="M238,127 C222.243,151.439 347.176,257.549 372,241 C373.042,240.305 349.019,228.019 332,211 C309.712,188.712 291.142,163.309 271,139 C261.256,127.24 240.232,122.72 235,114" fill="url(#Gradient_18)"/>
    <g>
      <path d="M143.498,384.474 C138.198,380.547 200.944,425.064 205.852,426.466 C263.518,442.943 253.519,397.387 310.5,390.264 C318.012,389.325 352.139,381.64 354.664,391.741 C358.263,406.136 311.786,458.093 303.45,449.5 C284.617,430.086 290.5,445.875 270.5,471.5 C266.296,476.886 235.398,474.1 228.498,472.72 C202.323,467.485 183.353,451.39 161.844,433.466 C152.758,425.895 129.301,369.277 144.498,384.474" fill="#FFFFFF"/>
      <path d="M143.498,384.474 C138.198,380.547 200.944,425.064 205.852,426.466 C263.518,442.943 253.519,397.387 310.5,390.264 C318.012,389.325 352.139,381.64 354.664,391.741 C358.263,406.136 311.786,458.093 303.45,449.5 C284.617,430.086 290.5,445.875 270.5,471.5 C266.296,476.886 235.398,474.1 228.498,472.72 C202.323,467.485 183.353,451.39 161.844,433.466 C152.758,425.895 129.301,369.277 144.498,384.474" fill-opacity="0" stroke="#646464" stroke-width="1" stroke-linecap="round" stroke-linejoin="round"/>
    </g>
    <g>
      <path d="M328.799,308.681 C359.909,287.351 391.792,310.644 398.799,345.681 C406.436,383.862 348.97,409.924 355.799,399.681 C358.046,396.311 357.727,413.968 353.799,418.681 C352.635,420.079 337.75,434.581 334.799,428.681 C332.558,424.199 335.799,408.67 335.799,413.681 C335.799,418.149 325.464,430.345 320.799,425.681 C314.577,419.458 323.033,405.147 321.799,402.681 C321.515,402.111 306.25,410.483 303.799,400.681 C302.006,393.506 307.39,386.244 313.799,383.681 C318.176,381.93 327.799,390.395 327.799,385.681 C327.799,379.964 308.02,362.977 327.799,359.681 C342.933,357.158 337.687,376.643 343.799,378.681 C350.951,381.064 366.118,358.724 367.799,353.681 C369.071,349.866 369.693,342.702 368.799,338.681 C361.967,307.934 341.408,344.924 330.799,340.681 C313.902,333.922 327.809,304.821 338.799,301.681" fill="url(#Gradient_19)"/>
      <path d="M328.799,308.681 C359.909,287.351 391.792,310.644 398.799,345.681 C406.436,383.862 348.97,409.924 355.799,399.681 C358.046,396.311 357.727,413.968 353.799,418.681 C352.635,420.079 337.75,434.581 334.799,428.681 C332.558,424.199 335.799,408.67 335.799,413.681 C335.799,418.149 325.464,430.345 320.799,425.681 C314.577,419.458 323.033,405.147 321.799,402.681 C321.515,402.111 306.25,410.483 303.799,400.681 C302.006,393.506 307.39,386.244 313.799,383.681 C318.176,381.93 327.799,390.395 327.799,385.681 C327.799,379.964 308.02,362.977 327.799,359.681 C342.933,357.158 337.687,376.643 343.799,378.681 C350.951,381.064 366.118,358.724 367.799,353.681 C369.071,349.866 369.693,342.702 368.799,338.681 C361.967,307.934 341.408,344.924 330.799,340.681 C313.902,333.922 327.809,304.821 338.799,301.681" fill-opacity="0" stroke="#000000" stroke-width="1" stroke-linecap="round" stroke-linejoin="round"/>
    </g>
    <g>
      <path d="M174.82,382.67 C176.455,375.71 194.717,418.038 207.82,413.67 C210.425,412.802 204.6,398.62 203.82,396.67" fill="url(#Gradient_20)"/>
      <path d="M174.82,382.67 C176.455,375.71 194.717,418.038 207.82,413.67 C210.425,412.802 204.6,398.62 203.82,396.67" fill-opacity="0" stroke="#646464" stroke-width="1" stroke-linecap="round" stroke-linejoin="round"/>
    </g>
    <g>
      <path d="M248.82,401.83 C248.049,404.842 246.426,421.133 249.82,422.83 C251.531,423.686 271.052,382.83 267.82,382.83 C264.581,382.83 248.068,397.882 244.82,399.83" fill="url(#Gradient_21)"/>
      <path d="M248.82,401.83 C248.049,404.842 246.426,421.133 249.82,422.83 C251.531,423.686 271.052,382.83 267.82,382.83 C264.581,382.83 248.068,397.882 244.82,399.83" fill-opacity="0" stroke="#646464" stroke-width="1" stroke-linecap="round" stroke-linejoin="round"/>
    </g>
  </g>
</svg>
