<?xml version="1.0" encoding="utf-8"?>
<!-- Generator: Adobe Illustrator 14.0.0, SVG Export Plug-In . SVG Version: 6.00 Build 43363)  -->
<!DOCTYPE svg PUBLIC "-//W3C//DTD SVG 1.1//EN" "http://www.w3.org/Graphics/SVG/1.1/DTD/svg11.dtd">
<svg version="1.1" id="Layer_1" xmlns="http://www.w3.org/2000/svg" xmlns:xlink="http://www.w3.org/1999/xlink" x="0px" y="0px"
	 width="1417.32px" height="1984.25px" viewBox="0 0 1417.32 1984.25" enable-background="new 0 0 1417.32 1984.25"
	 xml:space="preserve">
<path d="M1218.291,1217.611c-1.311-0.26-0.838,2.438-2.666,1.463c-8.471-2.316-15.539-6.719-21.664-12.127
	c-9.172-13.695-26.447-17.139-36.699-29.615c-8.455-11.625-19.484-22.137-21.191-37.324c-3.809-5.744-6.84-11.869-9.4-18.236
	c-0.152-1.463-1.264-2.574-2.574-2.955c-3.076-8.912-8.836-16.742-11.746-25.807c-2.939-4.662-5.865-8.441-10.068-11.746
	c-0.381-3.551-5.119-6.75-5.852-11.121c-1.736-0.99-2.346-3.459-3.213-5.287c-5.256-5.742-5.744-15.051-11.746-21.176
	c-0.854-1.949-3.504-2.559-3.932-4.402c-4.98-4.266-2.162-11.137-4.6-16.742c-6.521-17.291-18.646-33.059-27.666-49.344
	c0-9.78-9.811-13.574-15.812-18.83c-13.711-13.848-30.836-24.604-44.652-40.157c-4.174-2.574-8.592-4.783-12.996-6.855
	c-3.305-0.609-6.672-0.868-9.902-1.95c-1.219,0.351-1.994-2.102-2.955-0.381c-2.682-0.73-4.418-2.087-7.342-1.097
	c-8.912-1.706-17.246-2.94-26.799-2.452c-1.6-0.854-3.213-0.122-4.66,0c-19.211,1.6-37.934-2.682-56.992-2.316
	c-5.393,0.976-12.127,0.731-17.275,0.366c-2.59-0.366-6.232-0.366-8.562-1.234c-10.176-0.838-18.846-2.315-29.006-2.94
	c-0.244-0.229-0.381-0.365-0.58-0.609c-13.984-1.233-26.584-5.118-39.41-9.064c-1.843-0.472-2.971-2.559-5.073-2.696
	c-3.062-1.69-5.88-2.422-8.79-4.021c-2.483-0.854-5.164-1.966-7.327-2.682c-2.347,0.838-3.702-2.59-5.896-2.94
	c-4.052-6.855-11.38-6.855-16.148-11.502c0.731-0.99,2.545-1.355,2.438-2.939c-5.012-3.443-12.126-1.479-18.007-2.94
	c-32.51-5.896-57.388-39.305-66.071-49.938c-8.547-15.052-23.126-26.568-35.237-39.046c-8.439-5.256-13.848-14.198-22.653-18.479
	c-5.378,0.609-6.978-5.377-11.137-7.099c-1.843-1.112-3.214,0.975-5.012,0.975c-0.868-3.169-5.637-0.731-7.633-3.55
	c-2.772-0.609-5.058-0.853-6.078-4.402c-9.034-8.455-17.642-16.285-29.144-20.551c-3.55-3.688-12.629-13.544-16.742-11.137
	c2.909,6.962,6.216,14.076,6.216,22.014c-5.394-3.672-16.393-16.636-17.962-16.514c0.838,3.412,4.708,32.769,13.559,39.045
	c3.337,0.488,4.067-4.539,7.358-3.428c-4.021,3.291-21.603,15.158-26.782,22.029c-1.143,1.584-1.493,3.793-1.493,5.515
	c-2.818,3.915-5.393,8.196-8.439,11.746c-3.778,1.722-7.709,4.769-11.548,6.489c-4.356,0-6.84,3.778-11.121,3.169
	c-13.681,5.759-25.426,13.589-37.309,22.653c0,3.656,3.275,5.987,4.646,8.806c1.097,2.209,1.493,3.062,3.29,4.769
	c-0.822,2.94,4.556,3.184,4.692,6.353c6.216,3.565,10.847,8.958,18.814,7.983c6.231-2.469,8.212,8.805,14.351,5.256
	c2.057-0.99,3.764,2.071,4.769,0c10.74,2.315,22.882-1.95,34.034,0.365c1.584,0.365,2.925,0.625,4.372-0.365
	c1.6,2.071,4.524,0,6.505,0.594c0.822,1.234,2.682,1.234,4.418,1.234c2.422,0.609,1.188,3.184,2.27,4.661
	c4.57,4.403,12.051,24.36,12.63,27.879c3.29,7.114,1.843,16.058,5.408,22.897c2.94,0.609,1.112-3.778,2.94-4.891
	c2.315,6.109,1.325,13.087,1.935,19.607c-0.092,1.827,1.722,0.35,2.452,0.35c2.194,10.877,2.575,23.263,4.646,34.628
	c2.331,1.097,1.737,3.915,2.331,5.88c3.062,0.244,1.585,4.037,2.696,5.865c1.479,2.575-1.111,8.181,3.764,7.571
	c1.371,8.212,1.995,16.804,2.955,24.985c0.487,0.244,0.884,0.366,1.463,0.366c0.868-0.122,2.955-0.731,2.087-1.828
	c1.965-4.388,2.544,12.477,5.865,15.676c1.843,0,1.462-2.438,2.346-3.58c1.463-0.731,0.944,1.492,2.315,1.143
	c0.884,3.549,6.855,23.369,10.283,29.707c2.209,0.99,4.175-0.838,5.027-0.609c0,5.529,6.719,5.408,6.719,10.527
	c-3.687-2.072-5.606-6.354-9.918-6.963c0.625,3.396,16.194,82.92,15.555,147.104c-5.073,52.451-23.507,71.707-23.888,71.707
	c0.152,2.941-34.506-1.279-26.873,28.535c0.076,1.477,12.218,4.281,17.229,4.037c2.514-9.354,11.868-14.199,17.627-15.311
	c2.071,0.715,4.418-1.326,5.605,0.609c-3.899-0.717-6.337,2.59-10.283,2.346c-5.621,4.006-10.618,10.283-11.456,17.611
	c0.487,2.818,0.198,6.992,3.291,7.709c7.449,8.82,35.892,10.068,49.923,1.111c5.149-8.105,40.676-43.602,42.229-54.326
	c3.306-13.711,7.571-27.314,10.009-41.133c0.138-2.086,2.103-3.443,1.493-5.881c1.463-10.055,6.262-19.59,7.328-30.225
	c2.59-2.438,1.843-6.643,4.037-9.08c4.052-14.533,9.079-27.27,16.164-40.492c1.204-1.721,0.381-4.402,2.682-5.393
	c2.803-12.615,13.01-18.465,15.966-30.834c1.447-4.891,1.538-10.771,2.285-15.799c2.468,2.939,1.462,8.318,0.853,11.41
	c0.138,2.789-3.915,4.266-2.696,7.068c4.312,0.504,24.862-0.852,29.737,1.479c0.274-1.844-0.716-5.148,0-5.621
	c6.993,0.594,15.646,0.975,22.304,4.143c0.242-0.258,9.23-10.359,18.844-6.459c4.77-6.139,13.209-6.246,19.941-6.748
	c0.824-1.326,4.312-12.248,17.018-9.43c0.609-2.195,6.719-15.768,18.83-12.6c2.209-0.975,13.07-16.865,25.594-1.479
	c2.682,7.861,16.27,56.627,47.484,97.195c7.207,15.418-6.961,27.301-11.744,40.021c-1.844,6.49-6.979,11.975-8.822,18.221
	c-9.398,12.994-13.299,28.746-25.455,40.143c-4.785,5.027-31.979-0.732-28.52,28.518c-1.965,4.541,4.053,1.828,5.271,4.785
	c0.486,0.486,1.447,0,1.219-0.609c4.053,0.09,7.189,3.412,11.746,2.574c4.037-2.574,9.43,1.324,13.496,0
	c1.143-0.381,7.68,0,8.531-1.736c2.104-0.961,3.947-3.186,5.896-4.404c7.068-6.855,14.32-12.369,22.516-17.854
	c0.838,0.381,1.707,0.229,2.469-0.381c-0.396-2.545,4.51-3.047,2.285-6.75c1.479-2.924,1.98-5.971,3.777-9.033
	c0.291-4.678,4.662-15.189,7.344-15.676c1.25-4.145,3.459-7.084,5.287-11.121c8.697-12.492,15.066-27.545,26.203-39.031
	c2.939-7.252,9.293-11.166,11.135-19.135c1.951,0.641,25.58,14.977,34.035,25.594c5.117,4.785,4.996,13.498,2.666,19.348
	c0.852,2.561-1.357,4.389-1.219,7.1c-0.748,1.113-4.51,23.004-7.846,33.166c-0.229,5.256-1.828,10.756-4.145,15.539
	c-0.152,4.92-3.307,8.455-5.059,12.598c-1.676,1.357-3.518,1.357-5.484,2.104c-2.543-0.99-5.879-0.609-8.545-0.244
	c-2.805,0-4.312,2.072-6.75,3.168c-3.656,5.271-10.77,8.822-9.17,16.758c0.746,4.176,4.279,7.861,7.982,9.08
	c7.084,3.672,14.777,5.135,23.461,4.418c2.361-3.596,6.871,0,9.201-3.199c5.377-5.514,12.096-9.795,17.627-14.93
	c2.33,0.365,3.289-2.574,4.875-3.93c0.746-0.732,0.746-2.682,2.438-2.301c0.762-2.24,2.971-4.311,3.809-6.748
	c-0.367-5.881,1.842-10.908,1.461-16.393c3.338-8.684,5.379-17.855,7.375-27.041c2.895-9.445,7.068-19.455,8.789-29.145
	c4.662-12.369,10.496-24.48,14.107-36.973c0.959-4.77,4.51-9.797,1.463-14.672c-10.42-7.83-85.83-91.055-58.5-141.617
	c0.092,4.539-2.377,9.535-1.463,14.092c-1.98,4.402,0,10.039,0.609,14.686c4.51,6.109,0.945,13.816,4.387,20.566
	c1.707-0.609,2.529-2.818,4.389-3.199c2.346,1.355,1.6,4.768,2.955,6.992c1.066,1.082,2.316,1.691,3.777,0.609
	c4.51,6.215,5.881,13.59,7.709,20.932c1.951,6.354,3.199,13.59,7.602,18.465c-0.746,4.037,3.779,4.418,2.957,8.455
	c2.543,1.111,2.178-1.844,4.113-2.332c-0.352-2.086,1.842-1.219,2.086,0c1.25,2.225,0.732,6.125,3.809,6.49
	c0.746-0.609,0.746-2.438,2.072-2.711c2.072,4.691,5.148,9.445,7.344,14.197c2.314,0.123,0.273-2.543,1.705-3.289
	c1.355,1.355,1.006,3.289,1.479,5.012c4.904,14.213,16.406,25.594,17.383,41.361c0,4.904,1.965,8.211,3.809,12.369
	c2.559-0.959-0.123-4.021,1.096-6.123c2.072,0.137,2.072,3.32,4.174,3.533c1.447-1.066,4.51-5.697,4.633-7.936
	c2.346,5.164,4.646,10.525,8.348,14.943c2.164,1.219,3.535-2.467,4.006-2.59c1.113-2.438,3.672-0.365,4.418,1.113
	c1.066,1.844,0.732,4.523-0.867,5.881c0.258,1.477,2.346,0.975,3.564,1.477c1.234,4.891,5.24,8.074,7.938,12.096
	c1.371,1.967,1.844,5.15,4.434,5.896c0.623-1.127,1.676-0.365,1.676-1.844c1.371-0.258,2.467-3.184,4.174-0.854
	c0.244,1.57,3.672,2.332,3.443,4.662c1.461,0.961,3.289,0.961,5.012,0c2.453,2.926,3.443,7.191,5.256,10.254
	c6.977,3.67,1.949-7.084,7.709-8.426c1.705,1.57,3.061,4.525,4.996,5.881c1.264-0.381,1.844-1.25,2.605-2.346
	c4.281-1.828,4.281,3.533,7.342,4.891c3.199,1.584,5.713-4.77,7.725,0c0.975-0.139,2.498,0.746,3.154-0.854
	c1.355-1.584,4.051-0.717,5.256,0.381c0.852,3.656,3.32,0.854,5.926,1.691c0.549-0.961,0.93-2.072,2.025-2.91
	c4.662,1.949,8.35-1.98,12.387-3.564c2.574,0.73,4.266-1.098,6.488-1.691C1217.117,1220.186,1218.076,1219.332,1218.291,1217.611z"
	/>
<path d="M346.953,1166.747c-0.52,0.228-1.055,0.474-1.598,0.731c1.009-0.375,2.035-0.749,3.059-1.11
	C347.929,1166.495,347.436,1166.619,346.953,1166.747z"/>
<path d="M348.415,1166.368c3.867-1.009,7.79-1.993,11.662-3.038C357.313,1163.456,352.883,1164.792,348.415,1166.368z"/>
<path d="M1228.67,1885.748c1.121-19.025-8.592-31.846-9.787-47.982c0.748-1.025,2.74-2.619,2.565-3.038
	c-5.479-2.569-6.599-9.991-6.399-18.259c3.236-0.646-0.25-2.36,3.411-3.387c-1.569-2.59-3.112-5.08-4.657-7.64
	c-3.486-11.256-0.945-21.894-2.564-34.444c0.324-1.992,0.572-3.984,0.871-5.977c-0.697-2.112-1.443-4.154-2.116-6.346v-0.398
	c0.573-0.199,1.12-0.328,1.669-0.448c1.817-5.159-3.91-19.872-2.988-28.04c0.821-6.654,3.81-27.691,2.191-31.904
	c-7.172-18.029-35.412-31.775-31.428-53.988c0.35,0.179,0.797,0.328,1.246,0.478c0.1,0.448,0.248,0.866,0.423,1.265
	c1.245,3.486-1.12,9.016,0.821,11.884h0.424c0.822-1.693-0.074-1.096,1.668-0.827c0.648,2.641,1.32,2.84,2.988,4.234
	c0.199-2.391,0.25-4.832,0.449-7.192h0.447c0.1,1.216,0.299,2.49,0.424,3.785h0.373c0.125-1.872,0.199-2.421,0.872-3.337h0.423
	c0.697,2.51,1.445,5.1,2.143,7.59h0.423c-0.374-10.528-5.056-17.003-5.977-27.163h0.423c0.449,0.249,0.896,0.548,1.32,0.817
	c0.572,2.092,1.121,4.232,1.668,6.354h0.449c0.124-2.391,0.248-4.761,0.447-7.172h2.092v0.817c1.395,2.988-0.921,6.225-0.423,9.811
	c0.673,5.011,5.056,9.861,5.901,18.657h0.449c0.199-1.524,0.299-3.118,0.447-4.612c0.25,0.1,0.598,0.229,0.848,0.379
	c0.447,2.291,0.896,4.532,1.244,6.823c0.896-0.478,1.744-0.847,2.565-1.245c0.821-10.189-3.661-29.733,0.821-35.342v0.877
	c0.922,2.241,1.793,4.502,2.59,6.744h0.449v-2.092c2.291,0.945,2.291,3.067,3.785,4.682c-3.338-9.085-6.824-18.129-10.211-27.164
	h0.449c0.199,0.299,0.299,0.548,0.447,0.816c1.793,3.088,3.661,6.227,5.529,9.394c-2.689-8.696-5.354-17.312-8.094-25.978h0.424
	c0.148,0.328,0.248,0.598,0.447,0.896c2.541,4.113,5.105,8.197,7.67,12.281c-2.564-11.854-13.197-18.926-15.763-30.979h0.423
	c0.947,0.647,1.992,1.365,2.988,2.111c-3.088-5.229-6.475-9.931-8.068-16.555c0.424,0.249,0.797,0.518,1.246,0.816
	c0.423,0.996,0.846,1.992,1.295,2.988h0.447c-1.145-3.436-2.315-6.822-3.436-10.209c0.871,0.428,1.693,0.876,2.539,1.274
	c-1.096-2.271-2.24-4.513-3.411-6.823v-0.379c0.673,0.25,1.419,0.498,2.116,0.848v-1.744c-3.535-2.012-2.116-10.777-1.693-12.72
	c0.573,0.567,1.195,1.146,1.693,1.663c-0.498-3.605-2.365-6.773-0.797-10.18c0.797,0.17,1.669,0.349,2.541,0.418
	c-0.872-6.523-1.744-12.998-2.541-19.523c2.092,1.992,4.234,3.984,6.326,5.957v-3.835h2.639c-0.498-0.398-0.896-0.847-1.319-1.245
	c-1.618-2.241-3.112-4.582-4.657-6.823v-0.429c1.844,0.578,3.661,1.146,5.479,1.744c-0.996-3.287-1.992-6.545-2.938-9.782h0.373
	c2.117,1.216,2.664,2.61,4.309,2.112h-0.896c-1.42-3.258-2.84-6.525-4.234-9.812h3.387c-1.992-4.054-3.934-8.168-5.926-12.271
	c3.287,0.747,3.61,2.64,5.926,4.233c-0.148-0.996-0.248-1.992-0.398-2.968c1.146,0.646,0.996,1.096,2.143,0.846
	c-3.562-4.552-3.936-11.126-5.977-17.401c1.295,0.797,2.539,1.644,3.834,2.511c-0.299-1.415-0.598-2.859-0.846-4.283h0.423
	c0.673,0.447,1.419,0.926,2.067,1.295c-1.195-2.71-2.565-4.135-2.939-7.641c0.549-0.129,1.121-0.299,1.693-0.428
	c-0.821-1.693-1.693-3.407-2.564-5.101h1.743c-0.996-1.992-1.992-3.935-2.988-5.927h0.423c0.449,0.199,0.822,0.548,1.246,0.867
	c-0.673-2.59-1.42-5.15-2.092-7.67c1.543,0.846,3.088,1.693,4.73,2.52c-0.398-0.249-0.646-0.578-0.896-0.826
	c-0.672-5.279-6.076-12.123-2.988-18.727c0.449,0.299,0.822,0.598,1.246,0.846c-1.42-4.73-3.836-7.889-4.234-13.994h0.449
	c1.195,1.274,2.291,2.52,3.361,3.785c-0.996-2.242-1.992-4.503-2.914-6.744c0.1-0.199,0.25-0.279,0.35-0.448
	c0.896,0.697,1.742,1.415,2.564,2.112c-1.619-4.732-3.062-11.256-5.105-16.556c0.623,0.12,1.121,0.249,1.744,0.419
	c-4.234-6.227-13.199-23.857-14.443-31.447c0.697-0.279,1.443-0.527,2.116-0.847c-6.798-2.44-5.229-8.965-8.093-12.78
	c-4.533-4.353-9.016-8.766-13.572-13.118h2.49c-1.494-1.743-3.062-3.417-4.607-5.13c0.449-0.627,1.37-0.647,0.449-0.847
	c-3.188-3.118-6.475-4.562-8.965-8.497v-0.418c0.598,0.17,1.096,0.299,1.742,0.418c-4.184-3.088-8.292-6.245-12.352-9.363
	c0.324-0.269,0.573-0.518,0.822-0.846c-4.855-0.498-13.945-7.093-12.277-9.762c-4.83-0.449-17.531-5.33-17.033-9.384v-0.378
	c-2.889,0.577-4.482,1.045-4.232-1.744v-0.368c-5.803,0.199-32.025-9.542-31.875-11.505c-7.223,0.05-6.475-2.021-12.775-2.969
	c0.424-0.547,0.871-1.145,1.32-1.663c-2.242,0.12-4.558,0.249-6.873,0.398c0.447-0.528,0.896-1.146,1.244-1.693
	c-0.1-0.13-0.174-0.299-0.348-0.448c-2.143,0.318-4.234,0.617-6.375,0.816c0.697-0.816,1.395-1.643,2.141-2.49
	c-2.391,0.598-6.125,1.545-8.117,0c0.447-0.767,0.896-1.414,1.319-2.161h-8.093c-0.125-0.079-0.25-0.249-0.449-0.398
	c0.324-0.847,0.573-1.724,0.896-2.569h-0.447c-3.238,0.945-9.912,0.598-11.455-2.511c-2.291,1.116-4.533,2.241-6.773,3.356
	c-0.199-0.248-0.398-0.518-0.498-0.846c0.498-0.996,0.846-1.992,1.295-2.959v-0.448c-8.02,0.319-8.268,1.017-14.443,3.407
	c0.248-0.996,0.547-1.992,0.871-2.959c-5.354,2.44-10.883,6.076-17.432,7.67c-15.613,3.756-34.041,1.494-47.639,5.498
	c-4.084,1.195-17.605,5.729-17.356,0c-3.411,1.823-6.849,3.686-10.21,5.559c-4.482,1.395-33.992,4.254-34.863,3.805
	c-2.564,0.748-4.309,2.072-8.094,2.072c0.125-0.578,0.299-1.076,0.449-1.644c-4.558,1.065-13.273,4.931-17.881,1.644
	c-20.221,8.637-58.072,10.21-84.967,8.965h-30.131v-2.142c-11.406,1.415-29.584,3.157-38.674-2.49
	c-3.312,0.368-6.549,0.817-9.787,1.195c-6.275-2.919-18.602-1.175-25.5-3.785c0.1-0.847,0.299-1.743,0.35-2.569
	c-6.725,0.697-12.701,3.586-19.475,2.988c0.25-0.896,0.549-1.693,0.872-2.541c-6.3,0.628-12.028,1.923-17.058,0.848v-2.959
	c-3.686,1.166-6.674,2.092-11.406,2.111c-0.174-0.598-0.348-1.145-0.498-1.693c-1.344,0.549-2.789,1.096-4.283,1.693
	c-3.984-0.598-8.217-1.145-12.201-1.693c-11.829,0.25-23.533,0.549-35.312,0.848c0.075-3.586,1.146-4.234,2.067-6.824
	c-4.233,2.988-8.093,7.67-14.368,8.518c-0.199-0.17-0.25-0.299-0.449-0.469c0.199-3.268,1.295-4.861,2.541-7.172
	c-1.594,0.816-3.163,1.664-4.732,2.561c0.573-1.266,1.195-2.561,1.744-3.855c-3.661,1.544-5.653,4.482-9.762,5.13
	c-0.623-1.644-0.299-1.524-1.744-0.478c-3.236,1.344-4.855,3.436-9.264,3.814c-0.323-0.1-0.572-0.229-0.896-0.379v-0.447
	c0.573-1.545,1.071-3.059,1.693-4.682c-1.12,0.697-2.24,1.443-3.361,2.171c0.373-2.171,0.822-4.283,1.245-6.405
	c-0.124-0.119-0.249-0.248-0.423-0.418c-4.932,1.345-12.775,11.176-17.432,6.346v-0.419c3.734-4.831,7.471-7.67,9.388-14.024
	c-0.323,0.129-0.573,0.328-0.872,0.478c-1.244,2.81-4.482,6.345-7.221,7.62v-0.428c0.871-2.511,1.742-5.08,2.49-7.67
	c-5.031,3.734-8.916,9.293-16.137,10.638c-0.25-0.548-0.549-1.096-0.797-1.693c-1.992,0.718-3.984,1.444-5.977,2.142v-0.448
	c4.531-4.661,9.089-9.313,13.571-14.024c-6.399,3.117-9.712,9.861-16.934,12.779v-0.448c4.806-5.777,9.587-11.604,14.368-17.411
	c-8.467,3.984-13.197,13.875-21.166,17.859c2.191-6.674,9.164-10.907,13.148-16.187c-4.482,3.606-9.09,7.122-13.572,10.658v-0.448
	c1.918-2.57,3.91-5.08,5.977-7.65c-2.066,1.295-4.059,2.57-5.977,3.815v-0.398c5.479-7.321,11.828-7.052,17.008-12.331
	c-2.938,1.025-5.678,1.992-8.615,2.938c0.199-0.398,0.323-0.816,0.498-1.265c-6.227,2.81-8.766,9.812-14.443,12.8
	c2.639-8.118,11.604-15.221,16.51-21.695c-11.131,4.363-13.521,17.711-25.898,21.217v-0.368c4.408-4.86,8.791-9.642,13.198-14.474
	c-5.403,4.832-10.782,9.613-16.112,14.474v-0.478c2.242-3.387,4.482-6.794,6.773-10.211c-4.682,3.836-8.018,8.796-13.148,12.332
	v-1.275c1.246-2.639,2.565-5.349,3.811-8.018c-1.867,0.826-3.66,1.643-5.479,2.52c4.482-6.126,11.58-9.114,17.432-14.025
	c-0.747-1.543-0.996-1.165,0-2.51c1.245-2.54,3.811-3.416,5.902-5.16c-1.42,0.15-2.789,0.329-4.283,0.449
	c2.539-1.445,5.104-2.81,7.67-4.234c-2.689,0.678-5.43,1.425-8.044,2.122c0.821-0.996,1.669-1.992,2.565-3.019
	c1.244-0.846,2.539-1.663,3.785-2.49c-16.885,1.096-23.707,14.324-35.66,20.002v-0.479c0.498-0.816,1.045-1.713,1.668-2.59
	c-0.125-0.1-0.324-0.219-0.424-0.368c-2.141,0.847-4.232,1.693-6.375,2.511c0.15-0.27,0.25-0.519,0.449-0.817
	c3.609-1.65,16.571-17.521,22.93-21.666c-3.271-0.479-30.162,12.757-34.012,15.261c0.324,0.35,0.498,0.549,0.822,0.848
	c0.846-0.668,1.742-1.395,2.59-2.112c-0.299,0.598-0.549,1.146-0.848,1.743c-1.244,3.188-3.734,4.98-7.221,5.927v-0.448
	c1.668-1.544,3.411-3.117,5.08-4.662c-0.299-0.299-0.598-0.567-0.848-0.816c-1.941,1.345-3.561,3.237-5.553,3.337
	c-1.668-12.103,5.154-17.282,10.21-23.786c-2.067,1.424-4.233,2.868-6.351,4.263v-0.398c3.736-5.509,8.343-9.94,12.252-14.921
	c-0.921,0.478-1.917,0.876-2.988,1.274c0.697-1.274,1.195-2.54,1.744-3.765c-5.279,3.088-8.068,8.865-13.996,11.435
	c1.445-3.267,2.864-6.475,4.234-9.741c-0.25,0.129-0.549,0.248-0.872,0.428c-3.163,9.234-11.38,15.888-18.677,21.188
	c1.494-2.66,2.863-5.379,4.233-8.02c-0.124-0.148-0.175-0.318-0.374-0.447c-2.291,1.693-4.531,3.416-6.773,5.08v-0.398
	c2.043-4.383,4.234-8.816,6.326-13.169c-0.424,0.269-0.848,0.519-1.246,0.847c-2.34,4.104-4.582,8.139-6.822,12.322h-0.398v-0.867
	c-2.242-5.807,12.027-21.445,14.443-27.223c1.244-0.07,2.49-0.199,3.81-0.369c-1.743-0.199-1.618-0.18-2.565-0.896
	c0.15-0.548,0.324-1.096,0.449-1.674c-3.188,1.793-6.849,4.264-12.75,2.57v-0.428c1.842-1.863,3.66-3.686,5.527-5.549
	c2.117-1.822,4.234-3.636,6.351-5.508c-5.977,2.49-9.638,7.799-14.519,11.484c-2.539-0.299-4.98-0.578-7.57-0.896v-0.379
	c3.088-1.145,6.227-2.291,9.389-3.406c-1.42-0.199-2.863-0.249-4.357-0.448c2.738-1.673,5.428-3.417,8.168-5.08
	c-2.565,0.817-5.131,1.663-7.67,2.54v-0.448c2.439-1.673,4.781-3.366,7.221-5.11c-2.689,1.195-5.354,2.321-8.093,3.438
	c1.171-2.242,3.486-2.959,5.104-4.682c-1.992,0.846-3.934,1.693-5.977,2.569c2.441-3.237,4.856-6.524,7.223-9.792
	c-3.785,3.965-7.596,7.949-11.455,11.904h-2.988c0.199-0.419,0.299-0.867,0.498-1.246c1.618-2.24,3.436-4.582,5.029-6.822
	c-2.539,3.117-5.029,6.225-7.57,9.312c-4.631,2.819-11.156,3.666-15.763,5.529c-0.872-0.419-1.743-0.848-2.565-1.216
	c0.15-0.299,0.324-0.647,0.398-0.896c2.84-0.498,5.33-1.923,6.773-3.785c-4.98,0.797-11.455,1.644-17.381,0.797
	c-0.1-0.278-0.25-0.528-0.424-0.797c1.867-1.843,3.735-3.716,5.479-5.558c-2.49,1.842-5.055,3.715-7.596,5.558
	c-19.373-2.938-25.4,0.448-38.225,6.743v-0.398c6.648-13.945,12.377-12.072,23.334-20.42c-7.322,1.295-12.252,6.355-18.229,8.965
	c3.828-6.542,13.103-12.755,20.516-16.271c-6.093,2.266-11.548,4.57-12.049,4.349c2.191-1.573,4.232-3.088,6.35-4.682
	c-12.576,2.062-16.561,14.892-24.155,16.157c-0.374-0.419-0.573-0.797-0.872-1.266c1.295-8.447,6.351-11.734,11.082-16.564
	c-2.166,0.248-1.818,1.523-2.166-0.449c-2.689,2.321-5.379,4.562-8.044,6.804c0.573-2.241,1.12-4.482,1.669-6.804h-0.35
	c-1.195,1.844-2.391,3.716-3.436,5.578h-0.498v-0.468c1.195-3.138,1.941-5.628,4.682-7.222c0.996,2.191,7.021-4.383,9.388-5.528
	c1.817,1.116,0.996,0.548,3.411,0.847c-0.248-2.869,1.569-3.316,3.438-5.109c-0.199-0.25-0.299-0.568-0.498-0.848
	c-3.238,0.598-6.525,1.126-9.762,1.724c1.917-3.716,6.275-5.479,9.388-8.068c-2.864,0.519-5.728,1.096-8.542,1.663v-0.418
	c3.139-3.965,6.176-7.919,9.414-11.834c-4.98,2.242-7.471,8.367-11.953,10.589c-2.291,0.269-4.533,0.519-6.773,0.847
	c2.415,0.02,2.838,0,3.785,0.816c-0.697,1.176-1.37,2.242-2.043,3.417h-9.039v-0.378c3.062-3.158,5.977-6.296,9.039-9.414
	c-2.639,1.893-5.18,3.716-7.719,5.559h-5.877c0.199-1.723,0.498-3.437,0.746-5.08c-1.17,0.469-0.598,0.349-1.668,0.398
	c-0.672-9.762-5.803-7.57-2.988-19.573c-2.117,1.544-2.664,3.835-5.105,5.101c-0.871-1.395-1.693-2.84-2.539-4.234
	c1.842-4.232,3.734-8.486,5.527-12.72c-3.686,1.743-8.093,8.019-9.711,11.854c-2.441-1.245-3.936-0.13-6.849,1.245v-1.644
	c-0.323,0.667-0.573,1.395-0.872,2.112c-12.65,2.689-11.828,17.61-19.548,24.205v-7.156c-0.069,4.235-0.655,9.693-2.565,11.838
	c-0.547-0.598-0.423-0.718-1.244-1.246c-0.1,0.678-0.299,1.395-0.35,2.122v-0.876c-3.885-4.553-4.682-12.571-5.627-19.973v-10.16
	c-0.35,1.943-0.848,3.936-1.246,5.907h-0.423c-0.573-8.367-1.12-16.714-1.743-25.132v22.592c1.17,7.143,4.656,22.163,1.743,29.754
	c-0.498-0.299-0.872-0.598-1.245-0.848c-1.743-7.869-0.922-18.576-3.811-24.623c-0.174,0.847-0.299,1.644-0.498,2.51h-0.348
	c-0.822-4.133-1.494-8.217-2.191-12.271v10.16c-0.125-0.279-0.25-0.578-0.374-0.826c-0.673-2.411-1.494-4.832-2.167-7.223h-0.398
	c0.15,2.391,0.199,4.812,0.398,7.223c-0.199-0.299-0.248-0.598-0.398-0.867c-0.299-0.697-0.547-1.424-0.846-2.121h-0.449
	c1.121,8.715,7.422,17.461,4.682,28.039c-0.572-0.468-1.145-0.866-1.693-1.265c-0.447-5.927,0.051-10.19-1.295-15.319h-0.398
	c0.398,2.32,1.494,5.627,0.398,8.098h-0.398c-1.543-6.226-3.088-12.451-4.73-18.727h1.319c0.323,1.295,0.498,2.59,0.872,3.855
	c-0.25-4.434-1.195-14.643,1.244-16.137c0.125,0.398,0.25,0.876,0.449,1.244c-0.449-4.353-0.896-8.785-1.32-13.248
	c-0.822,3.287-1.619,6.574-2.564,9.812c-0.051,2.738,2.889,8.247,0.447,11.534c-0.124-1.594-0.299-3.167-0.447-4.682h-0.424
	c-0.125,14.692,3.412,24.305,3.859,39.964h-1.244c-1.445-5.131-2.939-10.211-4.283-15.34c-0.748,1.344,0.248,0.926-1.246,0.876
	c0.996,4.104,1.918,8.218,2.914,12.302c0.922,5.479-1.918,6.674-1.245,9.781c-11.455-3.686-46.991-40.342-51.872-52.244
	c-0.846,0.129-1.594,0.199-2.49,0.398v-3.387c-2.913,0.398-8.217-6.076-7.645-8.537c-2.316,0.398-2.739,0.816-3.811-0.847
	c-0.174-0.827-0.299-1.673-0.498-2.521c-1.793,0.628-1.668,1.096-2.913-0.398c-0.175-1.195-0.323-2.261-0.423-3.436
	c-0.996,0.378-1.992,0.846-2.988,1.244c-0.25-1.115-0.573-2.24-0.896-3.356c-0.673,0.419-1.346,0.847-2.043,1.245
	c-2.614-1.942-5.727-2.789-7.719-5.479c-1.545,1.066-4.533,1.544-4.682,1.664c-1.992,1.772-3.088,4.482-5.977,4.283
	c-0.175,2.52-0.498,5.08-0.797,7.6c-2.117,0.398-1.246-0.279-2.117,1.345c0.672,0.996,1.245,1.295,2.117,2.042
	c-0.449,0.598-0.872,1.195-1.246,1.743c-0.697,0.12-1.443,0.249-2.116,0.448c0.747,0.967,1.618,1.912,2.49,2.959
	c0.423,0.278,0.872,0.577,1.319,0.797c-0.447,1.594-0.896,3.188-1.319,4.711c1.319-0.398,2.565-0.877,3.86-1.275v2.143
	c-0.797,1.643-1.295,1.295-0.797,2.121c0.672,0.418,1.344,0.847,2.041,1.245c-0.697,0.269-1.369,0.598-2.041,0.866
	c0.049,0.299,0.174,0.549,0.348,0.848c2.391,0.996,4.807,1.992,7.223,2.988v0.398c-2.043,0.299-3.088,0.677-4.234,1.723
	c1.645,0.149,3.387,0.27,5.131,0.448c-1.146,0.966-2.316,1.942-3.486,2.958c1.17,0.13,2.34,0.25,3.486,0.398
	c-0.947,2.222-0.748,2.57,2.913,2.988v0.848c0.573,1.723-0.323,2.37-0.821,4.232c0.945,0.628,1.992,1.126,2.938,1.724
	c-0.248,3.337-0.049,4.403-1.693,6.773c2.067,0.319,3.984,0.567,5.977,0.917v1.244c-0.797,1.645-1.668,3.387-2.539,5.11h0.871
	c1.245,0.269,2.564,0.519,3.811,0.817c-0.573,1.922-0.947,1.822-2.143,2.968c1.246,0.12,2.565,0.319,3.811,0.468
	c-0.424,1.096-0.871,2.242-1.245,3.338c3.909,0.527,6.55,5.926,8.093,7.251c8.343,7.371,17.059,11.923,13.572,28.06h-0.373
	c-0.623-0.547-1.195-1.145-1.793-1.742c-0.324,2.49-0.748,2.539-2.143,3.864c-0.423-0.13-0.797-0.299-1.244-0.429
	c-0.673-1.145-1.346-2.24-2.092-3.436c-1.246,1.922-1.071,3.167-3.811,2.539c-0.498,2.321-0.871,4.562-1.32,6.873
	c-3.66,1.047-2.789,1.425-5.527,3.785c-1.121-0.398-2.242-0.866-3.362-1.265c-0.124,3.308-1.071,4.931-2.988,6.425
	c-2.241-0.678-3.112-1.444-4.657-2.59c0.175,1.793,0.299,3.656,0.424,5.498c-1.619-0.646-3.062-1.395-4.656-2.092
	c0.423,2.242,1.295,4.234,0,5.928c-0.748-0.27-1.445-0.598-2.143-0.848c-0.174,2.321-0.174,2.342-1.344,3.387
	c-1.494-0.547-3.063-1.145-4.633-1.663c0.449,2.112,1.146,2.61,0,4.253h-1.295c0.299,1.096,0.549,2.242,0.947,3.387
	c-0.947-0.447-1.744-0.896-2.641-1.295c0.398,2.143,0.398,2.72-0.423,4.264h-0.374c-1.045-1.025-2.041-1.992-3.037-2.969
	c0.672,3.537,3.66,6.574,3.037,9.314c-0.299,0.447-0.622,0.876-0.871,1.324c-1.867-0.349-3.735-0.578-5.553-0.877
	c1.07,1.126,1.992,2.291,2.988,3.417c-1.171-0.299-2.242-0.598-3.412-0.896c0.996,1.165,1.992,2.291,2.914,3.407
	c-1.346,0.129-2.789,0.328-4.159,0.447c0.175,0.279,0.249,0.598,0.374,0.848c1.742,0.577,3.436,1.145,5.18,1.673
	c-3.736,5.249-5.056,14.692-8.119,18.747c-0.846-0.12-1.668-0.299-2.539-0.449c0.871,1.346,1.045,1.494,1.295,3.815
	c-0.922,0.548-1.744,1.146-2.541,1.743c0.549,0.548,1.047,1.066,1.619,1.644c-0.822,1.017-1.619,2.013-2.49,3.009
	c1.867,0.598,0.871-0.299,1.668,1.225c-1.992,3.387-3.088,7.521-3.834,12.352c-1.693-0.029-0.748-0.349-2.067,0.896
	c1.245,6.275-5.554,21.416-6.849,28.389c-3.859,20.34-11.256,31.626-19.922,46.318c-5.354,9.035-8.093,18.896-13.197,27.711
	c-5.977,10.26-12.252,19.324-14.443,33.52c-2.242,14.572,15.688,53.539,22.91,59.048c5.852,4.482,21.117,11.026,25.15,0.468h0.374
	c2.614,16.635,37.603,19.305,51.872,10.589c7.645-4.661,4.656-12.431,8.965-20.818c1.594-2.092,3.287-4.233,5.029-6.354
	c0.299,0.398,0.498,0.846,0.797,1.274v2.988c1.693-1.274,1.992-2.142,4.309-1.743c0.174,1.016,0.324,1.992,0.373,3.008
	c0.623-0.447,1.195-0.816,1.744-1.265c1.369-6.026,3.486-8.467,7.67-11.505h0.348c0.199,1.016,0.324,1.992,0.498,3.008
	c0.25-0.199,0.498-0.318,0.822-0.468c1.668-4.233,5.479-6.524,8.965-8.896c0.125,1.395,0.249,2.819,0.373,4.283v-0.896
	c0.872-1.812,1.744-3.635,2.541-5.498c1.742,1.115,3.436,2.241,5.129,3.357v-0.817c0.424-1.972,0.848-3.964,1.246-5.956
	c0.299,0.129,0.598,0.299,0.846,0.428c0.697,1.444,1.195,1.793,2.565,2.561c0.573-3.557,1.171-7.123,1.669-10.579
	c0.447,0.199,0.896,0.498,1.244,0.797c1.195,1.265,2.391,2.54,3.438,3.806v-4.234c2.291,1.295,4.606,2.541,6.848,3.815
	c-1.17-1.872-2.241-3.686-3.412-5.509c0.175-0.299,0.299-0.598,0.498-0.866c3.287,0.368,3.537,1.793,5.828,2.988
	c-0.1-1.724-0.299-3.366-0.35-5.11c0.996,0.578,1.918,1.076,2.914,1.744c-0.672-1.744-1.369-3.438-2.066-5.15
	c1.643,0.598,3.436,1.195,5.055,1.713c-1.867-2.261-3.486-3.157-3.811-7.221c0.324,0.129,0.498,0.248,0.822,0.398
	c1.07,1.195,2.066,2.291,2.988,3.436c-0.249-1.265-0.572-2.59-0.822-3.834c3.686,0.248,4.558,1.772,7.172,2.988
	c-0.996-2.76-1.618-3.507-3.785-5.101c0.175-0.278,0.299-0.598,0.424-0.876c3.312-1.047,4.557-1.146,7.645,0
	c-0.423-1.146-0.846-2.291-1.244-3.387c0.697-0.319,1.395-0.568,2.066-0.848c2.166,1.744,3.113,4.184,5.154,5.977
	c-1.045-6.275,2.988-8.935,1.32-15.289c1.07,0.677,2.241,1.374,3.312,2.071c-0.398-1.693-0.748-3.387-1.246-5.08
	c1.171,0.567,2.242,1.096,3.412,1.693c-0.324-0.478-0.623-0.847-0.871-1.245c-1.494-2.32-3.188-4.562-4.607-6.823
	c0.174-0.398,0.572-0.876,0.747-1.274c0.323-0.12,0.622-0.319,0.872-0.369c3.436,0.02,4.108,1.365,5.479,1.644
	c0.299-0.577,0.622-1.146,0.945-1.644c0.424,0.498,0.848,1.066,1.246,1.644c0.174-0.278,0.299-0.577,0.348-0.876
	c0.697-1.365,1.195-2.76,1.744-4.234c0.323,0.18,0.646,0.299,0.896,0.429c1.096,3.088,2.291,6.226,3.336,9.384v-6.824
	c2.565,1.346,3.736,4.164,5.977,5.957v-5.109h0.449c0.945,2.818,2.863,4.86,5.527,5.977c-0.598-3.039-1.096-5.977-1.742-8.936h0.447
	c1.195,1.395,2.242,2.839,3.438,4.233v-7.251h0.348c0.648,0.547,1.195,1.175,1.744,1.742c10.408,4.732,14.643,17.682,21.739,25.949
	c3.312,2.391,6.724,4.761,10.136,7.121c8.467,11.834,17.58,22.662,30.206,30.232c2.067,2.818,4.233,5.627,6.351,8.467
	c1.244,0.199,2.539,0.328,3.785,0.447c1.693,2.57,3.436,5.131,5.129,7.65c8.144,3.258,16.037,4.433,14.045,14.443
	c13.945-5.01,23.234,8.815,28.838,17.033c2.439,2.111,4.93,4.233,7.221,6.346c1.494,2.271,2.864,4.512,4.283,6.822
	c2.565,1.246,5.131,2.521,7.67,3.785c0.374,2.271,0.872,4.513,1.246,6.824c1.992,3.217,11.953,9.611,14.891,13.576
	c1.992,3.705,3.984,7.371,5.902,11.007c7.895,10.03,16.062,22.661,25.973,30.68c7.072,6.226,14.12,12.451,21.217,18.627
	c2.541,8.089,5.105,16.187,7.67,24.274c12.875,30.48,20.221,63.75,29.684,98.564c-0.373,1.274-0.746,2.59-1.244,3.834
	c-0.697,3.785,1.693,4.283,2.116,5.977c-0.249,2.371-0.573,4.781-0.872,7.172c1.943,6.206,7.521,10.19,9.837,15.291v8.098
	c2.116,9.283,8.093,20.42,10.21,30.6c0.623,7.82,1.121,15.569,1.668,23.389c1.146,6.126,3.736,24.056,1.744,31.028
	c-2.789,9.483-5.279,17.73-12.303,22.931c-5.553,4.014-14.344,5.18-16.186,12.729h0.423c0.747-0.278,1.419-0.528,2.116-0.827
	c-0.622,0.996-1.12,1.943-1.693,2.939h3.811c-2.117,2.121-4.233,4.312-6.35,6.424c-3.039,10.012-15.391,13.797-20.42,22.044
	c1.443,7.371,8.342,9.384,13.197,13.169c-3.535,4.033-7.097,7.969-10.658,11.982v0.797c11.854,8.936,44.725,19.623,63.825,8.467
	c4.407-2.57,6.599-7.4,9.288-11.854c7.82-12.85,5.23-13.198-2.938-24.255c1.045-1.544,2.191-2.62,4.232-3.387
	c-0.547-5.657-1.369-8.247,2.49-11.057c2.864,0.847,2.242,2.212,4.283,0c0.697-0.278,1.395-0.528,2.191-0.827
	c2.291,0.449,2.988,1.395,4.607,2.57c0.125-2.889,0.249-5.658,0.424-8.547c2.24,0.329,2.49,0.797,3.885,1.744
	c0.299-3.338-0.648-8.168,0-10.211c0.921,0.697,1.917,1.395,2.913,2.122c5.056-16.884-2.665-28.12-2.913-44.625
	c0.921,0.567,1.917,1.165,2.913,1.693c-1.868-5.808-3.735-11.585-5.479-17.432c0.124-0.199,0.249-0.229,0.374-0.378
	c0.871,0.148,1.742,0.179,2.539,0.378c-1.17-3.267-2.24-6.554-3.411-9.792c0.872,0.18,1.743,0.35,2.614,0.479
	c-1.543-5.607-2.041-12.232-3.859-17.859c0.747-0.369,1.42-0.817,2.117-1.295c-0.697-1.992-1.37-3.984-2.117-5.977
	c0.572-0.051,1.121-0.25,1.743-0.398c-1.917-3.836-2.415-9.961-0.498-13.119h2.614c-0.547-1.822-0.248-2.869,0.449-4.283h2.092
	c-0.673-1.693-1.42-3.416-2.092-5.061c2.789-3.406,2.539-10.08,5.479-14.513c1.992-0.249,1.842-0.398,2.988-1.245
	c-0.398-4.711-0.398-10.31,3.411-9.812h0.374c-1.195-7.122-8.094-6.923-5.928-15.688c0.449-0.18,0.896-0.299,1.246-0.428
	c2.191-0.817,3.387,0.527,5.129,1.274c-0.398-4.015-2.439-5.03-4.73-8.099v-0.846c0.797-0.25,1.494-0.568,2.166-0.817
	c-1.867-0.728-3.611-1.425-5.479-2.122c1.668-0.717,3.312-1.414,5.105-2.161c-0.623-1.195-0.697-0.647-0.449-2.122
	c-2.291,0.299-4.582,0.598-6.822,0.877c0.672-2.391,1.992-3.516,4.283-4.264c-0.125-0.248-0.25-0.547-0.449-0.846
	c-1.992-0.996-4.033-1.992-5.977-2.988c1.818-0.27,3.736-0.568,5.554-0.817h-0.872c-6.723-4.96-9.089-12.829-12.699-20.849
	c0.498-0.148,1.045-0.248,1.693-0.418c-2.565-10.439-5.131-20.998-7.67-31.457V1629.9c-0.549-4.232-1.121-8.486-1.744-12.72h3.86
	c-1.319-1.494-1.992-1.843-2.565-4.233c2.74-1.873,6.55-4.412,10.658-4.682c1.744,0.697,3.438,1.395,5.031,2.092v-2.092
	c2.191,0.697,4.308,1.395,6.375,2.092c-0.748-0.977-1.645-1.992-2.49-2.969c3.411,0.598,6.15,1.445,8.467,2.969
	c1.17,5.777,3.336,9.064,6.822,12.322c6.625-1.645,9.463,5.458,14.096,7.699c4.905,2.41,9.213,3.138,14.791,5.498
	c1.693,1.275,3.387,2.541,5.131,3.785c2.34,0.329,4.781,0.628,7.221,0.927c1.545,0.618,2.342,2.938,4.732,3.308
	c3.287,0.627,4.73-2.391,7.969-1.246c2.59,1.246,3.984,4.114,5.977,5.957c2.415-0.527,4.781-1.125,7.221-1.674
	c1.246,1.943,1.295,0.678,1.295,2.541c1.445-0.718,2.789-1.395,4.184-2.162c4.533,3.158,10.311,3.935,14.494,6.425
	c1.992-0.299,3.984-0.577,6.025-0.896c6.127,1.494,12.402,4.881,19.922,6.444c8.865,1.744,19.574-1.763,23.807,3.766
	c1.096-0.926,0.848-1.096,2.49-1.674c0.797,0.697,1.494,1.395,2.167,2.122c0.374-1.126,0.872-2.241,1.245-3.417h1.668
	c1.893,1.873,3.686,3.686,5.629,5.559c-0.748-1.275-1.494-2.59-2.191-3.865c0.199-0.269,0.248-0.518,0.447-0.846h1.744
	c2.092,1.893,3.834,3.984,5.901,5.977c-0.075-2.909,0.374-3.955,1.245-5.529h2.166c2.49,1.176,3.637,2.022,4.682,4.633h0.374
	c-0.374-2.191-1.12-3.486,0-5.08c1.917,1.494,3.362,3.436,4.308,5.977h0.424c-0.174-1.863-0.324-3.656-0.424-5.529
	c1.669,0.827,3.338,1.674,5.08,2.521c0.199-1.524,0.15-1.245,0.822-2.122c4.309,0.299,6.475-1.314,9.787,0.429
	c0.299-1.524,0.174-1.274,0.846-2.122c1.146,0.697,2.242,1.425,3.387,2.122c0.35-2.071,0.498-1.992,1.744-2.919
	c1.543,0.678,3.088,1.395,4.656,2.092c4.408-4.682,8.043,0.25,13.572-1.295c9.412-2.609,12.5-7.271,25.524-5.896
	c0.573-1.345,1.12-2.59,1.669-3.835c7.719,0.199,11.778-6.226,21.664-5.11v-2.59c2.316,0.18,8.168-0.896,9.414-1.693v-2.539
	c4.98,0,6.176-1.116,11.006,0.428c0.199-2.121,0.498-3.566,1.693-4.662c2.541-0.049,2.291-1.763,5.977-1.742
	c-0.373-1.415-0.447-1.415,0.374-2.541c0.573,0.479,1.12,0.877,1.743,1.275c-0.424-1.424-0.822-2.789-1.32-4.233
	c2.316,0.966,4.558,1.992,6.873,2.958c-15.887-21.236,24.455-44.227,35.213-54.387c0.248,0.15,0.646,0.279,0.896,0.479
	c0.174,18.398,16.609,24.375,23.756,36.108c12.602,20.688,23.359,42.334,36.557,62.476c7.67,10.887,15.315,21.794,22.91,32.672
	c2.191-0.598,1.494-0.668,3.486,0.447c0.797,4.682,1.619,9.344,2.541,14.025c1.494,3.785,6.225,5.398,8.043,8.517
	c1.42,2.44-1.07,6.894-0.424,8.467c0.996,2.64,2.291,3.108,1.246,6.794c1.742-0.449,3.411-0.817,5.08-1.295
	c0.572,2.092-0.175,9.193,0.896,11.057c0.348,0.677,2.539,1.125,2.988,2.171c0.746,8.487,1.419,16.954,2.092,25.47
	c-5.33,25.699-10.311,54.865-18.279,80.315c-3.236,8.218-6.475,16.436-9.786,24.673c-0.921,4.363-1.917,8.766-2.913,13.179
	c-6.227,11.953-23.981,14.344-27.219,29.285c0.324,0.299,0.572,0.598,0.871,0.847c1.693-0.249,3.438-0.548,5.105-0.847v0.468
	c-3.611,6.256-29.012,30.779-27.219,36.109c5.479,10.906,38.848,7.251,50.951,5.06c4.98-0.876,8.766,3.536,11.953,1.663
	l11.803-17.401c1.893-6.823-4.283-14.344-6.723-19.075c1.145-1.295,2.24-2.57,3.387-3.865c2.738,0.08,3.287,0.578,5.08,1.295v-5.946
	c0.896-0.13,1.693-0.299,2.564-0.429c3.062,1.246,9.887,3.417,11.455,2.969c1.867-2.121,3.735-4.283,5.553-6.355
	c0.299-2.41,0.549-4.83,0.848-7.221c1.941,0,2.49,0.029,3.436-0.917c0.697-4.034,1.445-8.147,2.117-12.252
	c0.672,0.519,1.369,1.146,2.117,1.663c0.945,1.176,1.992,2.242,2.988,3.417h0.373c1.369-24.105,1.494-54.417,8.094-75.634
	c6.922-22.083,17.48-47.016,20.793-70.991c2.066-14.622,14.194-25.699,10.633-42.862c-3.834-18.576-19.771-27.84-23.756-45.471
	c0.1-0.17,0.299-0.299,0.423-0.469c0.996,0.847,1.992,1.713,2.913,2.59c4.932,10.23,14.842,13.746,18.328,26.695h0.424
	c0.424-0.797,0.822-1.644,1.245-2.49c0.423,0.249,0.872,0.568,1.319,0.847c2.74,6.694,8.393,10.878,10.634,18.696
	c1.494-0.598,0.821-1.045,2.116,0c1.793,5.23,3.611,10.459,5.479,15.719c12.252,13.397,20.371,27.891,19.973,51.867
	c0.572-0.319,1.145-0.648,1.742-0.848c-0.049,7.949,1.395,13.896,2.939,19.076c1.295,12.5,2.539,24.981,3.859,37.402
	c2.416,13.627-2.416,30.779,1.668,42.912c-1.917,8.088-8.814,15.639-14.045,20.838c-0.074,5.777,1.494,7.65,2.59,11.506
	c-1.543,0.577-17.281,25.4-17.432,29.285c1.693,3.316,6.127,5.657,9.787,6.822c2.988,0.977,32.697,0.748,35.686-0.418
	c8.814-3.666,18.178-9.214,23.408-16.635c4.656-6.524-7.422-17.361-8.119-22.462c2.49-3.167,5.305-5.907,7.621-9.394
	c3.287,0.1,4.033,0.199,5.527-0.816c0-6.205,2.191-7.919,3.438-12.75c0.797-0.129,1.668-0.299,2.59-0.448
	c-1.047-2.241-1.594-4.114-0.498-6.354H1228.67z M125.57,1463.732c-1.07,4.9-5.727,8.785-9.412,11.057
	c1.045-5.229,5.603-10.758,9.412-13.576V1463.732z M320.107,1157.384c-0.049,0.847-0.199,1.714-0.373,2.54
	c-0.871,1.693-1.568,1.942-3.412,2.59C317.244,1160.393,318.166,1158.5,320.107,1157.384z M304.42,1148.041h3.859
	c-0.871,0.976-1.743,1.992-2.615,2.968h-0.797c-0.199-0.378-0.323-0.827-0.447-1.295c-0.125-0.429-0.25-0.827-0.449-1.274
	C304.17,1148.319,304.295,1148.189,304.42,1148.041z M307.781,1152.273c0.996-0.119,1.992-0.248,3.062-0.398
	c-0.945,4.035-4.557,7.401-7.619,9.363c-0.175-1.016-0.299-1.992-0.498-3.008C304.295,1155.939,305.217,1153.499,307.781,1152.273z
	 M310.346,1163.779c-4.184,9.312-8.467,18.727-12.699,28.02c-1.146,0.119-2.242,0.299-3.438,0.469v-2.61
	c6.525-14.224,6.351-24.653,22.611-31.854c-0.821,4.73-3.137,8.814-7.221,10.209v-0.418c0.348-1.275,0.746-2.57,1.244-3.814H310.346
	z M310.844,1184.148h-0.498v-0.846c-1.07-3.139,4.482-10.459,7.223-11.476C316.82,1176.061,313.758,1181.838,310.844,1184.148z
	 M323.146,1202.009v-0.429c5.428-8.367,11.854-8.965,23.357-11.923c0.872,0.149,1.693,0.319,2.541,0.448
	c-0.175,0.27-0.299,0.548-0.424,0.867C337.988,1191.969,331.189,1198.492,323.146,1202.009z M341.025,1201.58v-0.368
	c0.797-1.992,2.242-4.682,4.234-4.333c2.24-0.548,4.482-1.096,6.723-1.674C350.488,1197.825,344.264,1200.564,341.025,1201.58z
	 M364.732,1194.758c-3.66,0.727-7.271,1.395-11.006,2.121v-0.379c1.941-2.539,4.531-2.789,8.018-3.854
	c1.071,0.448,2.067,0.896,2.988,1.265V1194.758z M378.379,1198.622c-3.188,0.966-5.279,2.261-9.412,2.59v-0.946
	c2.564-1.245,5.18-2.49,7.719-3.766c0.697,0.379,1.395,0.848,2.067,1.275C378.678,1198.074,378.578,1198.323,378.379,1198.622z
	 M381.367,1196.5c-1.618-0.717-3.112-1.414-4.682-2.161c3.312-1.075,5.379-2.72,9.787-2.919
	C384.729,1193.094,383.061,1194.758,381.367,1196.5z M414.936,1233.455h-0.447v-0.468c0.697-1.046,0.498-0.996,1.693-1.673
	C415.783,1232.012,415.285,1232.738,414.936,1233.455z M416.182,1230.865c0.547-1.265,0.299-0.916,1.295-1.663
	C417.027,1229.77,416.604,1230.367,416.182,1230.865z M437.896,1235.996c-1.121,2.47-5.43,6.703-7.67,8.048
	C431.048,1240.229,434.709,1237.42,437.896,1235.996z M431.048,1247.082v-1.773c2.067-3.755,5.977-7.839,10.634-8.885
	c0.199,0.299,0.323,0.548,0.447,0.896c-3.188,3.387-6.275,6.724-9.338,10.131C432.219,1247.301,431.621,1247.182,431.048,1247.082z
	 M1166.24,1562.764c-5.056,12.65-8.617,35.491-10.211,52.724c-3.561-0.647-4.98-2.341-6.375-5.13c0.15-0.697,0.25-1.395,0.398-2.092
	l2.988,2.092c-1.893-2.391-3.686-4.831-5.479-7.172h2.914v-0.448c-7.471-3.237-9.039-13.925-12.7-20.868
	c0.124-0.1,0.249-0.249,0.374-0.379c1.693,0.877,3.785,2.191,5.977,1.246h-0.797c-1.645-2.988-3.637-5.23-4.732-8.936
	c1.295,0.598,2.541,1.115,3.785,1.713c-1.443-2.659-2.988-4.153-3.361-8.068c0.125-0.269,0.249-0.518,0.373-0.866
	c0.872,0.169,1.744,0.349,2.615,0.419c-1.32-2.062-2.615-4.234-3.859-6.396c1.543-8.497-0.797-18.727,0.871-28.817
	c0.249-0.199,0.572-0.318,0.871-0.468c0.498,0.468,1.121,0.847,1.619,1.315c-0.822-16.686,1.619-33.369,8.541-43.779
	c1.246-1.763,3.836-2.34,4.732-4.701c2.041-6.226,3.037-16.236,7.221-20.818c0.673,15.788,0.797,30.898,0.35,47.563h2.141
	c-0.572,3.735-1.145,7.421-1.693,11.106c0.872,6.524,1.693,13.049,2.541,19.523c-0.748,4.134-1.42,8.218-2.092,12.352h0.423v-0.896
	c0.423-0.977,0.821-1.992,1.319-2.969h0.797c-0.697,3.865-1.443,7.67-2.116,11.506c0.821-0.449,1.669-0.917,2.565-1.295V1562.764z"
	/>
<path fill-rule="evenodd" clip-rule="evenodd" d="M235.564,1098.714c0-0.946,0-1.942,0-2.938
	C235.564,1096.771,235.564,1097.768,235.564,1098.714z"/>
<path fill-rule="evenodd" clip-rule="evenodd" d="M235.564,1103.396c0-1.425,0-2.819,0-4.233
	C235.564,1100.576,235.564,1101.971,235.564,1103.396z"/>
<path fill-rule="evenodd" clip-rule="evenodd" d="M247.891,1102.997c0-1.026,0-1.972,0-2.988
	C247.891,1101.025,247.891,1101.971,247.891,1102.997z"/>
<path fill-rule="evenodd" clip-rule="evenodd" d="M236.885,1118.686c0.1-0.249,0.299-0.527,0.498-0.797
	C237.184,1118.158,236.984,1118.437,236.885,1118.686z"/>
<path fill-rule="evenodd" clip-rule="evenodd" d="M237.383,1121.693c0.049-0.299,0.174-0.547,0.348-0.816
	C237.557,1121.146,237.432,1121.395,237.383,1121.693z"/>
<path fill-rule="evenodd" clip-rule="evenodd" d="M250.93,1122.521c0.074-0.229,0.199-0.577,0.398-0.827
	C251.129,1121.943,251.004,1122.291,250.93,1122.521z"/>
<path fill-rule="evenodd" clip-rule="evenodd" d="M322.299,1136.586c0.299,0,0.549,0,0.848,0
	C322.848,1136.586,322.598,1136.586,322.299,1136.586z"/>
<path fill-rule="evenodd" clip-rule="evenodd" d="M320.605,1138.259c0.374-0.278,0.797-0.548,1.246-0.876
	C321.402,1137.711,320.979,1137.98,320.605,1138.259z"/>
<path fill-rule="evenodd" clip-rule="evenodd" d="M317.17,1140.818c0.996-0.746,1.992-1.443,2.938-2.141
	C319.162,1139.375,318.166,1140.072,317.17,1140.818z"/>
<path fill-rule="evenodd" clip-rule="evenodd" d="M311.641,1162.035c0.199-0.248,0.25-0.547,0.374-0.797
	C311.891,1161.488,311.84,1161.787,311.641,1162.035z"/>
<path fill-rule="evenodd" clip-rule="evenodd" d="M311.193,1162.912c0.148-0.279,0.323-0.578,0.447-0.877
	C311.517,1162.334,311.342,1162.633,311.193,1162.912z"/>
<path fill-rule="evenodd" clip-rule="evenodd" d="M365.555,1162.514c0.324,0,0.623,0,0.922,0
	C366.178,1162.514,365.879,1162.514,365.555,1162.514z"/>
<path fill-rule="evenodd" clip-rule="evenodd" d="M363.488,1162.514c0.323,0,0.498,0,0.896,0
	C363.986,1162.514,363.812,1162.514,363.488,1162.514z"/>
<path fill-rule="evenodd" clip-rule="evenodd" d="M310.844,1163.779c0.1-0.299,0.175-0.648,0.35-0.867
	C311.019,1163.131,310.943,1163.48,310.844,1163.779z"/>
<path fill-rule="evenodd" clip-rule="evenodd" d="M317.17,1165.023c0.148-0.269,0.323-0.518,0.398-0.866
	C317.493,1164.506,317.318,1164.755,317.17,1165.023z"/>
<path fill-rule="evenodd" clip-rule="evenodd" d="M325.711,1165.023c0.249,0,0.572,0,0.747,0
	C326.283,1165.023,325.96,1165.023,325.711,1165.023z"/>
<path fill-rule="evenodd" clip-rule="evenodd" d="M341.025,1166.318c0.25,0,0.498,0,0.797,0
	C341.523,1166.318,341.275,1166.318,341.025,1166.318z"/>
<path fill-rule="evenodd" clip-rule="evenodd" d="M339.656,1166.747c0.498,0,0.871,0,1.369,0
	C340.527,1166.747,340.154,1166.747,339.656,1166.747z"/>
<path fill-rule="evenodd" clip-rule="evenodd" d="M346.006,1173.092c0.374,0,0.623,0,0.947,0
	C346.629,1173.092,346.38,1173.092,346.006,1173.092z"/>
<path fill-rule="evenodd" clip-rule="evenodd" d="M404.277,1183.303c0.449-0.27,0.872-0.549,1.246-0.797
	C405.149,1182.754,404.727,1183.033,404.277,1183.303z"/>
<path fill-rule="evenodd" clip-rule="evenodd" d="M365.555,1183.303c0.498-0.27,0.922-0.549,1.369-0.797
	C366.477,1182.754,366.053,1183.033,365.555,1183.303z"/>
<path fill-rule="evenodd" clip-rule="evenodd" d="M408.062,1183.75c0.324,0,0.573,0,0.896,0
	C408.636,1183.75,408.387,1183.75,408.062,1183.75z"/>
<path fill-rule="evenodd" clip-rule="evenodd" d="M407.266,1184.148c0.299,0,0.623,0,0.797,0
	C407.889,1184.148,407.564,1184.148,407.266,1184.148z"/>
<path fill-rule="evenodd" clip-rule="evenodd" d="M416.604,1185.872c0.323,0,0.573,0,0.872,0
	C417.178,1185.872,416.928,1185.872,416.604,1185.872z"/>
<path fill-rule="evenodd" clip-rule="evenodd" d="M468.477,1219.41c0.248,0,0.498,0,0.846,0
	C468.975,1219.41,468.725,1219.41,468.477,1219.41z"/>
<path fill-rule="evenodd" clip-rule="evenodd" d="M465.039,1221.104c0.299,0,0.549,0,0.872,0
	C465.588,1221.104,465.338,1221.104,465.039,1221.104z"/>
<path fill-rule="evenodd" clip-rule="evenodd" d="M478.238,1227.907c0.248,0,0.547,0,0.871,0
	C478.785,1227.907,478.486,1227.907,478.238,1227.907z"/>
<path fill-rule="evenodd" clip-rule="evenodd" d="M468.027,1251.684c0.549-0.646,1.121-1.395,1.744-2.111
	C469.148,1250.289,468.576,1251.037,468.027,1251.684z"/>
<path fill-rule="evenodd" clip-rule="evenodd" d="M512.604,1261.895c0.199-0.27,0.299-0.498,0.447-0.817
	C512.902,1261.396,512.803,1261.625,512.604,1261.895z"/>
<path fill-rule="evenodd" clip-rule="evenodd" d="M1148.359,1314.617c0.299,0,0.549,0,0.872,0
	C1148.908,1314.617,1148.658,1314.617,1148.359,1314.617z"/>
<path fill-rule="evenodd" clip-rule="evenodd" d="M1158.943,1329.509c0.324,0,0.623,0,0.922,0
	C1159.566,1329.509,1159.268,1329.509,1158.943,1329.509z"/>
<path fill-rule="evenodd" clip-rule="evenodd" d="M1163.252,1562.396c0.1-0.349,0.248-0.598,0.423-0.876
	C1163.5,1561.798,1163.352,1562.047,1163.252,1562.396z"/>
<path fill-rule="evenodd" clip-rule="evenodd" d="M1191.689,1570.862c0.125-0.299,0.299-0.598,0.449-0.847
	C1191.988,1570.265,1191.814,1570.563,1191.689,1570.862z"/>
<path fill-rule="evenodd" clip-rule="evenodd" d="M1192.139,1571.659c0.174-0.229,0.299-0.498,0.423-0.797
	C1192.438,1571.161,1192.312,1571.43,1192.139,1571.659z"/>
<path fill-rule="evenodd" clip-rule="evenodd" d="M1207.877,1623.975c0.124-0.299,0.248-0.568,0.447-0.817
	C1208.125,1623.406,1208.001,1623.676,1207.877,1623.975z"/>
<path d="M1002.408,283.185c-1.604-4.788-3.725-9.698-6.339-14.729c-2.417-4.433-5.823-8.287-10.201-11.555
	c-4.374-3.275-9.191-5.975-14.429-8.086c-5.232-2.119-10.628-3.679-16.162-4.688c-5.543-1.005-10.633-1.512-15.259-1.512
	c-8.663,0-16.745,1.718-24.248,5.141c-7.508,3.423-14.412,7.889-20.705,13.369c-6.292,5.491-11.909,11.737-16.841,18.743
	c-4.936,6.996-9.116,14.019-12.535,21.063c-1.718,3.733-3.511,7.504-5.37,11.338c-1.856,3.821-3.39,7.801-4.601,11.932h-0.306
	c-7.152,0-13.62-0.247-19.419-0.755c-5.785-0.502-11.102-1.718-15.932-3.624c-4.83-1.914-9.288-4.763-13.377-8.538
	c-4.068-3.774-7.985-8.943-11.706-15.488c-2.315-3.825-4.353-7.247-6.116-10.272c-1.755-3.025-3.603-5.89-5.513-8.613
	c-1.911-2.714-4.022-5.38-6.344-8.006c-2.32-2.61-5.085-5.539-8.311-8.761c-0.705-0.502-1.995-1.357-3.854-2.563
	c-1.86-1.215-3.779-2.472-5.74-3.783c-1.969-1.307-3.703-2.543-5.212-3.703c-1.517-1.152-2.262-2.032-2.262-2.644
	c0-0.102,0.024-0.177,0.066-0.227c0.055-0.042,0.076-0.117,0.076-0.226c1.013-0.302,2.119-0.78,3.326-1.429
	c1.215-0.65,2.295-1.412,3.251-2.267c0.946-0.855,1.76-1.844,2.417-2.95c0.657-1.109,0.984-2.316,0.984-3.628
	c0-1.403-0.255-2.589-0.762-3.544c-0.503-0.96-1.027-1.835-1.585-2.644c-0.552-0.809-1.055-1.587-1.511-2.342
	c-0.453-0.758-0.629-1.592-0.524-2.493h-1.365l-3.629,1.358h-0.603c0.41-1.01,0.603-2.066,0.603-3.177v-3.321
	c-0.603,0-1.072,0.276-1.425,0.829c-0.359,0.558-0.686,1.16-0.988,1.81c-0.302,0.657-0.632,1.256-0.98,1.818
	c-0.355,0.553-0.833,0.83-1.44,0.83c-0.398,0-0.78-0.323-1.131-0.98c-0.353-0.653-0.679-1.433-0.981-2.346
	c-0.302-0.901-0.604-1.831-0.904-2.79c-0.306-0.96-0.612-1.684-0.909-2.191h-0.298c-0.812,0-1.311,0.377-1.509,1.136
	c-0.209,0.754-0.359,1.579-0.46,2.488c-0.101,0.905-0.252,1.818-0.448,2.719c-0.21,0.91-0.607,1.508-1.202,1.818l-0.307,0.147
	c-0.707,0-1.285-0.629-1.742-1.894c-0.449-1.248-0.854-2.639-1.203-4.147c-0.355-1.512-0.712-2.895-1.067-4.156
	c-0.349-1.261-0.817-1.885-1.429-1.885c-0.108,0-0.201,0.046-0.298,0.146c-0.205,0.407-0.465,1.11-0.758,2.116
	c-0.31,1.005-0.633,2.091-0.98,3.25c-0.356,1.157-0.662,2.237-0.909,3.243c-0.252,1.014-0.431,1.667-0.527,1.969
	c-0.206,0.699-0.373,1.106-0.532,1.21c-0.143,0.097-0.524,0.147-1.131,0.147c-1.513,0-2.849-0.479-4.006-1.433
	c-1.156-0.956-2.438-1.434-3.851-1.434v2.107l0.759,2.422c0,0.507-0.062,1.307-0.159,2.417h-5.589v4.081h-1.056
	c-0.713,0-1.357,0.125-1.97,0.372c-0.603,0.265-0.854,0.783-0.749,1.588c-1.105,4.231-1.99,8.086-2.645,11.563
	c-0.652,3.468-1.23,7.272-1.733,11.395c-0.209,1.015-0.628,1.895-1.282,2.652c-0.662,0.754-1.391,1.487-2.199,2.19
	c-0.801,0.708-1.508,1.483-2.116,2.339c-0.603,0.858-0.904,1.893-0.904,3.096h0.904c0.709,0,1.441-0.021,2.195-0.072
	c0.75-0.049,1.282-0.075,1.588-0.075c0.093,0,0.465-0.021,1.131-0.075c0.654-0.055,1.308-0.125,1.965-0.227
	c0.654-0.1,1.287-0.175,1.895-0.229c0.604-0.046,0.996-0.071,1.202-0.071c1.11,0,2.237,0.276,3.397,0.829
	c1.157,0.554,1.743,1.533,1.743,2.941c0,1.416-0.461,2.772-1.366,4.08c-0.904,1.316-1.936,2.673-3.096,4.081
	c-1.156,1.416-2.188,2.899-3.092,4.461c-0.909,1.563-1.362,3.248-1.362,5.058c0,2.011,0.575,3.678,1.739,4.985
	c1.148,1.307,2.585,2.396,4.298,3.251c1.714,0.854,3.557,1.457,5.519,1.81c1.96,0.36,3.698,0.527,5.211,0.527
	c2.116,0,4.006-0.226,5.664-0.679c1.667-0.452,3.402-1.332,5.22-2.64v0.897c0,1.315-0.205,2.472-0.606,3.481
	c-0.406,1.006-0.805,2.062-1.211,3.171c-2.312,5.539-4.29,10.851-5.895,15.938c-1.617,5.085-2.409,10.6-2.409,16.548
	c0,3.624,0.269,6.645,0.829,9.062c0.545,2.418,1.257,4.685,2.116,6.8c0.843,2.12,1.859,4.257,3.021,6.418
	c1.152,2.162,2.338,4.81,3.549,7.927c0.8,2.422,1.508,4.822,2.115,7.181c0.604,2.367,1.282,4.685,2.036,6.954
	c0.754,2.263,1.685,4.482,2.799,6.649c1.106,2.166,2.563,4.201,4.386,6.112c1.504,1.817,3.163,3.451,4.974,4.91
	c1.817,1.467,3.628,2.874,5.446,4.231c1.809,1.356,3.603,2.739,5.367,4.159c1.746,1.408,3.393,3.021,4.901,4.831
	c0.205,0.205,0.477,0.653,0.833,1.357s0.679,1.265,0.98,1.668l7.406,15.71c1.408,2.618,3.139,4.633,5.208,6.041
	c2.062,1.407,4.102,2.975,6.13,4.684c0.996,0.905,2.304,2.091,3.921,3.549c1.608,1.462,3.142,2.845,4.6,4.16
	c1.463,1.308,3.251,2.966,5.362,4.985v3.017l-4.985,40.646l-1.356,2.562c-0.81,1.811-1.991,3.201-3.549,4.156
	c-1.562,0.955-3.298,1.639-5.208,2.037c-1.923,0.401-3.871,0.632-5.894,0.678c-2.016,0.055-3.825,0.079-5.435,0.079
	c-0.913,0.198-1.617,0.701-2.119,1.513c-0.503,0.805-1.262,1.358-2.267,1.66c0.744,0.297,1.479,0.54,2.202,0.727
	c-0.145,0.1-0.238,0.245-0.238,0.479c0,0.406,0.197,0.611,0.608,0.611c0.297,0,0.443-0.205,0.443-0.611
	c0-0.139-0.042-0.224-0.078-0.314c0.487,0.1,0.973,0.186,1.448,0.235c1.399,0.154,2.812,0.18,4.223,0.079
	c1.417-0.101,2.815-0.227,4.235-0.377c1.413-0.15,2.967-0.227,4.685-0.227v5.141c1.407,0,2.693-0.582,3.851-1.734
	c1.155-1.165,2.396-1.894,3.694-2.191c1.312-0.41,2.446-0.737,3.401-0.988c0.955-0.243,1.89-0.428,2.799-0.524
	c0.905-0.1,1.911-0.18,3.017-0.229c1.114-0.051,2.422-0.075,3.931-0.075c0.301,0.205,0.904,0.351,1.809,0.452
	c0.905,0.101,1.366,0.401,1.366,0.904v0.461l-3.62,8.76h1.048l11.026-9.069l9.074,6.502h1.508c0-1.215-0.431-2.446-1.29-3.703
	c-0.854-1.257-1.533-2.489-2.035-3.704c-0.201-0.298-0.452-1.105-0.75-2.422c0.016-0.175,0.086-0.319,0.141-0.474
	c-0.179-0.659-0.186-1.365-0.022-2.029c-0.234-0.666-0.304-1.397-0.12-2.124c0.014-0.058,0.031-0.129,0.046-0.19
	c-0.024-0.199-0.052-0.397-0.07-0.6c-0.229-0.009-0.437-0.016-0.582-0.016v-6.046l10.726-46.226
	c0.398-1.609,0.977-3.025,1.739-4.231c0.749-1.212,1.579-2.339,2.492-3.402c0.905-1.052,1.91-2.116,3.016-3.172
	c1.111-1.051,2.221-2.292,3.323-3.699c0.516-0.502,0.833-0.884,0.992-1.135c0.143-0.247,0.218-0.726,0.218-1.438
	c0-0.704-0.251-1.198-0.745-1.513c-0.512-0.298-0.867-0.85-1.069-1.654h0.303c2.727,0,5.441,0.126,8.16,0.373
	c2.728,0.26,5.442,0.381,8.165,0.381h9.054c0.205,0,1.01-0.075,2.418-0.235c1.416-0.146,2.472-0.317,3.176-0.519
	c0.603-0.101,1.583-0.251,2.948-0.456c1.362-0.206,2.745-0.475,4.156-0.834c1.408-0.344,2.67-0.826,3.771-1.433
	c1.111-0.608,1.664-1.304,1.664-2.112c0-0.805-0.323-1.29-0.977-1.433c-0.654-0.159-1.14-0.486-1.441-0.984
	c0.708-0.205,1.583-0.448,2.652-0.754c1.052-0.307,1.579-0.96,1.579-1.965c0-0.704-0.28-1.236-0.838-1.592
	c-0.545-0.344-1.072-0.624-1.575-0.83c0.801-0.402,1.856-0.779,3.167-1.131c1.312-0.353,1.969-1.131,1.969-2.343v-0.297
	l-3.166-3.181c-0.113-0.196-0.159-0.351-0.159-0.447c0-2.02,0.276-4.131,0.838-6.347c0.557-2.221,0.922-4.332,1.136-6.348
	l1.812,11.333h0.746c0.302,0,0.553-0.323,0.754-0.985c0.202-0.648,0.428-1.407,0.679-2.262c0.256-0.854,0.512-1.634,0.759-2.347
	c0.242-0.703,0.582-1.155,0.984-1.356l0.599,3.171c-0.498,3.427-0.85,6.624-1.059,9.59c-0.202,2.983-0.294,6.074-0.294,9.292v2.421
	c2.111-3.623,3.67-7.679,4.675-12.156c1.01-4.483,1.769-8.791,2.275-12.921c0.093,0,0.192-0.075,0.302-0.227
	c0.096-0.15,0.192-0.272,0.297-0.377c0-0.206,0.126-0.729,0.377-1.588c0.244-0.854,0.377-1.387,0.377-1.588
	c0,0.201,0.076,0.935,0.231,2.191c0.15,1.261,0.229,1.989,0.229,2.191c0.093,0.599,0.218,1.691,0.369,3.246
	c0.159,1.563,0.306,3.226,0.453,4.99c0.158,1.759,0.28,3.422,0.385,4.985c0.096,1.559,0.15,2.593,0.15,3.092
	c0.494-0.192,0.821-0.704,0.981-1.509c0.142-0.805,0.217-1.312,0.217-1.513c0-0.498,0.101-1.336,0.302-2.483
	c0.21-1.165,0.311-1.843,0.311-2.05v-6.794c0-3.725-0.151-7.118-0.452-10.202c-0.302-3.071-1.211-6.317-2.716-9.744
	c0.796,0.512,1.375,1.311,1.735,2.421c0.352,1.106,1.029,1.919,2.032,2.422v-0.457c0-1.713-0.584-3.347-1.739-4.914
	c-1.151-1.558-2.438-3.041-3.842-4.457c-1.412-1.404-2.698-2.689-3.858-3.846c-1.157-1.157-1.739-2.195-1.739-3.104v-8.761
	c0.307,0.604,0.608,1.388,0.91,2.342c0.301,0.96,0.628,1.915,0.979,2.874c0.353,0.952,0.733,1.835,1.131,2.644
	c0.403,0.801,0.855,1.312,1.367,1.513v-4.235c0-3.624-0.554-6.968-1.664-10.047c-1.118-3.075-2.622-6.062-4.532-8.986h0.456
	c0.503,0.202,1.198,0.453,2.111,0.754c0.909,0.306,1.81,0.633,2.723,0.985c0.906,0.352,1.727,0.805,2.489,1.349
	c0.754,0.561,1.231,1.24,1.44,2.049l2.556,7.859c0,0.498,0.209,0.959,0.612,1.354c0.41-0.303,0.6-0.755,0.6-1.354
	c0.104-0.306,0.229-0.788,0.38-1.437c0.156-0.654,0.277-1.358,0.377-2.121c0.105-0.754,0.202-1.508,0.307-2.262
	c0.097-0.759,0.196-1.281,0.297-1.588h1.216c1.307,0.398,2.388,0.733,3.247,0.98c0.85,0.256,1.579,0.607,2.182,1.06
	c0.612,0.453,1.136,1.056,1.601,1.81c0.449,0.763,0.813,1.793,1.122,3.097c0.403-0.298,0.789-0.85,1.136-1.659
	c0.349-0.8,0.579-1.303,0.675-1.513h0.461c1.206,0,2.438,0.21,3.695,0.611c1.257,0.398,2.496,0.826,3.711,1.283
	c1.208,0.452,2.438,0.88,3.695,1.277c1.257,0.41,2.598,0.607,4.006,0.607c1.612,0,3.092-0.353,4.457-1.06
	c1.358-0.7,2.037-2.058,2.037-4.077c0-1.206-0.227-2.296-0.679-3.251c-0.457-0.946-0.68-2.035-0.68-3.242V351.7
	c1.709-0.709,3.188-1.409,4.458-2.121c1.257-0.703,1.89-2.11,1.89-4.231c0-1.905-0.49-3.519-1.438-4.834
	c-0.959-1.307-2.162-2.413-3.628-3.318c-1.462-0.913-3.017-1.643-4.684-2.195c-1.65-0.549-3.205-1.03-4.608-1.433
	c-0.503-0.201-0.788-0.402-0.834-0.607c-0.046-0.196-0.071-0.448-0.071-0.75c0-0.205,0.025-0.407,0.071-0.607
	c0.046-0.197,0.331-0.397,0.834-0.607l16.313-5.589h0.452c0.102,0.105,0.399,0.528,0.909,1.282c0.507,0.758,1.11,1.718,1.814,2.874
	c0.703,1.16,1.257,2.04,1.667,2.647c2.112,3.624,3.595,7.323,4.449,11.103c0.855,3.771,1.29,7.775,1.29,12.011
	c0,2.312-0.134,4.504-0.377,6.573c-0.251,2.062-0.386,4.206-0.386,6.418c0.508,0,1.015-0.306,1.513-0.913
	c0.503-0.595,0.851-1.005,1.061-1.203c2.92-3.427,4.906-6.849,5.962-10.275c1.067-3.427,1.588-7.299,1.588-11.631
	c0-4.428-0.604-8.664-1.811-12.689c-1.21-4.026-2.924-7.956-5.136-11.781v-0.457c0-0.803,0.327-1.415,0.979-1.809
	c0.654-0.402,0.989-1.106,0.989-2.12c0-1.207-0.511-2.162-1.508-2.865c-1.014-0.712-2.095-1.236-3.252-1.592
	c-1.164-0.349-2.249-0.679-3.25-0.981c-1.015-0.302-1.509-0.703-1.509-1.206v-0.302c1.709-0.909,3.218-1.91,4.525-3.025
	c1.314-1.104,2.571-2.361,3.786-3.774c-0.506-1.211-0.587-2.19-0.226-2.944c0.344-0.754,0.829-1.488,1.433-2.191
	c0.604-0.704,1.178-1.438,1.726-2.191c0.562-0.754,0.838-1.685,0.838-2.794c0-1.312-0.301-2.368-0.909-3.171
	c-0.603-0.805-1.336-1.509-2.187-2.121c-0.858-0.603-1.764-1.206-2.719-1.81c-0.96-0.603-1.784-1.357-2.501-2.271
	c1.312-0.905,2.602-1.936,3.858-3.088c1.257-1.164,1.894-2.651,1.894-4.461c0-1.006-0.335-1.961-0.989-2.875
	c-0.652-0.9-1.457-1.733-2.412-2.488c-0.955-0.758-1.986-1.412-3.096-1.96c-1.111-0.554-2.116-1.031-3.021-1.441
	c0.307-0.102,0.83-0.227,1.579-0.377c0.759-0.15,1.563-0.327,2.417-0.527c0.864-0.202,1.693-0.378,2.493-0.533
	c0.801-0.146,1.412-0.276,1.822-0.377c0.193-0.1,0.353-0.146,0.444-0.146c0.201,0,0.457,0.047,0.763,0.146
	c0.192,0.101,0.75,0.41,1.654,0.91c0.909,0.502,1.614,1.005,2.108,1.508c4.239,3.028,7.809,5.974,10.737,8.84
	c2.92,2.869,5.316,5.965,7.172,9.292c1.864,3.325,3.252,6.979,4.16,10.95c0.901,3.984,1.458,8.488,1.663,13.524v19.338
	c1.513-1.21,2.815-3.075,3.926-5.589c1.11-2.521,2.019-5.211,2.72-8.086c0.699-2.864,1.235-5.713,1.583-8.537
	c0.348-2.815,0.531-5.187,0.531-7.097C1004.829,293.281,1004.025,287.97,1002.408,283.185z M705.092,268.602
	c-0.303,0-0.453-0.055-0.453-0.146c-0.201-0.306-0.055-0.453,0.453-0.453c0.2,0,0.302,0.101,0.302,0.302
	S705.292,268.602,705.092,268.602z M736.742,296.625c-0.256-0.051-0.373-0.177-0.373-0.378c0-0.092,0.097-0.242,0.302-0.452
	c0.298,0,0.448,0.155,0.448,0.452C737.119,296.554,736.993,296.68,736.742,296.625z M813.111,512.139
	c-0.301,0-0.452-0.201-0.452-0.604c0-0.397,0.151-0.603,0.452-0.603c0.302,0,0.445,0.205,0.445,0.603
	C813.557,511.938,813.413,512.139,813.111,512.139z M821.872,458.354c-0.092,0.512-0.197,1.471-0.298,2.869
	c-0.104,1.413-0.229,3.08-0.377,4.99c-0.15,1.914-0.331,3.979-0.536,6.191c-0.201,2.221-0.373,4.282-0.527,6.193
	c-0.147,1.918-0.277,3.577-0.377,4.988c-0.102,1.413-0.201,2.372-0.302,2.87v11.178c-0.093,0.809-0.146,1.562-0.146,2.267v1.965
	c0,1.911-0.381,3.477-1.136,4.679c-0.758,1.215-2.342,1.819-4.76,1.819c-0.405,0-1.089-0.071-2.035-0.23
	c-0.959-0.151-1.965-0.374-3.025-0.679c-1.064-0.302-1.993-0.654-2.798-1.056c-0.796-0.398-1.207-0.855-1.207-1.362
	c0-0.361,0.074-0.672,0.183-0.956c-1.415-1.044-1.734-3.149-0.971-4.686c0.024-0.275,0.034-0.656,0.034-1.148v-1.366
	c0-0.402,0.05-0.755,0.142-1.057c0-0.2,0.21-0.603,0.612-1.206v-1.811l10.113-38.224c0.511-0.913,0.889-1.839,1.144-2.798
	c0.252-0.956,0.479-1.937,0.68-2.946c0.8,0.508,1.688,0.977,2.644,1.438c0.955,0.452,1.938,1.03,2.944,1.729V458.354z"/>
<g id="Shape_1">
	<g>
		<path fill-rule="evenodd" clip-rule="evenodd" d="M879.088,637.015c0.027-0.041,0.057-0.091,0.084-0.126
			C878.982,637.071,878.992,637.128,879.088,637.015z M977.595,715.156c-11.639-29.616-22.775-12.084-22.851-12.32
			c-3.247,6.22,2.232,46.866,1.227,46.142c1.28,20.651-23.55,35.985-23.459,35.437c-2.172,3.022-19.883,6.243-19.647,6.168
			c-1.418,0.445-21.697-2.024-22.01-2.187c-3.02-2.169-24.82-2.864-24.347-3.014c-1.82,0.833-8.947-4.468-9.419-4.321
			c-3.436-1-3.027-6.326-3.175-6.798c5.586-5.394,13.51-36.475,14.133-36.149c1.429-5.389,1.067-11.513,0.903-11.201
			c-1.571-4.186,1.269-5.078,1.269-5.078s8.906-2.275,8.432-2.126c2.602-0.818,4.748-2.271,4.275-2.122
			c9.388-7.367,16.381-61.287,16.545-61.599c-0.938-4.646,6.661-12.748,6.422-12.672c6.312-6.401,7.772-22.455,7.936-22.767
			c-1.761-11.403-5.396-5.584-5.792-5.198c-2.255-14.629-6.291-12.582-6.588-13.528c-2.605,0.817-4.555,4.548-4.79,4.623
			c-1.305-1.67-5.05-2.833-4.976-2.596c-5.432,0.923-7.342,11.401-7.964,11.077c-2.726-1.224-3.877,1.735-3.787,1.188
			c-1.361,1.468-0.771,12.46-0.771,12.46c1.452,5.891,0.232,8.076-0.073,8.439c-2.412,3.485-6.183,24.993-6.794,23.995
			c-9.636-4.801-49.543,7.127-49.903,6.938c-3.648,0.844-3.396-3.147-3.123-3.233c3.236-3.122,0.085-15.077-0.277-15.265
			c7.228-2.87,12.542-41.563,12.267-41.477c2.005-0.328,11.695-19.324,11.695-19.324c1.911-5.417,14.771-13.367,14.87-14
			c13.413-3.31,18.239-19.573,17.693-19.402c2.093-10.592-8.969-17.05-9.79-16.793c-17.512-1.124-24.945,13.55-24.945,13.55
			l-9.612,14.457c0,0-10.54,10.533-10.916,11.254c-3.234,3.122-3.922,0.93-3.65,0.845c-0.155-1.457,2.939-6.943,2.752-6.583
			c21.762-13.153,18.501-29.288,18.603-29.921c-3.907-15.328-0.534-16.086-0.26-16.172c11.083-15.521,5.825-26.513,6.202-27.232
			c-9.512-1.529-22.261,10.601-23.067,9.952c-5.268-5.27-21.378-8.639-21.002-9.361c-1.818-0.03-12.507-12.026-13.227-12.401
			c-4.327-7.071-14.525-10.791-14.975-11.253c-6.332,3.795,2.685,33.472,1.877,32.824c0.313,2.912-7.048,8.233-7.135,7.958
			c-14.963,8.912-5.437,35.42-5.437,35.42c0.08,4.394-2.668,4.794-2.979,4.63c-3.904-9.95-14.333-5.896-14.555-6.607
			c-5.283,1.401-35.954-3.527-36.188-3.454c-4.016-3.675-12.895-2.969-12.895-2.969c-1.557-0.81-5.021-4.4-5.021-4.4
			s-35.1-7.435-34.936-7.746c-17.342,4.405-10.692,18.953-10.383,19.114c0.993,1.508,3.274,1.313,3.124,0.839
			c0.289,8.719,7.964,8.667,8.404,8.558c0.861,10.106,16.697,5.135,16.15,5.046c0.521,1.657,10.602,3.95,10.838,3.877
			c1.657-0.521,14.079,2.597,13.618,1.962c1.188,3.786,17.931,6.587,17.931,6.587s17.174,5.003,17.559,5.404
			c4.649,3.217,6.082,11.086,5.695,10.689c-1.284,1.701-9.836,28.3-9.836,28.3s-7.08,18.857-7.23,18.385
			c-6.302,14.716-2.626,42.153-2.938,41.992c0.804,3.386,1.312,19.083,1.236,18.845c-3.778,31.858,18.95,42.138,18.416,41.265
			c2.23,20.354,13.337,26.744,13.028,26.582c9.463,6.126,15.146,17.599,14.688,16.963c9.929,24.175,21.209,25.312,20.821,24.914
			c10.152,11.627,16.778,31.901,16.778,31.901c3.49,11.12,17.221,20.066,16.983,20.139c2.291-0.719,12.078,6.922,12.354,7.051
			c1.707,6.223,12.015,12.59,11.866,12.118c3.311,8.059,1.168,9.512,1.402,9.438c-7.774,15.609-4.432,14.427-4.457,13.944
			c1.363,4.182,5.883,3.021,5.573,2.86c5.064,2.048,11.655-6.778,11.582-7.014c2.011,1.446,10.649-3.345,10.103-3.434
			c8.433-2.127,2.894-17.284,2.271-17.607c3.208-3.868-2.34-14.083-3.023-15.426c-2.001-2.232-20.148-40.981-20.296-41.455
			c0.354-2.191,11.851-4.501,11.851-4.501s21.697,2.027,21.771,2.262c52.234,5.694,70.79-9.748,70.95-10.06
			c13.847-6.426,26.839-31.3,26.528-31.463C989.148,758.575,977.67,715.394,977.595,715.156z"/>
	</g>
</g>
<g>
	<g>
		<path fill-rule="evenodd" clip-rule="evenodd" d="M705.237,448.061c0.998,0.208,1.997,0.417,2.995,0.626
			c4.484,1.479,7.617,3.839,10.217,6.55c-0.037,0.177-0.074,0.353-0.111,0.529c-3.535,9.784-6.49,19.212-11.276,25.778
			c-2.376,3.258-5.233,6.336-7.85,9.392c-2.611,3.051-5.642,5.687-8.267,8.753c-1.96,2.29-3.526,4.872-5.219,7.368
			c-6.473,9.545-9.922,24.581-12.946,39.036c-2.216,10.596-6.686,19.628-13.514,23.286c-1.7,0.911-3.833,1.756-5.838,1.538
			c-7.266-0.792-9.037-8.307-8.242-14.229c1.372-10.209,6.5-16.704,10.166-23.986c3.662-7.275,8.098-15.178,9.506-25.229
			c0.352-2.508,0.523-5.418,0.814-8.289c0.278-2.749,0.76-5.75,0.601-8.15c-0.253-3.825-1.481-7.425-1.665-11.382
			c-0.591-12.709,3.771-27.968,11.328-35.697c2.543-0.053,5.348-0.083,8.428,1.028c1.88,0.677,5.844,2.741,5.893,4.358
			c0.02,0.65-1.148,2.488-1.692,3.692c-3.8,8.42-8.745,21.447-6.478,30.091c4.187-5.24,9.329-10.148,13.031-16.583
			c2.401-4.174,4.567-9.194,6.37-13.747c0.668-1.688,0.88-3.814,2.089-4.712C703.992,447.863,704.881,448.37,705.237,448.061z"/>
		<path fill-rule="evenodd" clip-rule="evenodd" d="M673.093,446.119c-0.592,0.878-1.243,1.664-1.684,2.774
			C669.193,448.184,671.292,443.92,673.093,446.119z"/>
	</g>
</g>
<path d="M717.333,466L849,539c0,0,10.468,11.695-7.1,11.181l-130.567-72.514l1.834-3.667L843.5,546.5c0,0,6.005,0.627,3.834-4.5
	L716,468.583l0.75-3.167L717.333,466z"/>
<polygon points="699,457.25 697.917,459.417 688.417,455.667 689.333,453.25 "/>
<path d="M838.75,551.666c0,0,0.352-2.998,1.5-4.667s3.582-2.5,3.666-3.333c0,0,1-8.167,3.25-9.417c0,0,1.25-1.167,2.25,0.75
	c0,0,3.362,5.628,3,7.783s-12.952,13.68-14.25,11.467S838.668,552.213,838.75,551.666z"/>
<path d="M506.641,740.597c0,0,5.526,9.903,7.86,10.237s8.834-2.5,9.167-3.833s-3.5-10.333-3.5-10.333L506.641,740.597z"/>
<path d="M588.846,1037.593c0,0,3.791,7.696,4.924,14.086l14.063,5.321l3.167-8.833l-13.167-17.333L588.846,1037.593z"/>
<path d="M731.16,1095.179c0,0-3.493-0.153-4.326,0s2.163-28.347,2.163-28.347l3.337,0.667l10.167,24.833L731.16,1095.179z"/>
</svg>
