<?xml version="1.0" encoding="UTF-8"?>
<!DOCTYPE svg PUBLIC "-//W3C//DTD SVG 1.1//EN" "http://www.w3.org/Graphics/SVG/1.1/DTD/svg11.dtd">
<svg version="1.1" xmlns="http://www.w3.org/2000/svg" xmlns:xlink="http://www.w3.org/1999/xlink" x="0" y="0" width="45" height="63" viewBox="0, 0, 180, 252">
  <g id="Layer_1">
    <path d="M154.723,154.637 C154.557,154.604 154.617,154.947 154.385,154.823 C153.309,154.529 152.411,153.969 151.633,153.283 C150.468,151.543 148.275,151.106 146.973,149.521 C145.899,148.045 144.498,146.71 144.281,144.781 C143.798,144.052 143.413,143.274 143.087,142.465 C143.068,142.28 142.927,142.138 142.761,142.09 C142.37,140.958 141.638,139.964 141.269,138.813 C140.896,138.22 140.524,137.741 139.99,137.321 C139.942,136.87 139.34,136.464 139.247,135.908 C139.027,135.783 138.949,135.469 138.839,135.237 C138.171,134.508 138.109,133.326 137.347,132.548 C137.239,132.3 136.902,132.223 136.848,131.989 C136.215,131.447 136.573,130.574 136.264,129.862 C135.435,127.666 133.896,125.664 132.75,123.596 C132.75,122.354 131.504,121.872 130.742,121.204 C129.001,119.446 126.826,118.079 125.071,116.104 C124.541,115.777 123.98,115.497 123.421,115.234 C123.001,115.156 122.573,115.123 122.163,114.986 C122.008,115.031 121.91,114.719 121.788,114.938 C121.447,114.845 121.227,114.673 120.855,114.798 C119.724,114.582 118.665,114.425 117.452,114.487 C117.249,114.378 117.044,114.471 116.86,114.487 C114.42,114.69 112.042,114.146 109.622,114.193 C108.937,114.317 108.082,114.286 107.428,114.239 C107.099,114.193 106.637,114.193 106.341,114.083 C105.048,113.976 103.947,113.789 102.657,113.709 C102.626,113.68 102.609,113.663 102.583,113.632 C100.807,113.475 99.207,112.982 97.578,112.481 C97.344,112.421 97.201,112.156 96.934,112.138 C96.545,111.924 96.187,111.831 95.818,111.628 C95.502,111.519 95.162,111.378 94.887,111.287 C94.589,111.393 94.417,110.958 94.138,110.914 C93.624,110.043 92.693,110.043 92.087,109.453 C92.18,109.327 92.411,109.281 92.397,109.08 C91.761,108.642 90.857,108.892 90.11,108.706 C85.981,107.957 82.822,103.715 81.719,102.364 C80.634,100.452 78.782,98.99 77.244,97.405 C76.172,96.738 75.485,95.602 74.367,95.058 C73.684,95.136 73.481,94.376 72.953,94.157 C72.719,94.016 72.545,94.281 72.316,94.281 C72.206,93.878 71.6,94.188 71.347,93.83 C70.995,93.752 70.704,93.721 70.575,93.271 C69.428,92.197 68.334,91.203 66.874,90.661 C66.423,90.192 65.27,88.941 64.747,89.246 C65.117,90.131 65.537,91.034 65.537,92.042 C64.852,91.576 63.455,89.929 63.256,89.945 C63.362,90.378 63.854,94.107 64.978,94.904 C65.401,94.966 65.494,94.327 65.912,94.468 C65.401,94.886 63.169,96.393 62.511,97.266 C62.366,97.467 62.321,97.748 62.321,97.966 C61.963,98.464 61.636,99.007 61.249,99.458 C60.77,99.677 60.27,100.064 59.783,100.282 C59.23,100.282 58.914,100.762 58.37,100.685 C56.633,101.416 55.141,102.41 53.632,103.562 C53.632,104.026 54.048,104.322 54.222,104.68 C54.362,104.961 54.412,105.069 54.64,105.286 C54.536,105.659 55.219,105.69 55.236,106.092 C56.025,106.545 56.614,107.23 57.625,107.106 C58.417,106.793 58.668,108.225 59.448,107.774 C59.709,107.648 59.926,108.037 60.054,107.774 C61.418,108.068 62.96,107.526 64.376,107.82 C64.577,107.867 64.747,107.9 64.931,107.774 C65.134,108.037 65.506,107.774 65.757,107.849 C65.862,108.006 66.098,108.006 66.318,108.006 C66.626,108.083 66.469,108.41 66.607,108.598 C67.187,109.157 68.137,111.692 68.211,112.139 C68.629,113.042 68.445,114.178 68.897,115.046 C69.271,115.124 69.039,114.567 69.271,114.425 C69.565,115.201 69.439,116.087 69.517,116.915 C69.505,117.147 69.735,116.96 69.828,116.96 C70.107,118.341 70.155,119.914 70.418,121.358 C70.714,121.497 70.639,121.855 70.714,122.104 C71.103,122.135 70.915,122.617 71.057,122.849 C71.244,123.176 70.915,123.888 71.535,123.811 C71.709,124.854 71.788,125.945 71.91,126.984 C71.972,127.015 72.022,127.03 72.096,127.03 C72.206,127.015 72.471,126.938 72.361,126.798 C72.61,126.241 72.684,128.383 73.106,128.789 C73.34,128.789 73.291,128.479 73.403,128.334 C73.589,128.242 73.523,128.524 73.697,128.48 C73.81,128.93 74.568,131.447 75.003,132.252 C75.284,132.378 75.534,132.146 75.642,132.175 C75.642,132.877 76.495,132.862 76.495,133.512 C76.027,133.249 75.783,132.705 75.236,132.628 C75.315,133.059 77.292,143.158 77.211,151.31 C76.567,157.971 74.226,160.417 74.177,160.417 C74.197,160.79 69.795,160.254 70.764,164.041 C70.774,164.228 72.316,164.584 72.952,164.553 C73.272,163.365 74.46,162.75 75.191,162.609 C75.454,162.7 75.752,162.44 75.903,162.686 C75.408,162.595 75.098,163.015 74.597,162.984 C73.883,163.493 73.249,164.29 73.142,165.221 C73.204,165.579 73.167,166.109 73.56,166.2 C74.506,167.32 78.118,167.478 79.9,166.341 C80.554,165.312 85.066,160.803 85.263,159.441 C85.683,157.7 86.225,155.973 86.535,154.218 C86.552,153.953 86.802,153.78 86.724,153.471 C86.91,152.194 87.519,150.983 87.655,149.632 C87.984,149.322 87.889,148.788 88.168,148.479 C88.682,146.633 89.321,145.016 90.22,143.336 C90.373,143.118 90.269,142.777 90.561,142.652 C90.917,141.049 92.213,140.306 92.589,138.736 C92.772,138.114 92.784,137.368 92.879,136.729 C93.192,137.102 93.065,137.785 92.987,138.178 C93.005,138.532 92.49,138.72 92.645,139.076 C93.192,139.14 95.802,138.968 96.421,139.264 C96.456,139.029 96.33,138.61 96.421,138.55 C97.309,138.625 98.408,138.674 99.254,139.076 C99.285,139.043 100.426,137.76 101.647,138.256 C102.253,137.476 103.325,137.462 104.18,137.399 C104.284,137.23 104.727,135.843 106.341,136.201 C106.418,135.922 107.194,134.199 108.732,134.601 C109.013,134.477 110.392,132.459 111.983,134.413 C112.323,135.411 114.049,141.605 118.013,146.757 C118.929,148.715 117.129,150.224 116.522,151.839 C116.288,152.664 115.635,153.36 115.401,154.154 C114.208,155.804 113.712,157.804 112.169,159.252 C111.561,159.89 108.107,159.159 108.547,162.874 C108.297,163.45 109.061,163.106 109.216,163.481 C109.278,163.543 109.4,163.481 109.371,163.404 C109.886,163.415 110.284,163.837 110.863,163.731 C111.375,163.404 112.06,163.899 112.577,163.731 C112.722,163.682 113.552,163.731 113.66,163.51 C113.927,163.388 114.161,163.106 114.409,162.951 C115.306,162.08 116.227,161.38 117.268,160.684 C117.375,160.732 117.485,160.713 117.582,160.635 C117.532,160.312 118.155,160.248 117.872,159.778 C118.06,159.407 118.124,159.02 118.352,158.631 C118.389,158.037 118.944,156.702 119.284,156.64 C119.443,156.113 119.724,155.74 119.956,155.227 C121.06,153.641 121.869,151.729 123.284,150.271 C123.657,149.35 124.464,148.852 124.698,147.84 C124.946,147.922 127.947,149.742 129.02,151.091 C129.67,151.699 129.655,152.805 129.359,153.548 C129.467,153.873 129.187,154.105 129.204,154.45 C129.109,154.591 128.631,157.371 128.208,158.662 C128.179,159.329 127.975,160.028 127.681,160.635 C127.662,161.26 127.261,161.709 127.039,162.235 C126.826,162.408 126.592,162.408 126.342,162.502 C126.019,162.377 125.596,162.425 125.257,162.471 C124.901,162.471 124.709,162.735 124.4,162.874 C123.935,163.543 123.032,163.994 123.235,165.002 C123.33,165.532 123.779,166 124.249,166.155 C125.149,166.622 126.126,166.807 127.228,166.716 C127.528,166.26 128.101,166.716 128.397,166.31 C129.08,165.61 129.933,165.066 130.636,164.414 C130.932,164.46 131.053,164.087 131.255,163.915 C131.349,163.822 131.349,163.574 131.564,163.623 C131.661,163.338 131.942,163.075 132.048,162.766 C132.002,162.019 132.282,161.38 132.234,160.684 C132.658,159.581 132.917,158.416 133.17,157.249 C133.538,156.05 134.068,154.779 134.286,153.548 C134.879,151.977 135.619,150.439 136.078,148.852 C136.2,148.247 136.651,147.608 136.264,146.989 C134.941,145.995 125.363,135.425 128.834,129.004 C128.846,129.58 128.533,130.215 128.649,130.793 C128.397,131.352 128.649,132.068 128.726,132.658 C129.299,133.434 128.846,134.413 129.283,135.27 C129.5,135.193 129.604,134.912 129.84,134.864 C130.138,135.036 130.044,135.47 130.216,135.752 C130.351,135.89 130.51,135.967 130.695,135.829 C131.268,136.619 131.442,137.555 131.674,138.488 C131.922,139.295 132.081,140.214 132.64,140.833 C132.545,141.346 133.12,141.394 133.015,141.907 C133.338,142.048 133.292,141.672 133.538,141.61 C133.493,141.346 133.772,141.456 133.803,141.61 C133.962,141.893 133.896,142.388 134.286,142.435 C134.381,142.357 134.381,142.125 134.55,142.09 C134.813,142.686 135.203,143.29 135.482,143.893 C135.776,143.909 135.517,143.57 135.699,143.476 C135.871,143.648 135.827,143.893 135.887,144.112 C136.51,145.917 137.97,147.363 138.094,149.365 C138.094,149.988 138.344,150.408 138.578,150.936 C138.903,150.814 138.562,150.425 138.717,150.158 C138.98,150.176 138.98,150.58 139.247,150.607 C139.431,150.472 139.82,149.884 139.836,149.599 C140.134,150.255 140.426,150.936 140.896,151.497 C141.171,151.652 141.345,151.184 141.405,151.168 C141.546,150.858 141.871,151.122 141.966,151.309 C142.101,151.544 142.059,151.884 141.856,152.056 C141.888,152.244 142.154,152.18 142.308,152.244 C142.465,152.865 142.974,153.269 143.316,153.78 C143.491,154.03 143.551,154.434 143.88,154.529 C143.959,154.386 144.092,154.482 144.092,154.295 C144.267,154.262 144.406,153.89 144.623,154.186 C144.654,154.386 145.089,154.482 145.06,154.778 C145.245,154.9 145.478,154.9 145.696,154.778 C146.008,155.15 146.134,155.692 146.364,156.081 C147.25,156.547 146.611,155.181 147.343,155.01 C147.559,155.21 147.732,155.585 147.977,155.757 C148.138,155.709 148.212,155.599 148.308,155.459 C148.852,155.227 148.852,155.908 149.241,156.081 C149.647,156.282 149.966,155.475 150.222,156.081 C150.346,156.063 150.539,156.175 150.622,155.972 C150.794,155.771 151.137,155.881 151.29,156.02 C151.398,156.485 151.711,156.129 152.042,156.235 C152.112,156.113 152.161,155.972 152.3,155.866 C152.892,156.113 153.36,155.614 153.873,155.413 C154.2,155.506 154.415,155.274 154.697,155.198 C154.574,154.964 154.696,154.855 154.723,154.637 z" fill="#000000"/>
    <path d="M44.063,148.177 C43.997,148.206 43.929,148.237 43.86,148.27 C43.988,148.222 44.119,148.175 44.249,148.129 C44.187,148.145 44.124,148.161 44.063,148.177 z" fill="#000000"/>
    <path d="M44.249,148.129 C44.74,148.001 45.238,147.876 45.73,147.743 C45.379,147.759 44.816,147.929 44.249,148.129 z" fill="#000000"/>
    <path d="M156.041,239.49 C156.184,237.074 154.95,235.446 154.798,233.397 C154.893,233.267 155.146,233.064 155.124,233.011 C154.428,232.685 154.286,231.742 154.312,230.692 C154.723,230.61 154.28,230.392 154.745,230.262 C154.545,229.933 154.35,229.617 154.153,229.292 C153.711,227.862 154.033,226.511 153.828,224.917 C153.869,224.664 153.9,224.411 153.938,224.158 C153.85,223.89 153.755,223.631 153.67,223.352 L153.67,223.302 C153.742,223.276 153.812,223.26 153.882,223.245 C154.112,222.59 153.385,220.721 153.502,219.684 C153.606,218.839 153.986,216.167 153.78,215.632 C152.869,213.342 149.283,211.596 149.789,208.775 C149.833,208.798 149.89,208.817 149.947,208.836 C149.96,208.893 149.979,208.946 150.001,208.997 C150.159,209.439 149.859,210.142 150.105,210.506 L150.159,210.506 C150.263,210.291 150.15,210.367 150.371,210.401 C150.453,210.736 150.538,210.762 150.75,210.939 C150.776,210.635 150.782,210.325 150.807,210.025 L150.864,210.025 C150.877,210.18 150.902,210.342 150.918,210.506 L150.965,210.506 C150.981,210.268 150.991,210.199 151.076,210.082 L151.13,210.082 C151.218,210.401 151.313,210.73 151.402,211.046 L151.456,211.046 C151.408,209.709 150.814,208.887 150.697,207.596 L150.75,207.596 C150.807,207.628 150.864,207.666 150.918,207.7 C150.991,207.966 151.06,208.238 151.13,208.507 L151.187,208.507 C151.203,208.203 151.218,207.902 151.244,207.596 L151.509,207.596 L151.509,207.7 C151.686,208.08 151.392,208.491 151.456,208.946 C151.541,209.582 152.098,210.198 152.205,211.315 L152.262,211.315 C152.287,211.122 152.3,210.919 152.319,210.73 C152.351,210.742 152.395,210.759 152.426,210.778 C152.483,211.069 152.54,211.353 152.584,211.644 C152.698,211.584 152.806,211.537 152.91,211.486 C153.014,210.192 152.445,207.71 153.014,206.998 L153.014,207.109 C153.132,207.394 153.242,207.681 153.343,207.966 L153.4,207.966 L153.4,207.7 C153.691,207.82 153.691,208.09 153.881,208.295 C153.457,207.141 153.014,205.992 152.584,204.845 L152.641,204.845 C152.667,204.883 152.679,204.914 152.698,204.948 C152.926,205.341 153.163,205.739 153.4,206.141 C153.059,205.037 152.72,203.943 152.372,202.842 L152.426,202.842 C152.445,202.884 152.458,202.918 152.483,202.956 C152.806,203.478 153.131,203.997 153.457,204.516 C153.131,203.01 151.781,202.112 151.455,200.581 L151.509,200.581 C151.629,200.664 151.762,200.755 151.888,200.85 C151.496,200.185 151.066,199.588 150.864,198.747 C150.918,198.779 150.965,198.813 151.022,198.851 C151.076,198.977 151.129,199.104 151.186,199.23 L151.243,199.23 C151.098,198.794 150.949,198.364 150.807,197.934 C150.917,197.988 151.022,198.045 151.129,198.095 C150.99,197.807 150.845,197.522 150.696,197.229 L150.696,197.181 C150.782,197.212 150.876,197.244 150.965,197.288 L150.965,197.067 C150.516,196.811 150.696,195.698 150.75,195.451 C150.823,195.524 150.902,195.597 150.965,195.663 C150.902,195.205 150.664,194.803 150.864,194.37 C150.965,194.391 151.076,194.414 151.186,194.423 C151.076,193.594 150.965,192.772 150.864,191.943 C151.129,192.196 151.401,192.449 151.667,192.7 L151.667,192.213 L152.002,192.213 C151.939,192.162 151.888,192.105 151.835,192.055 C151.629,191.77 151.439,191.473 151.243,191.188 L151.243,191.134 C151.477,191.207 151.708,191.279 151.939,191.355 C151.813,190.938 151.686,190.524 151.566,190.113 L151.613,190.113 C151.882,190.267 151.952,190.445 152.161,190.381 L152.047,190.381 C151.866,189.967 151.686,189.553 151.509,189.135 L151.939,189.135 C151.686,188.62 151.44,188.098 151.187,187.577 C151.604,187.672 151.645,187.912 151.939,188.114 C151.92,187.988 151.908,187.861 151.889,187.737 C152.034,187.819 152.015,187.877 152.161,187.845 C151.708,187.267 151.661,186.432 151.402,185.635 C151.566,185.736 151.724,185.844 151.889,185.954 C151.851,185.774 151.813,185.591 151.781,185.41 L151.835,185.41 C151.92,185.467 152.015,185.527 152.097,185.574 C151.946,185.23 151.772,185.049 151.724,184.604 C151.794,184.588 151.867,184.566 151.939,184.55 C151.835,184.335 151.724,184.117 151.614,183.902 L151.835,183.902 C151.708,183.649 151.582,183.402 151.455,183.149 L151.509,183.149 C151.566,183.174 151.614,183.219 151.667,183.259 C151.582,182.93 151.487,182.605 151.402,182.285 C151.598,182.392 151.794,182.5 152.002,182.605 C151.952,182.573 151.92,182.532 151.889,182.5 C151.803,181.83 151.117,180.961 151.509,180.122 C151.566,180.16 151.614,180.198 151.667,180.229 C151.487,179.629 151.18,179.227 151.13,178.452 L151.187,178.452 C151.338,178.614 151.478,178.772 151.614,178.933 C151.487,178.648 151.361,178.361 151.243,178.076 C151.256,178.051 151.275,178.041 151.288,178.019 C151.402,178.108 151.509,178.199 151.614,178.288 C151.408,177.687 151.225,176.858 150.965,176.185 C151.044,176.2 151.108,176.217 151.187,176.238 C150.649,175.447 149.51,173.208 149.352,172.244 C149.441,172.209 149.536,172.177 149.621,172.137 C148.758,171.827 148.957,170.998 148.593,170.514 C148.018,169.961 147.448,169.4 146.87,168.848 L147.186,168.848 C146.996,168.626 146.797,168.414 146.601,168.196 C146.658,168.117 146.775,168.114 146.658,168.089 C146.253,167.693 145.836,167.509 145.519,167.01 L145.519,166.956 C145.595,166.978 145.658,166.994 145.741,167.01 C145.209,166.617 144.687,166.216 144.172,165.82 C144.213,165.786 144.245,165.755 144.276,165.713 C143.66,165.65 142.505,164.812 142.717,164.473 C142.104,164.416 140.491,163.796 140.554,163.281 L140.554,163.233 C140.187,163.307 139.985,163.366 140.016,163.012 L140.016,162.965 C139.279,162.99 135.949,161.753 135.968,161.504 C135.051,161.51 135.146,161.247 134.346,161.127 C134.4,161.058 134.456,160.982 134.513,160.916 C134.229,160.931 133.935,160.947 133.641,160.966 C133.697,160.899 133.754,160.821 133.799,160.751 C133.786,160.735 133.776,160.713 133.754,160.694 C133.482,160.735 133.217,160.773 132.945,160.798 C133.033,160.694 133.122,160.589 133.217,160.482 C132.913,160.558 132.439,160.678 132.186,160.482 C132.243,160.384 132.3,160.302 132.353,160.207 L131.326,160.207 C131.31,160.197 131.294,160.176 131.268,160.157 C131.31,160.049 131.341,159.938 131.382,159.831 L131.326,159.831 C130.914,159.951 130.067,159.907 129.871,159.512 C129.58,159.653 129.295,159.796 129.011,159.938 C128.985,159.906 128.96,159.872 128.947,159.83 C129.011,159.704 129.055,159.577 129.112,159.455 L129.112,159.398 C128.093,159.438 128.062,159.527 127.277,159.83 C127.309,159.704 127.347,159.577 127.388,159.455 C126.708,159.765 126.006,160.226 125.174,160.429 C123.191,160.906 120.851,160.618 119.124,161.127 C118.605,161.279 116.888,161.855 116.92,161.127 C116.487,161.359 116.05,161.595 115.623,161.833 C115.054,162.01 111.306,162.373 111.196,162.316 C110.87,162.411 110.648,162.579 110.168,162.579 C110.184,162.506 110.206,162.443 110.225,162.371 C109.646,162.506 108.539,162.997 107.954,162.579 C105.386,163.676 100.579,163.876 97.163,163.718 L93.336,163.718 L93.336,163.446 C91.888,163.626 89.579,163.847 88.425,163.13 C88.004,163.176 87.593,163.233 87.182,163.281 C86.385,162.911 84.819,163.132 83.943,162.801 C83.956,162.693 83.981,162.579 83.988,162.474 C83.134,162.563 82.375,162.93 81.514,162.854 C81.546,162.74 81.584,162.639 81.625,162.531 C80.825,162.611 80.098,162.775 79.459,162.639 L79.459,162.263 C78.991,162.411 78.611,162.529 78.01,162.531 C77.988,162.455 77.966,162.386 77.947,162.316 C77.776,162.386 77.593,162.455 77.403,162.531 C76.897,162.455 76.359,162.386 75.853,162.316 C74.351,162.348 72.865,162.386 71.369,162.424 C71.378,161.969 71.514,161.886 71.631,161.557 C71.094,161.937 70.604,162.531 69.807,162.639 C69.781,162.617 69.775,162.601 69.75,162.58 C69.775,162.164 69.914,161.962 70.072,161.669 C69.87,161.772 69.671,161.88 69.471,161.994 C69.544,161.833 69.623,161.669 69.693,161.504 C69.228,161.7 68.975,162.074 68.453,162.156 C68.374,161.947 68.415,161.962 68.232,162.095 C67.821,162.266 67.615,162.532 67.055,162.58 C67.014,162.567 66.982,162.55 66.941,162.531 L66.941,162.475 C67.014,162.278 67.077,162.086 67.156,161.88 C67.014,161.969 66.872,162.063 66.729,162.156 C66.777,161.88 66.834,161.612 66.887,161.342 C66.872,161.327 66.856,161.311 66.834,161.289 C66.207,161.46 65.211,162.709 64.62,162.095 L64.62,162.042 C65.094,161.428 65.569,161.068 65.812,160.261 C65.771,160.277 65.739,160.303 65.701,160.322 C65.543,160.678 65.132,161.127 64.784,161.289 L64.784,161.235 C64.895,160.916 65.006,160.59 65.101,160.261 C64.462,160.735 63.968,161.441 63.051,161.612 C63.019,161.542 62.981,161.473 62.95,161.397 C62.697,161.488 62.444,161.58 62.191,161.669 L62.191,161.612 C62.766,161.02 63.345,160.429 63.914,159.831 C63.102,160.227 62.681,161.083 61.764,161.454 L61.764,161.397 C62.374,160.663 62.981,159.923 63.589,159.186 C62.513,159.692 61.912,160.948 60.9,161.454 C61.179,160.606 62.064,160.069 62.57,159.398 C62.001,159.856 61.416,160.303 60.847,160.752 L60.847,160.695 C61.09,160.368 61.343,160.05 61.606,159.723 C61.343,159.888 61.09,160.05 60.847,160.208 L60.847,160.157 C61.542,159.227 62.349,159.262 63.007,158.591 C62.633,158.721 62.285,158.844 61.912,158.964 C61.938,158.914 61.954,158.861 61.976,158.804 C61.185,159.161 60.862,160.05 60.141,160.429 C60.477,159.398 61.615,158.496 62.238,157.674 C60.825,158.228 60.521,159.923 58.949,160.369 L58.949,160.322 C59.509,159.705 60.066,159.097 60.625,158.484 C59.939,159.097 59.256,159.704 58.579,160.322 L58.579,160.261 C58.864,159.831 59.148,159.398 59.439,158.964 C58.845,159.451 58.421,160.081 57.769,160.53 L57.769,160.369 C57.928,160.033 58.095,159.689 58.253,159.35 C58.016,159.455 57.789,159.559 57.558,159.67 C58.127,158.892 59.028,158.513 59.772,157.889 C59.677,157.693 59.645,157.741 59.772,157.57 C59.93,157.248 60.256,157.137 60.521,156.915 C60.341,156.934 60.167,156.957 59.977,156.972 C60.3,156.789 60.625,156.615 60.951,156.434 C60.61,156.52 60.262,156.615 59.93,156.704 C60.034,156.577 60.142,156.451 60.255,156.32 C60.413,156.213 60.578,156.109 60.736,156.004 C58.592,156.143 57.725,157.823 56.207,158.544 L56.207,158.484 C56.271,158.38 56.34,158.266 56.419,158.155 C56.403,158.142 56.378,158.127 56.365,158.108 C56.093,158.216 55.828,158.323 55.556,158.427 C55.575,158.393 55.587,158.361 55.613,158.323 C56.071,158.114 57.717,156.098 58.525,155.572 C58.109,155.511 54.694,157.192 54.205,157.51 C54.246,157.554 54.268,157.579 54.31,157.617 C54.417,157.533 54.531,157.44 54.639,157.349 C54.601,157.425 54.569,157.495 54.531,157.57 C54.373,157.975 54.057,158.203 53.614,158.323 L53.614,158.266 C53.826,158.07 54.047,157.87 54.259,157.674 C54.221,157.636 54.183,157.602 54.151,157.571 C53.905,157.741 53.699,157.982 53.446,157.994 C53.234,156.457 54.101,155.8 54.743,154.974 C54.48,155.154 54.205,155.338 53.936,155.515 L53.936,155.464 C54.411,154.765 54.996,154.202 55.492,153.569 C55.375,153.63 55.249,153.681 55.113,153.731 C55.201,153.569 55.264,153.409 55.334,153.253 C54.664,153.645 54.31,154.379 53.557,154.705 C53.74,154.29 53.92,153.883 54.094,153.468 C54.063,153.485 54.025,153.5 53.984,153.523 C53.582,154.695 52.538,155.54 51.612,156.214 C51.801,155.876 51.975,155.53 52.149,155.195 C52.133,155.176 52.127,155.155 52.102,155.138 C51.811,155.353 51.526,155.572 51.242,155.783 L51.242,155.733 C51.501,155.176 51.779,154.613 52.045,154.06 C51.991,154.094 51.937,154.126 51.887,154.168 C51.59,154.689 51.305,155.202 51.02,155.733 L50.97,155.733 L50.97,155.623 C50.685,154.885 52.497,152.899 52.804,152.165 C52.962,152.156 53.12,152.14 53.288,152.118 C53.067,152.093 53.082,152.096 52.962,152.005 C52.981,151.935 53.003,151.866 53.019,151.792 C52.614,152.02 52.149,152.334 51.4,152.118 L51.4,152.064 C51.634,151.828 51.865,151.596 52.102,151.359 C52.371,151.128 52.64,150.898 52.908,150.66 C52.149,150.976 51.684,151.65 51.065,152.118 C50.742,152.08 50.432,152.045 50.103,152.005 L50.103,151.956 C50.495,151.811 50.894,151.665 51.296,151.524 C51.115,151.499 50.932,151.492 50.742,151.467 C51.09,151.255 51.432,151.033 51.78,150.822 C51.454,150.926 51.128,151.033 50.805,151.144 L50.805,151.088 C51.115,150.875 51.413,150.66 51.723,150.439 C51.381,150.59 51.043,150.733 50.695,150.875 C50.843,150.59 51.137,150.499 51.343,150.281 C51.09,150.388 50.843,150.496 50.584,150.607 C50.894,150.196 51.201,149.778 51.501,149.363 C51.02,149.867 50.536,150.373 50.046,150.875 L49.667,150.875 C49.692,150.822 49.705,150.765 49.73,150.717 C49.936,150.432 50.167,150.135 50.369,149.85 C50.046,150.246 49.73,150.641 49.407,151.033 C48.819,151.391 47.991,151.499 47.406,151.735 C47.295,151.682 47.184,151.628 47.08,151.581 C47.099,151.543 47.121,151.499 47.13,151.467 C47.491,151.404 47.807,151.223 47.99,150.986 C47.358,151.088 46.536,151.195 45.783,151.088 C45.77,151.052 45.751,151.02 45.729,150.986 C45.966,150.752 46.204,150.514 46.425,150.28 C46.109,150.514 45.783,150.752 45.46,150.986 C43,150.613 42.235,151.043 40.606,151.843 L40.606,151.792 C41.45,150.021 42.178,150.259 43.569,149.199 C42.639,149.363 42.013,150.006 41.254,150.337 C41.74,149.506 42.918,148.717 43.86,148.271 C43.086,148.559 42.393,148.851 42.329,148.823 C42.608,148.623 42.867,148.431 43.136,148.229 C41.539,148.49 41.033,150.12 40.068,150.281 C40.021,150.227 39.995,150.179 39.957,150.12 C40.122,149.047 40.764,148.63 41.365,148.016 C41.09,148.048 41.134,148.21 41.09,147.959 C40.748,148.254 40.407,148.538 40.068,148.823 C40.141,148.539 40.21,148.254 40.28,147.959 L40.236,147.959 C40.084,148.193 39.932,148.431 39.799,148.668 L39.736,148.668 L39.736,148.608 C39.888,148.21 39.983,147.893 40.331,147.691 C40.457,147.969 41.222,147.134 41.523,146.989 C41.754,147.131 41.649,147.058 41.956,147.096 C41.925,146.732 42.155,146.675 42.393,146.448 C42.368,146.416 42.355,146.375 42.33,146.34 C41.918,146.416 41.501,146.483 41.09,146.559 C41.333,146.087 41.887,145.863 42.282,145.534 C41.918,145.6 41.555,145.673 41.197,145.745 L41.197,145.692 C41.596,145.189 41.982,144.687 42.393,144.189 C41.76,144.474 41.444,145.252 40.875,145.534 C40.584,145.568 40.299,145.6 40.015,145.642 C40.321,145.644 40.375,145.642 40.495,145.745 C40.407,145.895 40.321,146.03 40.236,146.179 L39.088,146.179 L39.088,146.131 C39.477,145.73 39.847,145.332 40.236,144.936 C39.901,145.176 39.578,145.408 39.256,145.642 L38.509,145.642 C38.534,145.423 38.572,145.205 38.604,144.997 C38.455,145.056 38.528,145.041 38.392,145.047 C38.307,143.807 37.655,144.086 38.013,142.561 C37.744,142.757 37.674,143.048 37.364,143.209 C37.254,143.032 37.149,142.848 37.042,142.671 C37.276,142.134 37.516,141.594 37.744,141.056 C37.276,141.277 36.716,142.074 36.51,142.561 C36.2,142.403 36.011,142.545 35.641,142.72 L35.641,142.511 C35.6,142.596 35.568,142.688 35.53,142.779 C33.923,143.121 34.028,145.016 33.047,145.853 L33.047,144.944 C33.038,145.482 32.964,146.175 32.721,146.448 C32.652,146.372 32.668,146.357 32.564,146.289 C32.551,146.376 32.526,146.467 32.519,146.559 L32.519,146.448 C32.026,145.869 31.924,144.851 31.804,143.911 L31.804,142.621 C31.76,142.868 31.697,143.121 31.646,143.371 L31.592,143.371 C31.52,142.308 31.45,141.248 31.371,140.179 L31.371,143.048 C31.52,143.956 31.962,145.863 31.592,146.827 C31.529,146.789 31.482,146.751 31.434,146.719 C31.213,145.72 31.317,144.36 30.95,143.592 C30.928,143.7 30.912,143.801 30.887,143.911 L30.843,143.911 C30.739,143.386 30.653,142.868 30.565,142.353 L30.565,143.643 C30.549,143.608 30.533,143.57 30.517,143.538 C30.432,143.232 30.327,142.924 30.242,142.621 L30.191,142.621 C30.21,142.924 30.217,143.232 30.242,143.538 C30.217,143.5 30.21,143.462 30.191,143.428 C30.153,143.339 30.122,143.247 30.084,143.159 L30.027,143.159 C30.169,144.265 30.97,145.376 30.622,146.72 C30.549,146.66 30.476,146.61 30.407,146.559 C30.35,145.806 30.413,145.265 30.242,144.613 L30.192,144.613 C30.242,144.908 30.381,145.328 30.242,145.642 L30.192,145.642 C29.996,144.851 29.799,144.061 29.591,143.264 L29.758,143.264 C29.799,143.428 29.822,143.592 29.869,143.753 C29.837,143.19 29.717,141.893 30.027,141.704 C30.043,141.754 30.059,141.815 30.084,141.862 C30.027,141.309 29.97,140.746 29.916,140.179 C29.812,140.597 29.711,141.014 29.591,141.425 C29.584,141.773 29.958,142.473 29.648,142.89 C29.632,142.688 29.61,142.488 29.591,142.296 L29.537,142.296 C29.521,144.161 29.97,145.382 30.027,147.371 L29.869,147.371 C29.686,146.719 29.496,146.074 29.325,145.423 C29.23,145.593 29.357,145.54 29.167,145.534 C29.293,146.055 29.41,146.578 29.537,147.096 C29.654,147.792 29.293,147.944 29.379,148.339 C27.924,147.87 23.411,143.215 22.791,141.704 C22.684,141.72 22.589,141.729 22.475,141.754 L22.475,141.324 C22.105,141.375 21.431,140.552 21.504,140.24 C21.21,140.29 21.156,140.343 21.02,140.132 C20.998,140.027 20.982,139.92 20.957,139.812 C20.729,139.892 20.745,139.951 20.587,139.762 C20.565,139.61 20.546,139.474 20.533,139.325 C20.407,139.373 20.28,139.433 20.154,139.483 C20.122,139.342 20.081,139.199 20.04,139.057 C19.954,139.11 19.869,139.164 19.78,139.215 C19.448,138.968 19.053,138.861 18.8,138.519 C18.604,138.655 18.224,138.715 18.205,138.731 C17.952,138.956 17.813,139.3 17.446,139.274 C17.424,139.594 17.383,139.92 17.345,140.24 C17.076,140.29 17.187,140.204 17.076,140.41 C17.162,140.537 17.234,140.575 17.345,140.67 C17.288,140.746 17.234,140.822 17.187,140.891 C17.098,140.906 17.004,140.923 16.918,140.948 C17.013,141.071 17.124,141.191 17.234,141.324 C17.288,141.359 17.345,141.397 17.402,141.425 C17.345,141.628 17.288,141.83 17.234,142.023 C17.402,141.973 17.56,141.912 17.725,141.861 L17.725,142.134 C17.623,142.342 17.56,142.298 17.623,142.403 C17.709,142.456 17.794,142.511 17.883,142.561 C17.794,142.595 17.709,142.637 17.623,142.671 C17.63,142.709 17.645,142.741 17.668,142.779 C17.971,142.905 18.278,143.032 18.585,143.158 L18.585,143.209 C18.325,143.247 18.193,143.295 18.047,143.428 C18.256,143.447 18.477,143.462 18.699,143.485 C18.553,143.607 18.405,143.731 18.256,143.86 C18.405,143.877 18.553,143.892 18.699,143.911 C18.578,144.193 18.604,144.237 19.069,144.29 L19.069,144.398 C19.141,144.617 19.028,144.699 18.964,144.935 C19.084,145.015 19.217,145.078 19.338,145.154 C19.306,145.578 19.331,145.714 19.123,146.014 C19.385,146.055 19.629,146.087 19.882,146.131 L19.882,146.289 C19.78,146.498 19.67,146.719 19.559,146.938 L19.67,146.938 C19.828,146.972 19.995,147.004 20.154,147.042 C20.081,147.286 20.034,147.273 19.882,147.419 C20.04,147.434 20.207,147.459 20.366,147.478 C20.312,147.617 20.255,147.763 20.208,147.902 C20.704,147.969 21.039,148.655 21.235,148.823 C22.295,149.759 23.402,150.337 22.959,152.386 L22.912,152.386 C22.832,152.317 22.76,152.241 22.684,152.165 C22.643,152.481 22.589,152.488 22.412,152.656 C22.358,152.639 22.311,152.618 22.254,152.601 C22.168,152.456 22.083,152.317 21.988,152.165 C21.83,152.409 21.852,152.567 21.504,152.488 C21.441,152.782 21.393,153.067 21.336,153.36 C20.872,153.493 20.982,153.541 20.634,153.841 C20.492,153.791 20.35,153.731 20.208,153.68 C20.192,154.101 20.072,154.307 19.828,154.496 C19.543,154.41 19.433,154.313 19.237,154.168 C19.259,154.395 19.275,154.632 19.29,154.866 C19.085,154.784 18.902,154.689 18.699,154.6 C18.753,154.885 18.864,155.138 18.699,155.353 C18.604,155.319 18.516,155.277 18.427,155.245 C18.405,155.54 18.405,155.543 18.256,155.675 C18.067,155.606 17.867,155.53 17.668,155.464 C17.725,155.732 17.813,155.796 17.668,156.004 L17.503,156.004 C17.541,156.144 17.573,156.289 17.624,156.434 C17.503,156.378 17.402,156.321 17.288,156.27 C17.339,156.542 17.339,156.615 17.235,156.812 L17.187,156.812 C17.054,156.681 16.928,156.559 16.801,156.434 C16.887,156.884 17.266,157.269 17.187,157.617 C17.149,157.674 17.108,157.729 17.076,157.786 C16.839,157.741 16.602,157.712 16.371,157.674 C16.507,157.817 16.624,157.965 16.751,158.108 C16.602,158.07 16.466,158.032 16.317,157.994 C16.444,158.142 16.57,158.285 16.687,158.427 C16.517,158.443 16.333,158.469 16.159,158.484 C16.181,158.519 16.191,158.56 16.207,158.591 C16.428,158.665 16.643,158.737 16.865,158.804 C16.39,159.471 16.223,160.67 15.834,161.185 C15.726,161.17 15.622,161.147 15.511,161.128 C15.622,161.299 15.644,161.318 15.676,161.612 C15.558,161.682 15.454,161.758 15.353,161.834 C15.423,161.903 15.486,161.969 15.558,162.042 C15.454,162.172 15.353,162.298 15.242,162.425 C15.479,162.501 15.353,162.387 15.454,162.58 C15.201,163.01 15.062,163.535 14.967,164.149 C14.752,164.145 14.872,164.105 14.705,164.263 C14.863,165.06 13.999,166.982 13.835,167.868 C13.345,170.451 12.405,171.885 11.305,173.75 C10.625,174.898 10.277,176.15 9.629,177.27 C8.87,178.573 8.073,179.724 7.794,181.527 C7.51,183.377 9.787,188.326 10.704,189.026 C11.447,189.595 13.386,190.426 13.898,189.085 L13.946,189.085 C14.277,191.198 18.721,191.537 20.533,190.43 C21.504,189.838 21.125,188.851 21.672,187.786 C21.874,187.521 22.089,187.249 22.311,186.979 C22.348,187.03 22.374,187.087 22.412,187.141 L22.412,187.521 C22.627,187.359 22.665,187.249 22.959,187.299 C22.981,187.428 23,187.552 23.006,187.681 C23.085,187.624 23.158,187.578 23.228,187.521 C23.402,186.755 23.671,186.445 24.202,186.059 L24.246,186.059 C24.271,186.188 24.287,186.312 24.309,186.441 C24.341,186.416 24.373,186.401 24.414,186.382 C24.626,185.844 25.11,185.553 25.552,185.252 C25.568,185.429 25.584,185.61 25.6,185.796 L25.6,185.682 C25.71,185.452 25.821,185.221 25.922,184.984 C26.144,185.126 26.359,185.269 26.574,185.41 L26.574,185.307 C26.628,185.056 26.681,184.803 26.732,184.55 C26.77,184.567 26.808,184.588 26.839,184.605 C26.928,184.788 26.991,184.832 27.165,184.93 C27.238,184.478 27.314,184.025 27.377,183.586 C27.434,183.612 27.491,183.65 27.535,183.688 C27.687,183.848 27.839,184.01 27.972,184.171 L27.972,183.633 C28.263,183.798 28.557,183.956 28.842,184.118 C28.693,183.88 28.557,183.65 28.408,183.418 C28.43,183.38 28.446,183.342 28.471,183.308 C28.889,183.355 28.921,183.536 29.212,183.688 C29.199,183.469 29.174,183.26 29.167,183.039 C29.294,183.112 29.411,183.175 29.537,183.26 C29.452,183.039 29.363,182.823 29.275,182.606 C29.483,182.682 29.711,182.758 29.917,182.824 C29.68,182.536 29.474,182.423 29.433,181.907 C29.474,181.923 29.496,181.938 29.537,181.957 C29.673,182.109 29.8,182.248 29.917,182.393 C29.885,182.233 29.844,182.065 29.812,181.907 C30.28,181.938 30.391,182.132 30.723,182.286 C30.597,181.936 30.518,181.841 30.242,181.638 C30.265,181.603 30.28,181.562 30.296,181.527 C30.717,181.394 30.875,181.381 31.267,181.527 C31.213,181.381 31.16,181.236 31.109,181.097 C31.198,181.056 31.286,181.025 31.372,180.989 C31.647,181.211 31.767,181.52 32.026,181.748 C31.893,180.951 32.406,180.613 32.194,179.806 C32.33,179.892 32.478,179.981 32.614,180.069 C32.564,179.854 32.519,179.639 32.456,179.424 C32.605,179.496 32.741,179.564 32.89,179.639 C32.848,179.579 32.81,179.532 32.779,179.481 C32.589,179.187 32.374,178.902 32.194,178.615 C32.216,178.564 32.266,178.503 32.289,178.453 C32.33,178.438 32.368,178.412 32.399,178.406 C32.836,178.409 32.921,178.579 33.095,178.615 C33.133,178.542 33.174,178.469 33.215,178.406 C33.269,178.469 33.323,178.541 33.374,178.615 C33.396,178.58 33.411,178.542 33.418,178.504 C33.506,178.33 33.569,178.153 33.639,177.966 C33.68,177.989 33.721,178.004 33.753,178.02 C33.892,178.413 34.044,178.811 34.177,179.212 L34.177,178.345 C34.502,178.516 34.651,178.874 34.936,179.102 L34.936,178.453 L34.993,178.453 C35.113,178.811 35.356,179.07 35.695,179.212 C35.619,178.826 35.556,178.453 35.473,178.077 L35.53,178.077 C35.682,178.255 35.815,178.438 35.967,178.615 L35.967,177.694 L36.011,177.694 C36.093,177.764 36.163,177.843 36.233,177.915 C37.554,178.516 38.092,180.161 38.993,181.211 C39.414,181.514 39.847,181.815 40.281,182.115 C41.356,183.618 42.513,184.993 44.117,185.955 C44.379,186.313 44.654,186.669 44.923,187.03 C45.081,187.055 45.246,187.072 45.404,187.087 C45.619,187.413 45.84,187.738 46.056,188.058 C47.09,188.472 48.092,188.621 47.839,189.893 C49.61,189.256 50.79,191.012 51.502,192.056 C51.811,192.324 52.128,192.593 52.419,192.862 C52.608,193.15 52.782,193.435 52.963,193.728 C53.288,193.886 53.614,194.048 53.937,194.209 C53.984,194.497 54.048,194.782 54.095,195.075 C54.348,195.484 55.613,196.296 55.986,196.8 C56.239,197.27 56.492,197.736 56.736,198.197 C57.738,199.471 58.776,201.075 60.034,202.094 C60.932,202.885 61.828,203.675 62.729,204.46 C63.052,205.487 63.377,206.515 63.703,207.542 C65.338,211.413 66.271,215.639 67.473,220.06 C67.425,220.222 67.378,220.389 67.315,220.547 C67.226,221.028 67.53,221.091 67.584,221.306 C67.552,221.607 67.511,221.913 67.473,222.217 C67.72,223.005 68.428,223.511 68.722,224.159 L68.722,225.187 C68.991,226.366 69.75,227.781 70.019,229.073 C70.098,230.067 70.161,231.051 70.231,232.044 C70.376,232.822 70.705,235.099 70.452,235.984 C70.098,237.189 69.782,238.236 68.89,238.897 C68.184,239.406 67.068,239.554 66.834,240.513 L66.888,240.513 C66.983,240.478 67.068,240.446 67.156,240.408 C67.077,240.535 67.014,240.655 66.941,240.781 L67.425,240.781 C67.157,241.051 66.888,241.329 66.619,241.597 C66.233,242.869 64.664,243.35 64.026,244.397 C64.209,245.333 65.085,245.589 65.702,246.069 C65.253,246.582 64.8,247.081 64.348,247.591 L64.348,247.692 C65.854,248.827 70.028,250.184 72.454,248.768 C73.014,248.441 73.292,247.828 73.633,247.262 C74.627,245.63 74.298,245.586 73.26,244.182 C73.393,243.986 73.539,243.849 73.798,243.752 C73.728,243.033 73.624,242.704 74.114,242.347 C74.478,242.455 74.399,242.628 74.658,242.347 C74.747,242.312 74.835,242.28 74.936,242.242 C75.227,242.299 75.316,242.419 75.521,242.569 C75.537,242.202 75.553,241.85 75.575,241.483 C75.86,241.525 75.891,241.584 76.069,241.705 C76.107,241.281 75.986,240.667 76.069,240.408 C76.186,240.496 76.312,240.585 76.439,240.677 C77.081,238.533 76.1,237.106 76.069,235.01 C76.186,235.082 76.312,235.158 76.439,235.225 C76.201,234.487 75.964,233.754 75.743,233.011 C75.758,232.986 75.774,232.982 75.79,232.963 C75.901,232.982 76.011,232.986 76.113,233.011 C75.964,232.596 75.828,232.179 75.679,231.768 C75.79,231.79 75.901,231.812 76.011,231.828 C75.815,231.116 75.752,230.275 75.521,229.56 C75.616,229.513 75.702,229.457 75.79,229.396 C75.702,229.143 75.616,228.89 75.521,228.637 C75.594,228.63 75.664,228.605 75.743,228.586 C75.499,228.099 75.436,227.321 75.679,226.92 L76.011,226.92 C75.942,226.689 75.98,226.556 76.068,226.376 L76.334,226.376 C76.249,226.161 76.154,225.942 76.068,225.733 C76.423,225.301 76.391,224.453 76.764,223.89 C77.017,223.859 76.998,223.84 77.144,223.732 C77.093,223.134 77.093,222.423 77.577,222.486 L77.624,222.486 C77.473,221.582 76.597,221.607 76.872,220.494 C76.929,220.471 76.985,220.456 77.03,220.439 C77.308,220.336 77.46,220.506 77.681,220.601 C77.631,220.091 77.371,219.962 77.081,219.573 L77.081,219.465 C77.182,219.433 77.27,219.393 77.356,219.361 C77.118,219.269 76.897,219.18 76.66,219.092 C76.872,219.001 77.08,218.912 77.308,218.817 C77.229,218.666 77.22,218.735 77.251,218.548 C76.96,218.586 76.669,218.624 76.385,218.659 C76.47,218.356 76.638,218.213 76.929,218.118 C76.913,218.086 76.897,218.048 76.872,218.01 C76.619,217.884 76.359,217.757 76.113,217.631 C76.343,217.597 76.587,217.559 76.818,217.527 L76.707,217.527 C75.853,216.897 75.553,215.898 75.094,214.879 C75.158,214.86 75.227,214.848 75.309,214.826 C74.984,213.5 74.658,212.159 74.335,210.831 L74.335,206.998 C74.266,206.46 74.193,205.92 74.114,205.382 L74.604,205.382 C74.437,205.193 74.351,205.148 74.278,204.845 C74.626,204.607 75.11,204.284 75.632,204.25 C75.853,204.339 76.068,204.427 76.271,204.516 L76.271,204.25 C76.549,204.339 76.818,204.427 77.08,204.516 C76.985,204.392 76.871,204.263 76.764,204.139 C77.197,204.215 77.545,204.322 77.839,204.516 C77.988,205.249 78.263,205.667 78.706,206.081 C79.547,205.872 79.908,206.774 80.496,207.058 C81.119,207.365 81.666,207.457 82.375,207.757 C82.59,207.919 82.805,208.079 83.026,208.237 C83.323,208.279 83.633,208.317 83.943,208.355 C84.139,208.434 84.241,208.728 84.544,208.775 C84.962,208.855 85.145,208.472 85.556,208.617 C85.885,208.775 86.062,209.139 86.315,209.374 C86.622,209.307 86.923,209.231 87.232,209.161 C87.391,209.408 87.397,209.247 87.397,209.484 C87.58,209.392 87.751,209.306 87.928,209.209 C88.504,209.61 89.238,209.709 89.769,210.025 C90.022,209.987 90.275,209.952 90.534,209.911 C91.312,210.101 92.109,210.531 93.064,210.73 C94.19,210.951 95.55,210.506 96.088,211.208 C96.227,211.09 96.195,211.069 96.404,210.995 C96.505,211.084 96.594,211.172 96.679,211.265 C96.727,211.122 96.79,210.98 96.837,210.831 L97.049,210.831 C97.29,211.069 97.517,211.299 97.764,211.537 C97.669,211.375 97.574,211.208 97.486,211.046 C97.511,211.012 97.517,210.98 97.543,210.939 L97.764,210.939 C98.03,211.179 98.251,211.445 98.513,211.698 C98.504,211.328 98.561,211.195 98.672,210.995 L98.947,210.995 C99.263,211.145 99.409,211.252 99.541,211.584 L99.589,211.584 C99.541,211.306 99.447,211.141 99.589,210.939 C99.832,211.128 100.016,211.375 100.136,211.698 L100.19,211.698 C100.168,211.461 100.149,211.233 100.136,210.996 C100.348,211.101 100.56,211.208 100.781,211.316 C100.806,211.122 100.8,211.158 100.885,211.046 C101.433,211.084 101.708,210.879 102.128,211.101 C102.166,210.907 102.15,210.939 102.236,210.831 C102.381,210.92 102.521,211.012 102.666,211.101 C102.71,210.838 102.729,210.848 102.887,210.73 C103.083,210.816 103.28,210.907 103.479,210.996 C104.039,210.401 104.5,211.027 105.202,210.831 C106.398,210.5 106.79,209.908 108.444,210.082 C108.517,209.912 108.586,209.754 108.656,209.595 C109.636,209.621 110.152,208.805 111.407,208.946 L111.407,208.617 C111.701,208.64 112.445,208.504 112.603,208.402 L112.603,208.08 C113.235,208.08 113.387,207.938 114.001,208.134 C114.026,207.865 114.064,207.682 114.216,207.542 C114.538,207.536 114.507,207.318 114.975,207.321 C114.927,207.141 114.918,207.141 115.022,206.998 C115.095,207.059 115.164,207.11 115.244,207.16 C115.19,206.979 115.139,206.806 115.076,206.623 C115.37,206.745 115.655,206.876 115.949,206.998 C113.931,204.301 119.055,201.382 120.421,200.091 C120.452,200.11 120.503,200.127 120.535,200.152 C120.557,202.489 122.644,203.248 123.552,204.738 C125.152,207.365 126.518,210.114 128.194,212.672 C129.169,214.055 130.139,215.44 131.104,216.822 C131.382,216.746 131.294,216.737 131.547,216.878 C131.648,217.473 131.752,218.065 131.869,218.66 C132.059,219.14 132.66,219.345 132.891,219.741 C133.071,220.051 132.755,220.617 132.837,220.816 C132.964,221.152 133.128,221.211 132.995,221.679 C133.217,221.622 133.428,221.576 133.64,221.515 C133.713,221.781 133.618,222.682 133.754,222.919 C133.798,223.005 134.077,223.062 134.134,223.195 C134.228,224.273 134.314,225.348 134.399,226.43 C133.723,229.693 133.09,233.397 132.078,236.63 C131.667,237.673 131.256,238.717 130.835,239.763 C130.718,240.317 130.592,240.876 130.465,241.437 C129.674,242.955 127.42,243.258 127.008,245.156 C127.05,245.194 127.081,245.232 127.119,245.264 C127.334,245.232 127.556,245.194 127.767,245.156 L127.767,245.215 C127.309,246.01 124.083,249.124 124.311,249.801 C125.006,251.186 129.244,250.722 130.781,250.444 C131.414,250.333 131.895,250.893 132.299,250.655 L133.798,248.445 C134.039,247.579 133.254,246.623 132.945,246.023 C133.09,245.858 133.229,245.696 133.375,245.532 C133.722,245.542 133.792,245.605 134.02,245.696 L134.02,244.941 C134.134,244.925 134.235,244.903 134.345,244.887 C134.734,245.045 135.601,245.321 135.8,245.264 C136.037,244.994 136.275,244.72 136.505,244.457 C136.543,244.151 136.575,243.843 136.613,243.54 C136.86,243.54 136.929,243.543 137.05,243.423 C137.138,242.911 137.233,242.388 137.318,241.867 C137.404,241.933 137.492,242.013 137.587,242.078 C137.707,242.228 137.84,242.363 137.967,242.512 L138.014,242.512 C138.188,239.451 138.204,235.601 139.042,232.907 C139.921,230.102 141.262,226.936 141.683,223.891 C141.945,222.034 143.485,220.627 143.033,218.447 C142.546,216.088 140.522,214.912 140.016,212.672 C140.029,212.651 140.054,212.635 140.07,212.613 C140.196,212.72 140.323,212.83 140.44,212.942 C141.066,214.241 142.325,214.688 142.767,216.332 L142.821,216.332 C142.875,216.231 142.926,216.123 142.979,216.016 C143.033,216.048 143.09,216.088 143.147,216.123 C143.495,216.974 144.213,217.505 144.497,218.498 C144.687,218.422 144.602,218.365 144.766,218.498 C144.994,219.162 145.225,219.826 145.462,220.494 C147.018,222.196 148.049,224.036 147.999,227.081 C148.071,227.041 148.144,226.999 148.22,226.974 C148.214,227.983 148.397,228.738 148.593,229.396 C148.758,230.984 148.916,232.569 149.083,234.146 C149.39,235.877 148.776,238.055 149.295,239.596 C149.052,240.623 148.176,241.582 147.511,242.243 C147.502,242.976 147.701,243.214 147.84,243.704 C147.644,243.777 145.646,246.93 145.626,247.423 C145.841,247.844 146.404,248.141 146.869,248.289 C147.249,248.414 151.022,248.384 151.401,248.236 C152.521,247.771 153.71,247.066 154.374,246.124 C154.966,245.295 153.432,243.919 153.343,243.271 C153.659,242.869 154.017,242.521 154.311,242.078 C154.728,242.091 154.823,242.103 155.013,241.974 C155.013,241.186 155.291,240.969 155.45,240.355 C155.551,240.339 155.661,240.317 155.779,240.298 C155.646,240.014 155.576,239.776 155.715,239.491 L156.041,239.491 z M15.947,185.894 C15.812,186.517 15.22,187.01 14.752,187.299 C14.885,186.635 15.464,185.932 15.947,185.574 L15.947,185.894 z M40.654,146.988 C40.647,147.096 40.628,147.206 40.606,147.311 C40.496,147.526 40.407,147.557 40.173,147.64 C40.29,147.37 40.407,147.13 40.654,146.988 z M38.661,145.802 L39.152,145.802 C39.041,145.925 38.93,146.054 38.819,146.178 L38.718,146.178 C38.693,146.13 38.677,146.073 38.661,146.014 C38.646,145.96 38.63,145.909 38.604,145.852 C38.63,145.837 38.646,145.82 38.661,145.802 z M39.088,146.339 C39.215,146.324 39.341,146.307 39.477,146.288 C39.357,146.801 38.898,147.228 38.51,147.478 C38.487,147.348 38.472,147.225 38.446,147.096 C38.646,146.805 38.763,146.495 39.088,146.339 z M39.414,147.8 C38.883,148.983 38.339,150.179 37.801,151.359 C37.656,151.374 37.517,151.397 37.365,151.418 L37.365,151.087 C38.193,149.28 38.171,147.956 40.236,147.041 C40.132,147.642 39.838,148.161 39.319,148.338 L39.319,148.285 C39.363,148.123 39.414,147.958 39.477,147.8 L39.414,147.8 z M39.477,150.387 L39.414,150.387 L39.414,150.28 C39.278,149.881 39.983,148.951 40.331,148.822 C40.236,149.36 39.847,150.094 39.477,150.387 z M41.04,152.655 L41.04,152.601 C41.729,151.538 42.545,151.462 44.006,151.087 C44.117,151.106 44.221,151.127 44.329,151.144 C44.306,151.178 44.291,151.213 44.275,151.254 C42.925,151.38 42.061,152.209 41.04,152.655 z M43.31,152.601 L43.31,152.554 C43.411,152.301 43.595,151.96 43.848,152.004 C44.132,151.934 44.417,151.865 44.702,151.791 C44.512,152.124 43.722,152.472 43.31,152.601 z M46.321,151.735 C45.856,151.827 45.398,151.912 44.923,152.004 L44.923,151.956 C45.17,151.633 45.499,151.602 45.942,151.466 C46.078,151.523 46.204,151.58 46.321,151.627 L46.321,151.735 z M48.054,152.225 C47.649,152.348 47.384,152.512 46.859,152.554 L46.859,152.434 C47.185,152.276 47.517,152.118 47.839,151.956 C47.928,152.004 48.016,152.064 48.102,152.118 C48.092,152.156 48.08,152.187 48.054,152.225 z M48.434,151.956 C48.228,151.865 48.038,151.776 47.839,151.681 C48.26,151.545 48.522,151.336 49.082,151.311 C48.861,151.523 48.649,151.735 48.434,151.956 z M52.697,156.649 L52.64,156.649 L52.64,156.59 C52.729,156.457 52.703,156.463 52.855,156.377 C52.805,156.466 52.741,156.558 52.697,156.649 z M52.855,156.32 C52.925,156.16 52.893,156.204 53.02,156.109 C52.963,156.181 52.909,156.257 52.855,156.32 z M55.613,156.972 C55.471,157.286 54.923,157.823 54.639,157.994 C54.743,157.509 55.208,157.153 55.613,156.972 z M54.743,158.38 L54.743,158.155 C55.006,157.678 55.502,157.159 56.094,157.026 C56.119,157.064 56.135,157.096 56.15,157.14 C55.746,157.57 55.354,157.994 54.965,158.427 C54.892,158.408 54.816,158.392 54.743,158.38 z M148.113,198.471 C147.471,200.078 147.018,202.979 146.816,205.167 C146.364,205.085 146.184,204.87 146.006,204.516 C146.025,204.427 146.038,204.339 146.057,204.25 L146.436,204.516 C146.196,204.212 145.968,203.902 145.741,203.605 L146.111,203.605 L146.111,203.548 C145.162,203.137 144.963,201.78 144.498,200.898 C144.513,200.885 144.529,200.866 144.545,200.85 C144.76,200.961 145.026,201.128 145.304,201.008 L145.203,201.008 C144.994,200.629 144.741,200.344 144.602,199.873 C144.767,199.949 144.925,200.015 145.083,200.091 C144.9,199.753 144.703,199.563 144.656,199.066 C144.672,199.032 144.688,199 144.703,198.956 C144.814,198.978 144.925,199 145.035,199.009 C144.868,198.747 144.703,198.472 144.545,198.197 C144.741,197.118 144.444,195.819 144.656,194.537 C144.688,194.512 144.729,194.497 144.767,194.478 C144.83,194.537 144.909,194.585 144.972,194.645 C144.868,192.526 145.178,190.407 146.057,189.085 C146.215,188.861 146.544,188.788 146.658,188.488 C146.917,187.697 147.044,186.426 147.575,185.844 C147.66,187.849 147.676,189.768 147.619,191.884 L147.891,191.884 C147.819,192.359 147.746,192.827 147.676,193.295 C147.787,194.123 147.891,194.952 147.999,195.774 C147.904,196.299 147.819,196.818 147.733,197.343 L147.787,197.343 L147.787,197.229 C147.841,197.105 147.891,196.976 147.955,196.852 L148.056,196.852 C147.967,197.343 147.872,197.826 147.787,198.313 C147.891,198.256 147.999,198.197 148.113,198.149 L148.113,198.471 z" fill="#000000"/>
    <path d="M29.917,139.537 C29.917,139.417 29.917,139.29 29.917,139.164 C29.917,139.29 29.917,139.417 29.917,139.537 z" fill="#000000"/>
    <path d="M29.917,140.132 C29.917,139.951 29.917,139.774 29.917,139.594 C29.917,139.773 29.917,139.951 29.917,140.132 z" fill="#000000"/>
    <path d="M31.482,140.081 C31.482,139.951 31.482,139.83 31.482,139.701 C31.482,139.83 31.482,139.951 31.482,140.081 z" fill="#000000"/>
    <path d="M30.084,142.073 C30.097,142.042 30.122,142.006 30.148,141.972 C30.122,142.006 30.097,142.042 30.084,142.073 z" fill="#000000"/>
    <path d="M30.148,142.455 C30.154,142.417 30.17,142.386 30.192,142.352 C30.17,142.386 30.154,142.417 30.148,142.455 z" fill="#000000"/>
    <path d="M31.868,142.56 C31.878,142.531 31.893,142.487 31.919,142.455 C31.893,142.487 31.878,142.531 31.868,142.56 z" fill="#000000"/>
    <path d="M40.932,144.347 C40.97,144.347 41.002,144.347 41.04,144.347 C41.002,144.347 40.97,144.347 40.932,144.347 z" fill="#000000"/>
    <path d="M40.717,144.559 C40.764,144.524 40.818,144.49 40.875,144.448 C40.818,144.49 40.764,144.524 40.717,144.559 z" fill="#000000"/>
    <path d="M40.281,144.884 C40.407,144.789 40.534,144.701 40.654,144.612 C40.534,144.701 40.407,144.789 40.281,144.884 z" fill="#000000"/>
    <path d="M39.578,147.579 C39.604,147.547 39.61,147.509 39.626,147.478 C39.61,147.509 39.604,147.547 39.578,147.579 z" fill="#000000"/>
    <path d="M39.522,147.69 C39.54,147.655 39.563,147.617 39.578,147.579 C39.563,147.617 39.541,147.655 39.522,147.69 z" fill="#000000"/>
    <path d="M46.426,147.64 C46.467,147.64 46.505,147.64 46.543,147.64 C46.505,147.64 46.467,147.64 46.426,147.64 z" fill="#000000"/>
    <path d="M46.163,147.64 C46.204,147.64 46.226,147.64 46.277,147.64 C46.226,147.64 46.204,147.64 46.163,147.64 z" fill="#000000"/>
    <path d="M39.477,147.8 C39.49,147.762 39.499,147.718 39.522,147.69 C39.499,147.718 39.49,147.762 39.477,147.8 z" fill="#000000"/>
    <path d="M40.281,147.958 C40.299,147.924 40.322,147.892 40.331,147.848 C40.322,147.893 40.299,147.924 40.281,147.958 z" fill="#000000"/>
    <path d="M41.365,147.958 C41.397,147.958 41.438,147.958 41.46,147.958 C41.438,147.958 41.397,147.958 41.365,147.958 z" fill="#000000"/>
    <path d="M43.31,148.123 C43.342,148.123 43.374,148.123 43.411,148.123 C43.374,148.123 43.342,148.123 43.31,148.123 z" fill="#000000"/>
    <path d="M43.136,148.177 C43.2,148.177 43.247,148.177 43.31,148.177 C43.247,148.177 43.2,148.177 43.136,148.177 z" fill="#000000"/>
    <path d="M43.943,148.983 C43.99,148.983 44.022,148.983 44.063,148.983 C44.022,148.983 43.99,148.983 43.943,148.983 z" fill="#000000"/>
    <path d="M51.343,150.28 C51.4,150.245 51.454,150.21 51.502,150.179 C51.454,150.21 51.4,150.245 51.343,150.28 z" fill="#000000"/>
    <path d="M46.426,150.28 C46.489,150.245 46.543,150.21 46.599,150.179 C46.543,150.21 46.489,150.245 46.426,150.28 z" fill="#000000"/>
    <path d="M51.824,150.337 C51.865,150.337 51.897,150.337 51.938,150.337 C51.897,150.337 51.865,150.337 51.824,150.337 z" fill="#000000"/>
    <path d="M51.723,150.387 C51.761,150.387 51.802,150.387 51.824,150.387 C51.802,150.387 51.761,150.387 51.723,150.387 z" fill="#000000"/>
    <path d="M52.909,150.606 C52.95,150.606 52.982,150.606 53.02,150.606 C52.982,150.606 52.95,150.606 52.909,150.606 z" fill="#000000"/>
    <path d="M59.497,154.865 C59.528,154.865 59.56,154.865 59.604,154.865 C59.56,154.865 59.528,154.865 59.497,154.865 z" fill="#000000"/>
    <path d="M59.06,155.081 C59.098,155.081 59.13,155.081 59.171,155.081 C59.13,155.081 59.098,155.081 59.06,155.081 z" fill="#000000"/>
    <path d="M60.736,155.945 C60.768,155.945 60.806,155.945 60.847,155.945 C60.806,155.945 60.768,155.945 60.736,155.945 z" fill="#000000"/>
    <path d="M59.44,158.964 C59.509,158.882 59.582,158.787 59.661,158.696 C59.582,158.787 59.509,158.882 59.44,158.964 z" fill="#000000"/>
    <path d="M65.101,160.261 C65.126,160.227 65.139,160.198 65.158,160.157 C65.139,160.198 65.126,160.227 65.101,160.261 z" fill="#000000"/>
    <path d="M145.842,166.957 C145.88,166.957 145.912,166.957 145.953,166.957 C145.912,166.957 145.88,166.957 145.842,166.957 z" fill="#000000"/>
    <path d="M147.186,168.848 C147.227,168.848 147.265,168.848 147.303,168.848 C147.265,168.848 147.227,168.848 147.186,168.848 z" fill="#000000"/>
    <path d="M147.733,198.425 C147.746,198.38 147.765,198.349 147.787,198.313 C147.765,198.349 147.746,198.38 147.733,198.425 z" fill="#000000"/>
    <path d="M151.345,199.5 C151.361,199.462 151.383,199.424 151.402,199.392 C151.383,199.424 151.361,199.462 151.345,199.5 z" fill="#000000"/>
    <path d="M151.402,199.601 C151.424,199.572 151.44,199.538 151.456,199.5 C151.44,199.538 151.424,199.572 151.402,199.601 z" fill="#000000"/>
    <path d="M153.401,206.245 C153.416,206.207 153.432,206.173 153.457,206.141 C153.432,206.173 153.416,206.207 153.401,206.245 z" fill="#000000"/>
    <path d="M127.306,35.965 C127.102,35.356 126.833,34.733 126.501,34.094 C126.194,33.531 125.761,33.042 125.205,32.626 C124.65,32.211 124.038,31.868 123.373,31.6 C122.709,31.33 122.023,31.132 121.32,31.004 C120.616,30.877 119.97,30.812 119.383,30.812 C118.282,30.812 117.256,31.03 116.303,31.465 C115.35,31.9 114.473,32.467 113.673,33.163 C112.874,33.86 112.161,34.654 111.535,35.543 C110.908,36.432 110.377,37.324 109.943,38.218 C109.725,38.692 109.497,39.171 109.261,39.658 C109.025,40.144 108.83,40.649 108.676,41.174 L108.638,41.174 C107.729,41.174 106.908,41.142 106.171,41.078 C105.437,41.014 104.761,40.86 104.148,40.617 C103.535,40.374 102.968,40.013 102.449,39.533 C101.932,39.054 101.435,38.397 100.962,37.566 C100.668,37.08 100.41,36.646 100.186,36.262 C99.963,35.877 99.728,35.514 99.486,35.168 C99.243,34.823 98.975,34.485 98.68,34.151 C98.385,33.82 98.034,33.448 97.624,33.038 C97.535,32.975 97.371,32.866 97.135,32.713 C96.899,32.559 96.655,32.399 96.406,32.232 C96.156,32.066 95.936,31.909 95.744,31.762 C95.551,31.616 95.457,31.504 95.457,31.426 C95.457,31.413 95.46,31.404 95.465,31.398 C95.472,31.392 95.475,31.383 95.475,31.369 C95.603,31.33 95.744,31.27 95.897,31.187 C96.051,31.105 96.189,31.008 96.31,30.899 C96.43,30.791 96.534,30.665 96.617,30.525 C96.7,30.384 96.742,30.231 96.742,30.064 C96.742,29.886 96.71,29.735 96.645,29.614 C96.581,29.492 96.515,29.381 96.444,29.278 C96.374,29.175 96.31,29.077 96.252,28.981 C96.194,28.884 96.172,28.779 96.185,28.664 L96.012,28.664 L95.551,28.837 L95.475,28.837 C95.527,28.708 95.551,28.574 95.551,28.433 L95.551,28.011 C95.475,28.011 95.415,28.046 95.37,28.117 C95.325,28.187 95.283,28.264 95.245,28.346 C95.206,28.43 95.164,28.506 95.12,28.577 C95.075,28.648 95.014,28.683 94.937,28.683 C94.887,28.683 94.838,28.642 94.794,28.558 C94.749,28.475 94.708,28.376 94.669,28.26 C94.631,28.146 94.592,28.028 94.554,27.906 C94.515,27.784 94.477,27.692 94.439,27.628 L94.401,27.628 C94.298,27.628 94.235,27.676 94.209,27.772 C94.183,27.868 94.164,27.973 94.151,28.088 C94.138,28.203 94.119,28.319 94.094,28.433 C94.067,28.549 94.017,28.625 93.941,28.664 L93.902,28.683 C93.813,28.683 93.739,28.603 93.681,28.442 C93.624,28.284 93.573,28.107 93.528,27.916 C93.483,27.724 93.438,27.548 93.393,27.388 C93.349,27.228 93.289,27.148 93.211,27.148 C93.198,27.148 93.186,27.154 93.174,27.167 C93.148,27.219 93.115,27.308 93.077,27.436 C93.038,27.563 92.997,27.701 92.953,27.848 C92.908,27.995 92.869,28.133 92.837,28.26 C92.805,28.389 92.783,28.472 92.771,28.51 C92.744,28.599 92.723,28.651 92.703,28.664 C92.685,28.676 92.636,28.683 92.559,28.683 C92.367,28.683 92.197,28.622 92.051,28.501 C91.904,28.379 91.741,28.319 91.561,28.319 L91.561,28.586 L91.658,28.894 C91.658,28.958 91.65,29.06 91.638,29.201 L90.928,29.201 L90.928,29.719 L90.794,29.719 C90.703,29.719 90.621,29.735 90.544,29.766 C90.467,29.8 90.435,29.866 90.448,29.968 C90.308,30.505 90.196,30.995 90.113,31.436 C90.03,31.877 89.956,32.36 89.892,32.884 C89.866,33.013 89.813,33.124 89.73,33.22 C89.646,33.316 89.553,33.409 89.45,33.499 C89.349,33.589 89.259,33.687 89.182,33.796 C89.105,33.905 89.067,34.036 89.067,34.189 L89.182,34.189 C89.272,34.189 89.365,34.186 89.46,34.18 C89.556,34.173 89.623,34.17 89.662,34.17 C89.674,34.17 89.721,34.168 89.806,34.161 C89.889,34.154 89.972,34.145 90.055,34.132 C90.138,34.119 90.219,34.11 90.296,34.103 C90.373,34.097 90.422,34.094 90.449,34.094 C90.59,34.094 90.733,34.129 90.88,34.199 C91.027,34.269 91.101,34.394 91.101,34.573 C91.101,34.752 91.043,34.925 90.928,35.091 C90.813,35.258 90.682,35.43 90.535,35.609 C90.388,35.789 90.257,35.977 90.142,36.176 C90.027,36.374 89.969,36.588 89.969,36.818 C89.969,37.073 90.042,37.285 90.19,37.451 C90.336,37.617 90.518,37.755 90.736,37.864 C90.953,37.972 91.187,38.049 91.437,38.094 C91.686,38.139 91.906,38.161 92.098,38.161 C92.367,38.161 92.607,38.132 92.818,38.074 C93.029,38.017 93.25,37.905 93.481,37.739 L93.481,37.853 C93.481,38.02 93.455,38.167 93.404,38.295 C93.352,38.423 93.301,38.557 93.25,38.698 C92.956,39.401 92.705,40.076 92.501,40.722 C92.296,41.368 92.195,42.068 92.195,42.824 C92.195,43.284 92.229,43.668 92.301,43.974 C92.37,44.282 92.46,44.569 92.569,44.838 C92.676,45.107 92.805,45.379 92.953,45.653 C93.099,45.928 93.25,46.264 93.404,46.66 C93.505,46.967 93.595,47.272 93.672,47.572 C93.749,47.872 93.835,48.167 93.931,48.455 C94.027,48.742 94.145,49.024 94.286,49.299 C94.427,49.575 94.612,49.833 94.843,50.076 C95.034,50.306 95.245,50.514 95.475,50.699 C95.706,50.886 95.936,51.064 96.167,51.237 C96.396,51.409 96.624,51.584 96.848,51.765 C97.07,51.944 97.279,52.148 97.471,52.378 C97.497,52.404 97.531,52.461 97.577,52.551 C97.622,52.64 97.663,52.711 97.701,52.763 L98.642,54.758 C98.82,55.09 99.04,55.346 99.303,55.525 C99.565,55.704 99.824,55.903 100.082,56.12 C100.208,56.235 100.374,56.385 100.579,56.57 C100.784,56.756 100.979,56.932 101.164,57.099 C101.35,57.265 101.577,57.475 101.845,57.732 L101.845,58.115 L101.212,63.277 L101.039,63.602 C100.936,63.832 100.787,64.009 100.589,64.13 C100.39,64.252 100.17,64.338 99.927,64.389 C99.683,64.44 99.436,64.469 99.179,64.475 C98.923,64.482 98.693,64.485 98.488,64.485 C98.372,64.51 98.283,64.574 98.219,64.677 C98.155,64.78 98.059,64.85 97.931,64.888 C98.026,64.926 98.119,64.957 98.211,64.98 C98.193,64.993 98.181,65.012 98.181,65.041 C98.181,65.093 98.206,65.119 98.258,65.119 C98.296,65.119 98.314,65.093 98.314,65.041 C98.314,65.024 98.309,65.013 98.304,65.001 C98.366,65.014 98.428,65.025 98.488,65.031 C98.666,65.051 98.845,65.054 99.025,65.041 C99.205,65.028 99.382,65.012 99.562,64.993 C99.742,64.974 99.939,64.965 100.157,64.965 L100.157,65.617 C100.336,65.617 100.499,65.544 100.647,65.397 C100.793,65.249 100.951,65.157 101.116,65.119 C101.282,65.067 101.426,65.025 101.548,64.994 C101.669,64.963 101.788,64.939 101.903,64.927 C102.018,64.914 102.146,64.904 102.286,64.898 C102.428,64.891 102.594,64.888 102.785,64.888 C102.824,64.914 102.9,64.933 103.015,64.946 C103.13,64.959 103.189,64.997 103.189,65.061 L103.189,65.119 L102.729,66.232 L102.862,66.232 L104.262,65.08 L105.415,65.906 L105.606,65.906 C105.606,65.751 105.552,65.595 105.442,65.435 C105.334,65.276 105.248,65.119 105.184,64.965 C105.158,64.927 105.127,64.825 105.089,64.657 C105.091,64.635 105.1,64.617 105.107,64.597 C105.084,64.513 105.083,64.424 105.104,64.339 C105.074,64.255 105.065,64.162 105.089,64.07 C105.09,64.062 105.093,64.053 105.094,64.046 C105.091,64.02 105.088,63.995 105.086,63.969 C105.057,63.968 105.03,63.967 105.012,63.967 L105.012,63.2 L106.374,57.329 C106.424,57.124 106.498,56.945 106.595,56.791 C106.69,56.638 106.795,56.494 106.911,56.359 C107.026,56.226 107.154,56.091 107.294,55.957 C107.435,55.823 107.576,55.665 107.716,55.487 C107.782,55.423 107.822,55.375 107.842,55.343 C107.86,55.311 107.87,55.25 107.87,55.16 C107.87,55.071 107.838,55.008 107.775,54.968 C107.71,54.93 107.665,54.86 107.64,54.758 L107.678,54.758 C108.024,54.758 108.369,54.774 108.714,54.805 C109.061,54.838 109.406,54.854 109.751,54.854 L110.901,54.854 C110.927,54.854 111.029,54.844 111.208,54.824 C111.388,54.805 111.522,54.783 111.612,54.758 C111.688,54.745 111.813,54.726 111.986,54.7 C112.159,54.674 112.335,54.64 112.514,54.594 C112.693,54.55 112.853,54.489 112.993,54.412 C113.134,54.335 113.204,54.246 113.204,54.144 C113.204,54.042 113.163,53.98 113.08,53.962 C112.997,53.942 112.935,53.9 112.897,53.837 C112.987,53.811 113.098,53.78 113.234,53.741 C113.367,53.702 113.434,53.619 113.434,53.491 C113.434,53.402 113.399,53.335 113.328,53.289 C113.259,53.246 113.192,53.21 113.128,53.184 C113.23,53.133 113.364,53.085 113.53,53.04 C113.697,52.995 113.78,52.897 113.78,52.743 L113.78,52.705 L113.378,52.301 C113.364,52.276 113.358,52.256 113.358,52.244 C113.358,51.988 113.393,51.72 113.464,51.438 C113.535,51.156 113.581,50.888 113.609,50.632 L113.839,52.071 L113.933,52.071 C113.972,52.071 114.004,52.03 114.029,51.946 C114.055,51.864 114.084,51.767 114.115,51.659 C114.148,51.55 114.18,51.451 114.212,51.361 C114.243,51.272 114.286,51.214 114.337,51.189 L114.413,51.591 C114.35,52.027 114.305,52.433 114.278,52.809 C114.253,53.188 114.241,53.581 114.241,53.989 L114.241,54.297 C114.509,53.837 114.707,53.322 114.835,52.753 C114.963,52.184 115.059,51.637 115.124,51.112 C115.136,51.112 115.148,51.102 115.162,51.083 C115.174,51.064 115.186,51.049 115.2,51.035 C115.2,51.009 115.216,50.943 115.248,50.834 C115.279,50.725 115.296,50.657 115.296,50.632 C115.296,50.657 115.305,50.751 115.325,50.91 C115.344,51.07 115.354,51.163 115.354,51.188 C115.366,51.265 115.382,51.403 115.401,51.601 C115.421,51.799 115.44,52.01 115.458,52.234 C115.478,52.458 115.494,52.669 115.507,52.868 C115.519,53.066 115.526,53.197 115.526,53.26 C115.589,53.236 115.631,53.171 115.651,53.069 C115.669,52.966 115.678,52.902 115.678,52.876 C115.678,52.813 115.691,52.707 115.717,52.561 C115.743,52.413 115.756,52.327 115.756,52.301 L115.756,51.438 C115.756,50.965 115.737,50.534 115.699,50.142 C115.661,49.752 115.545,49.34 115.354,48.905 C115.455,48.97 115.529,49.071 115.574,49.212 C115.619,49.353 115.705,49.456 115.832,49.52 L115.832,49.462 C115.832,49.244 115.758,49.037 115.612,48.838 C115.465,48.64 115.302,48.451 115.124,48.272 C114.944,48.093 114.781,47.93 114.634,47.783 C114.487,47.636 114.413,47.504 114.413,47.389 L114.413,46.276 C114.452,46.353 114.49,46.453 114.528,46.574 C114.567,46.696 114.608,46.817 114.653,46.939 C114.697,47.06 114.746,47.172 114.796,47.275 C114.847,47.376 114.905,47.441 114.97,47.467 L114.97,46.929 C114.97,46.469 114.9,46.044 114.759,45.653 C114.617,45.262 114.426,44.883 114.183,44.512 L114.241,44.512 C114.305,44.537 114.393,44.569 114.509,44.607 C114.624,44.646 114.739,44.688 114.855,44.733 C114.97,44.777 115.074,44.835 115.171,44.904 C115.267,44.975 115.327,45.061 115.354,45.164 L115.678,46.162 C115.678,46.225 115.705,46.284 115.756,46.334 C115.808,46.296 115.832,46.238 115.832,46.162 C115.846,46.123 115.861,46.062 115.881,45.98 C115.9,45.897 115.916,45.807 115.928,45.71 C115.942,45.615 115.954,45.519 115.967,45.423 C115.98,45.327 115.992,45.26 116.005,45.221 L116.16,45.221 C116.326,45.272 116.463,45.314 116.572,45.346 C116.68,45.378 116.773,45.423 116.849,45.48 C116.927,45.538 116.993,45.615 117.052,45.71 C117.109,45.807 117.156,45.938 117.195,46.104 C117.246,46.066 117.295,45.996 117.339,45.893 C117.384,45.791 117.413,45.727 117.425,45.701 L117.483,45.701 C117.637,45.701 117.793,45.727 117.953,45.778 C118.112,45.829 118.27,45.883 118.424,45.941 C118.577,45.999 118.734,46.053 118.893,46.104 C119.053,46.156 119.223,46.181 119.402,46.181 C119.607,46.181 119.795,46.136 119.968,46.046 C120.141,45.957 120.227,45.785 120.227,45.528 C120.227,45.375 120.198,45.237 120.141,45.115 C120.083,44.995 120.054,44.857 120.054,44.704 L120.054,44.666 C120.271,44.576 120.459,44.487 120.62,44.397 C120.78,44.307 120.86,44.129 120.86,43.859 C120.86,43.617 120.798,43.412 120.678,43.245 C120.556,43.079 120.403,42.939 120.217,42.824 C120.031,42.708 119.834,42.615 119.622,42.545 C119.413,42.475 119.215,42.414 119.037,42.363 C118.973,42.338 118.937,42.312 118.931,42.286 C118.925,42.261 118.922,42.229 118.922,42.191 C118.922,42.165 118.925,42.139 118.931,42.114 C118.937,42.089 118.973,42.063 119.037,42.037 L121.109,41.327 L121.166,41.327 C121.179,41.34 121.217,41.394 121.282,41.49 C121.346,41.586 121.423,41.708 121.512,41.855 C121.601,42.002 121.672,42.114 121.724,42.191 C121.992,42.651 122.18,43.121 122.289,43.601 C122.397,44.08 122.452,44.588 122.452,45.126 C122.452,45.42 122.435,45.698 122.405,45.961 C122.373,46.223 122.356,46.495 122.356,46.776 C122.42,46.776 122.484,46.737 122.548,46.66 C122.612,46.585 122.656,46.533 122.682,46.507 C123.053,46.072 123.306,45.638 123.44,45.203 C123.575,44.767 123.641,44.276 123.641,43.725 C123.641,43.163 123.565,42.625 123.411,42.114 C123.258,41.603 123.04,41.104 122.759,40.618 L122.759,40.56 C122.759,40.458 122.801,40.38 122.883,40.33 C122.966,40.279 123.009,40.189 123.009,40.061 C123.009,39.907 122.944,39.786 122.817,39.697 C122.689,39.606 122.551,39.54 122.404,39.495 C122.257,39.45 122.119,39.408 121.992,39.37 C121.863,39.332 121.8,39.281 121.8,39.217 L121.8,39.179 C122.017,39.063 122.209,38.936 122.375,38.794 C122.542,38.654 122.701,38.495 122.856,38.315 C122.791,38.161 122.781,38.037 122.827,37.941 C122.871,37.845 122.932,37.752 123.009,37.663 C123.086,37.574 123.158,37.48 123.228,37.385 C123.299,37.289 123.335,37.171 123.335,37.03 C123.335,36.863 123.296,36.729 123.219,36.627 C123.142,36.525 123.049,36.435 122.941,36.358 C122.832,36.281 122.717,36.205 122.596,36.128 C122.474,36.051 122.369,35.956 122.278,35.839 C122.445,35.725 122.609,35.594 122.768,35.447 C122.928,35.299 123.009,35.111 123.009,34.881 C123.009,34.753 122.966,34.632 122.883,34.516 C122.8,34.401 122.698,34.296 122.577,34.2 C122.456,34.103 122.325,34.02 122.184,33.951 C122.043,33.88 121.915,33.82 121.8,33.768 C121.839,33.755 121.906,33.739 122.001,33.72 C122.097,33.701 122.199,33.678 122.308,33.653 C122.417,33.627 122.523,33.605 122.624,33.585 C122.726,33.567 122.804,33.55 122.856,33.537 C122.88,33.525 122.9,33.519 122.912,33.519 C122.938,33.519 122.97,33.525 123.009,33.537 C123.033,33.55 123.104,33.589 123.219,33.653 C123.334,33.717 123.424,33.781 123.487,33.844 C124.025,34.229 124.478,34.603 124.85,34.967 C125.221,35.331 125.525,35.725 125.761,36.147 C125.998,36.569 126.174,37.034 126.289,37.538 C126.404,38.044 126.475,38.616 126.501,39.255 L126.501,41.711 C126.693,41.558 126.858,41.321 126.999,41.002 C127.14,40.681 127.256,40.34 127.345,39.975 C127.433,39.611 127.502,39.249 127.546,38.89 C127.59,38.533 127.613,38.232 127.613,37.989 C127.614,37.247 127.511,36.572 127.306,35.965 z M89.547,34.113 C89.508,34.113 89.489,34.106 89.489,34.094 C89.464,34.055 89.482,34.036 89.547,34.036 C89.572,34.036 89.585,34.049 89.585,34.075 C89.585,34.1 89.572,34.113 89.547,34.113 z M93.566,37.671 C93.534,37.665 93.519,37.649 93.519,37.623 C93.519,37.612 93.531,37.593 93.557,37.566 C93.595,37.566 93.614,37.586 93.614,37.623 C93.614,37.662 93.598,37.678 93.566,37.671 z M103.265,65.042 C103.227,65.042 103.208,65.016 103.208,64.965 C103.208,64.915 103.227,64.888 103.265,64.888 C103.304,64.888 103.322,64.915 103.322,64.965 C103.322,65.016 103.304,65.042 103.265,65.042 z M104.378,58.211 C104.366,58.276 104.353,58.398 104.34,58.575 C104.327,58.755 104.311,58.967 104.292,59.209 C104.273,59.452 104.25,59.715 104.224,59.995 C104.199,60.277 104.177,60.539 104.157,60.782 C104.139,61.026 104.122,61.236 104.109,61.415 C104.096,61.595 104.084,61.717 104.071,61.78 L104.071,63.2 C104.059,63.302 104.052,63.398 104.052,63.487 L104.052,63.737 C104.052,63.98 104.004,64.179 103.908,64.331 C103.812,64.486 103.611,64.562 103.304,64.562 C103.252,64.562 103.165,64.553 103.045,64.533 C102.923,64.514 102.796,64.486 102.661,64.447 C102.526,64.408 102.408,64.364 102.306,64.313 C102.205,64.262 102.152,64.204 102.152,64.14 C102.152,64.094 102.162,64.054 102.176,64.018 C101.996,63.886 101.955,63.618 102.052,63.423 C102.055,63.388 102.057,63.34 102.057,63.277 L102.057,63.104 C102.057,63.053 102.063,63.008 102.075,62.97 C102.075,62.944 102.101,62.893 102.152,62.816 L102.152,62.586 L103.437,57.732 C103.502,57.616 103.55,57.498 103.582,57.377 C103.614,57.255 103.643,57.131 103.668,57.003 C103.77,57.067 103.883,57.127 104.004,57.185 C104.125,57.243 104.25,57.316 104.378,57.405 L104.378,58.211 z" fill="#000000"/>
  </g>
  <g id="Shape_1">
    <path d="M111.644,80.901 C111.648,80.896 111.652,80.89 111.655,80.885 C111.631,80.908 111.632,80.915 111.644,80.901 z M124.155,90.825 C122.677,87.064 121.262,89.29 121.253,89.26 C120.84,90.05 121.536,95.212 121.409,95.12 C121.571,97.743 118.418,99.691 118.429,99.621 C118.153,100.005 115.904,100.414 115.934,100.404 C115.754,100.461 113.179,100.147 113.139,100.126 C112.755,99.851 109.987,99.763 110.047,99.744 C109.816,99.85 108.91,99.176 108.851,99.195 C108.414,99.068 108.466,98.392 108.447,98.332 C109.157,97.647 110.163,93.699 110.242,93.741 C110.424,93.056 110.378,92.279 110.357,92.318 C110.157,91.787 110.518,91.673 110.518,91.673 C110.518,91.673 111.649,91.384 111.589,91.403 C111.919,91.299 112.192,91.115 112.132,91.134 C113.324,90.198 114.212,83.35 114.233,83.311 C114.114,82.721 115.079,81.692 115.049,81.701 C115.85,80.888 116.036,78.85 116.057,78.81 C115.833,77.362 115.371,78.101 115.321,78.15 C115.035,76.292 114.522,76.552 114.484,76.432 C114.153,76.535 113.906,77.009 113.876,77.019 C113.71,76.807 113.235,76.659 113.244,76.689 C112.554,76.806 112.312,78.137 112.233,78.096 C111.886,77.94 111.74,78.316 111.752,78.247 C111.579,78.433 111.654,79.829 111.654,79.829 C111.838,80.577 111.683,80.855 111.644,80.901 C111.338,81.344 110.859,84.075 110.782,83.948 C109.558,83.339 104.49,84.853 104.444,84.829 C103.981,84.937 104.013,84.43 104.047,84.419 C104.458,84.022 104.058,82.504 104.012,82.48 C104.93,82.116 105.605,77.202 105.57,77.213 C105.825,77.171 107.055,74.758 107.055,74.758 C107.298,74.07 108.931,73.061 108.944,72.98 C110.647,72.56 111.26,70.495 111.191,70.516 C111.457,69.171 110.052,68.351 109.947,68.384 C107.723,68.241 106.779,70.105 106.779,70.105 L105.559,71.941 C105.559,71.941 104.22,73.278 104.172,73.37 C103.762,73.766 103.674,73.488 103.709,73.477 C103.689,73.292 104.082,72.595 104.058,72.641 C106.822,70.971 106.408,68.922 106.421,68.841 C105.925,66.894 106.353,66.798 106.388,66.787 C107.795,64.816 107.128,63.42 107.176,63.329 C105.967,63.135 104.348,64.675 104.246,64.593 C103.577,63.923 101.531,63.496 101.579,63.404 C101.348,63.4 99.99,61.877 99.899,61.829 C99.349,60.931 98.054,60.458 97.997,60.4 C97.193,60.882 98.338,64.651 98.235,64.568 C98.275,64.938 97.34,65.614 97.329,65.579 C95.429,66.711 96.639,70.077 96.639,70.077 C96.649,70.636 96.3,70.686 96.26,70.665 C95.765,69.402 94.44,69.917 94.412,69.826 C93.741,70.004 89.846,69.378 89.816,69.388 C89.306,68.921 88.178,69.011 88.178,69.011 C87.981,68.908 87.541,68.452 87.541,68.452 C87.541,68.452 83.083,67.508 83.104,67.468 C80.901,68.028 81.746,69.875 81.785,69.896 C81.911,70.087 82.201,70.062 82.182,70.002 C82.219,71.109 83.193,71.103 83.249,71.089 C83.359,72.372 85.37,71.741 85.3,71.73 C85.367,71.94 86.647,72.232 86.677,72.222 C86.887,72.156 88.465,72.552 88.406,72.471 C88.557,72.952 90.684,73.308 90.684,73.308 C90.684,73.308 92.865,73.943 92.914,73.994 C93.504,74.403 93.686,75.402 93.637,75.352 C93.474,75.568 92.388,78.946 92.388,78.946 C92.388,78.946 91.488,81.341 91.469,81.281 C90.669,83.15 91.136,86.634 91.096,86.614 C91.198,87.044 91.263,89.037 91.253,89.007 C90.773,93.053 93.66,94.359 93.592,94.248 C93.875,96.833 95.286,97.644 95.247,97.624 C96.448,98.402 97.17,99.859 97.112,99.778 C98.373,102.848 99.806,102.993 99.756,102.942 C101.046,104.419 101.887,106.994 101.887,106.994 C102.33,108.406 104.074,109.542 104.044,109.551 C104.335,109.46 105.578,110.43 105.613,110.447 C105.83,111.237 107.139,112.046 107.12,111.986 C107.54,113.009 107.268,113.194 107.298,113.184 C106.311,115.167 106.735,115.017 106.732,114.955 C106.905,115.486 107.479,115.339 107.44,115.318 C108.083,115.578 108.92,114.458 108.911,114.428 C109.166,114.611 110.263,114.003 110.194,113.992 C111.265,113.721 110.561,111.796 110.482,111.755 C110.89,111.264 110.185,109.967 110.098,109.796 C109.844,109.513 107.539,104.592 107.521,104.532 C107.566,104.253 109.026,103.96 109.026,103.96 C109.026,103.96 111.781,104.217 111.791,104.247 C118.424,104.97 120.781,103.009 120.801,102.97 C122.56,102.153 124.21,98.994 124.17,98.974 C125.622,96.339 124.164,90.855 124.155,90.825 z" fill="#000000"/>
    <g>
      <path d="M89.565,56.904 C89.692,56.93 89.819,56.957 89.946,56.983 C90.515,57.171 90.913,57.471 91.243,57.815 C91.239,57.838 91.234,57.86 91.229,57.882 C90.78,59.125 90.405,60.322 89.797,61.156 C89.495,61.57 89.132,61.961 88.8,62.349 C88.468,62.736 88.084,63.071 87.75,63.461 C87.501,63.751 87.302,64.079 87.087,64.396 C86.265,65.609 85.827,67.518 85.443,69.354 C85.162,70.7 84.594,71.847 83.727,72.311 C83.511,72.427 83.24,72.534 82.986,72.507 C82.063,72.406 81.838,71.452 81.939,70.7 C82.113,69.403 82.764,68.578 83.23,67.653 C83.695,66.729 84.258,65.726 84.437,64.449 C84.482,64.131 84.504,63.761 84.541,63.396 C84.576,63.047 84.637,62.666 84.617,62.361 C84.585,61.876 84.429,61.418 84.405,60.916 C84.33,59.302 84.884,57.364 85.844,56.382 C86.167,56.376 86.523,56.372 86.914,56.513 C87.153,56.599 87.657,56.861 87.663,57.066 C87.665,57.149 87.517,57.382 87.448,57.535 C86.965,58.605 86.337,60.259 86.625,61.357 C87.157,60.691 87.81,60.068 88.28,59.251 C88.585,58.721 88.86,58.083 89.089,57.505 C89.174,57.291 89.201,57.021 89.354,56.907 C89.407,56.879 89.52,56.943 89.565,56.904 z" fill="#000000"/>
      <path d="M85.483,56.657 C85.408,56.769 85.325,56.869 85.269,57.01 C84.988,56.919 85.254,56.378 85.483,56.657 z" fill="#000000"/>
    </g>
    <path d="M91.101,59.182 L107.823,68.453 C107.823,68.453 109.153,69.938 106.922,69.873 L90.339,60.664 L90.572,60.198 L107.125,69.406 C107.125,69.406 107.887,69.485 107.612,68.834 L90.932,59.51 L91.027,59.108 L91.101,59.182 z" fill="#000000"/>
    <path d="M88.773,58.071 L88.636,58.346 L87.429,57.87 L87.545,57.563 z" fill="#000000"/>
    <path d="M106.521,70.062 C106.521,70.062 106.566,69.681 106.712,69.469 C106.858,69.257 107.167,69.152 107.178,69.046 C107.178,69.046 107.305,68.009 107.59,67.85 C107.59,67.85 107.749,67.702 107.876,67.945 C107.876,67.945 108.303,68.66 108.257,68.933 C108.211,69.207 106.612,70.671 106.447,70.39 C106.282,70.109 106.511,70.131 106.521,70.062 z" fill="#000000"/>
    <path d="M64.344,94.056 C64.344,94.056 65.045,95.314 65.342,95.356 C65.638,95.399 66.464,95.039 66.506,94.869 C66.548,94.7 66.061,93.557 66.061,93.557 L64.344,94.056 z" fill="#000000"/>
    <path d="M74.784,131.775 C74.784,131.775 75.265,132.752 75.409,133.564 L77.195,134.239 L77.597,133.117 L75.925,130.916 L74.784,131.775 z" fill="#000000"/>
    <path d="M92.857,139.088 C92.857,139.088 92.414,139.069 92.308,139.088 C92.202,139.107 92.583,135.488 92.583,135.488 L93.007,135.573 L94.298,138.726 L92.857,139.088 z" fill="#000000"/>
  </g>
</svg>
